cursivePixel.sfdir
StartChar: period
Encoding: 46 46 27
Width: 1100
Flags: HW
LayerCount: 2
Fore
SplineSet
580 0 m 1
 545.625 0 l 1
 545.625 34.375 l 1
 580 34.375 l 1
 580 0 l 1
EndSplineSet
EndChar
StartChar: zero
Encoding: 48 48 29
Width: 1100
Flags: HW
LayerCount: 2
Fore
SplineSet
580 0 m 1
 545.625 0 l 1
 545.625 34.375 l 1
 580 34.375 l 1
 580 0 l 1
EndSplineSet
EndChar
StartChar: one
Encoding: 49 49 30
Width: 1100
Flags: HW
LayerCount: 2
Fore
SplineSet
579.875 34.5 m 1
 545.5 34.5 l 1
 545.5 68.875 l 1
 579.875 68.875 l 1
 579.875 34.5 l 1
EndSplineSet
EndChar
StartChar: two
Encoding: 50 50 30
Width: 34
Flags: W
HStem: 68.875 34.375<0 34.375>
VStem: 0 34.375<68.875 103.25>
LayerCount: 2
Fore
SplineSet
34.375 68.875 m 1
 0 68.875 l 1
 0 103.25 l 1
 34.375 103.25 l 1
 34.375 68.875 l 1
EndSplineSet
Validated: 1
EndChar
StartChar: three
Encoding: 51 51 31
Width: 34
Flags: W
HStem: -34.375 34.375<0 34.375>
VStem: 0 34.375<-34.375 0>
LayerCount: 2
Fore
SplineSet
34.375 -34.375 m 1
 0 -34.375 l 1
 0 0 l 1
 34.375 0 l 1
 34.375 -34.375 l 1
EndSplineSet
Validated: 1
EndChar
StartChar: four
Encoding: 52 52 33
Width: 1100
Flags: HW
LayerCount: 2
Fore
SplineSet
580 -68.75 m 1
 545.625 -68.75 l 1
 545.625 -34.375 l 1
 580 -34.375 l 1
 580 -68.75 l 1
EndSplineSet
EndChar
StartChar: five
Encoding: 53 53 59
Width: 34
Flags: W
HStem: 103 34.375<-0.375 34>
VStem: -0.375 34.375<103 137.375>
LayerCount: 2
Fore
SplineSet
34 103 m 5
 -0.375 103 l 5
 -0.375 137.375 l 5
 34 137.375 l 5
 34 103 l 5
EndSplineSet
Validated: 524289
EndChar
StartChar: six
Encoding: 54 54 60
Width: 34
Flags: W
HStem: 137.375 34.375<-0.375 34>
VStem: -0.375 34.375<137.375 171.75>
LayerCount: 2
Fore
SplineSet
34 137.375 m 5
 -0.375 137.375 l 5
 -0.375 171.75 l 5
 34 171.75 l 5
 34 137.375 l 5
EndSplineSet
Validated: 524289
EndChar
StartChar: A
Encoding: 65 65 61
Width: 516
Flags: W
HStem: -51.5625 51.5625<378.125 395.312> -51.5625 34.375<395.312 412.5> 0 34.375<154.688 223.438 481.25 515.625> 17.1875 51.5625<103.125 120.312 257.812 275 378.125 395.312> 17.1875 34.375<34.375 51.5625 120.312 137.5 240.625 257.812> 34.375 51.5625<85.9375 103.125 275 292.188> 51.5625 51.5625<292.188 326.562 429.688 446.875> 326.562 51.5625<412.5 429.688> 343.75 51.5625<429.688 446.875> 360.938 51.5625<103.125 120.312> 360.938 34.375<446.875 464.062> 378.125 51.5625<120.312 137.5 343.75 360.938> 395.312 51.5625<137.5 154.688 326.562 343.75> 412.5 34.375<154.688 171.875> 429.688 34.375<189.062 206.25> 446.875 34.375<223.438 292.188>
VStem: 0 34.375<51.5625 120.312> 17.1875 34.375<17.1875 34.375> 34.375 34.375<275 309.375> 51.5625 34.375<85.9375 120.312> 68.75 51.5625<51.5625 68.75 360.938 378.125> 68.75 34.375<343.75 360.938> 85.9375 51.5625<378.125 395.312> 103.125 51.5625<395.312 412.5> 292.188 51.5625<429.688 446.875> 309.375 51.5625<412.5 429.688> 326.562 51.5625<103.125 137.5 395.312 412.5> 343.75 34.375<0 17.1875 137.5 154.688> 360.938 51.5625<223.438 326.562> 360.938 34.375<360.938 378.125> 378.125 51.5625<-51.5625 -34.375> 412.5 34.375<85.9375 103.125> 429.688 34.375<378.125 395.312> 446.875 34.375<34.375 51.5625>
LayerCount: 2
Fore
SplineSet
103.125 395.3125 m 1x000801
 103.125 412.5 l 1x004001
 120.3125 412.5 l 1x004008
 120.3125 429.6875 l 1x001008
 137.5 429.6875 l 1x001002
 137.5 446.875 l 1x000802
 171.875 446.875 l 1x000402
 171.875 464.0625 l 1
 206.25 464.0625 l 1x000202
 206.25 481.25 l 1
 309.375 481.25 l 1x00010240
 309.375 464.0625 l 1x00020240
 326.5625 464.0625 l 1x00020020
 326.5625 446.875 l 1x00080020
 343.75 446.875 l 1x00080080
 343.75 429.6875 l 1x00100080
 360.9375 429.6875 l 1x00100040
 360.9375 412.5 l 1x00040040
 378.125 412.5 l 1x00040020
 378.125 395.3125 l 1x00080020
 395.3125 395.3125 l 1x00080004
 395.3125 360.9375 l 1
 412.5 360.9375 l 1x00200005
 412.5 378.125 l 1x01000005
 429.6875 378.125 l 1x0100000080
 429.6875 395.3125 l 1x0080000080
 464.0625 395.3125 l 1
 464.0625 360.9375 l 1x0020000080
 446.875 360.9375 l 1x0020000040
 446.875 343.75 l 1x0080000040
 429.6875 343.75 l 1x0080000080
 429.6875 326.5625 l 1
 412.5 326.5625 l 1
 412.5 223.4375 l 1x0100000880
 412.5 206.25 l 1
 395.3125 206.25 l 1
 395.3125 189.0625 l 1
 395.3125 154.6875 l 1x01000005
 378.125 154.6875 l 1x01000010
 378.125 120.3125 l 1x01000020
 378.125 68.75 l 1x11000002
 395.3125 68.75 l 1x11000004
 395.3125 85.9375 l 1
 412.5 85.9375 l 1x04000005
 412.5 103.125 l 1
 446.875 103.125 l 1x02000005
 446.875 85.9375 l 1x04000005
 464.0625 85.9375 l 1x0400000080
 464.0625 68.75 l 1x1000000080
 481.25 68.75 l 1x1000000040
 481.25 34.375 l 1
 515.625 34.375 l 1
 515.625 0 l 1
 481.25 0 l 1
 481.25 -17.1875 l 1
 446.875 -17.1875 l 1
 446.875 -34.375 l 1
 429.6875 -34.375 l 1
 429.6875 -51.5625 l 1x6000000240
 378.125 -51.5625 l 1
 378.125 -34.375 l 1x8000000240
 360.9375 -34.375 l 1
 360.9375 -17.1875 l 1x40000004
 343.75 -17.1875 l 1
 343.75 17.1875 l 1x48000010
 326.5625 17.1875 l 1x48000020
 326.5625 51.5625 l 1x02000020
 292.1875 51.5625 l 1x02000080
 292.1875 34.375 l 1
 275 34.375 l 1x04000080
 275 17.1875 l 1x10000080
 240.625 17.1875 l 1x08000080
 240.625 0 l 1
 137.5 0 l 1x20000280
 137.5 17.1875 l 1x08000280
 103.125 17.1875 l 1x100001
 103.125 34.375 l 1x040001
 85.9375 34.375 l 1x040002
 85.9375 51.5625 l 1x020002
 68.75 51.5625 l 1x020008
 68.75 68.75 l 1x100008
 51.5625 68.75 l 1x100010
 51.5625 120.3125 l 1
 34.375 120.3125 l 1
 34.375 51.5625 l 1
 51.5625 51.5625 l 1x080090
 51.5625 17.1875 l 1
 17.1875 17.1875 l 1x080040
 17.1875 34.375 l 1x040040
 0 34.375 l 1
 0 154.6875 l 1x040080
 17.1875 154.6875 l 1
 17.1875 275 l 1x040040
 34.375 275 l 1
 34.375 326.5625 l 1x050020
 51.5625 326.5625 l 1x050010
 51.5625 343.75 l 1x008010
 68.75 343.75 l 1x008004
 68.75 378.125 l 1x001008
 85.9375 378.125 l 1x001002
 85.9375 395.3125 l 1x000802
 103.125 395.3125 l 1x000801
292.1875 103.125 m 1x02000180
 326.5625 103.125 l 1
 326.5625 137.5 l 1x02000020
 343.75 137.5 l 1
 343.75 223.4375 l 1x02000010
 360.9375 223.4375 l 1x02000008
 360.9375 378.125 l 1x02100004
 343.75 378.125 l 1x02100010
 343.75 395.3125 l 1x00080010
 326.5625 395.3125 l 1x00080020
 326.5625 412.5 l 1x00040020
 309.375 412.5 l 1x00040040
 309.375 429.6875 l 1x00020040
 292.1875 429.6875 l 1x00020080
 292.1875 446.875 l 1
 257.8125 446.875 l 1
 223.4375 446.875 l 1x00010080
 223.4375 429.6875 l 1
 189.0625 429.6875 l 1x00020080
 189.0625 412.5 l 1
 154.6875 412.5 l 1x00040180
 154.6875 395.3125 l 1x00080180
 137.5 395.3125 l 1x000802
 137.5 378.125 l 1x001002
 120.3125 378.125 l 1x001008
 120.3125 360.9375 l 1x004008
 103.125 360.9375 l 1x004004
 103.125 343.75 l 1x008004
 103.125 326.5625 l 1x010001
 85.9375 326.5625 l 1
 85.9375 309.375 l 1
 68.75 309.375 l 1x010022
 68.75 189.0625 l 1
 68.75 137.5 l 1x010004
 85.9375 137.5 l 1x010002
 85.9375 85.9375 l 1
 103.125 85.9375 l 1x050011
 103.125 68.75 l 1x100011
 120.3125 68.75 l 1x100008
 120.3125 51.5625 l 1x080008
 154.6875 51.5625 l 1
 154.6875 34.375 l 1
 223.4375 34.375 l 1
 223.4375 51.5625 l 1x220001
 257.8125 51.5625 l 1x080001
 257.8125 68.75 l 1
 275 68.75 l 1x100001
 275 85.9375 l 1
 292.1875 85.9375 l 1x04000180
 292.1875 103.125 l 1x02000180
446.875 51.5625 m 1x0200000040
 429.6875 51.5625 l 1x0200000080
 429.6875 34.375 l 1x0400000080
 446.875 34.375 l 1x0400000040
 446.875 51.5625 l 1x0200000040
412.5 17.1875 m 1x48000005
 378.125 17.1875 l 1
 378.125 0 l 1x90000011
 395.3125 0 l 1x90000004
 395.3125 -17.1875 l 1
 412.5 -17.1875 l 1
 412.5 17.1875 l 1x48000005
EndSplineSet
Validated: 524289
EndChar
StartChar: B
Encoding: 66 66 62
Width: 378
Flags: W
HStem: 0 34.375<120.312 206.25> 17.1875 34.375<223.438 240.625> 34.375 51.5625<17.1875 34.375> 34.375 34.375<0 17.1875> 85.9375 34.375<223.438 257.812 309.375 326.562> 103.125 34.375<343.75 378.125> 120.312 51.5625<120.312 137.5> 120.312 34.375<171.875 189.062> 137.5 51.5625<137.5 154.688 257.812 275> 154.688 51.5625<154.688 171.875 223.438 257.812> 171.875 51.5625<171.875 189.062> 189.062 51.5625<189.062 206.25> 206.25 51.5625<206.25 223.438> 223.438 51.5625<223.438 240.625> 464.062 51.5625<68.75 85.9375> 481.25 51.5625<85.9375 103.125> 498.438 51.5625<103.125 120.312> 515.625 51.5625<120.312 137.5> 532.812 51.5625<137.5 154.688> 550 34.375<154.688 171.875> 567.188 34.375<189.062 206.25 292.188 309.375> 584.375 34.375<223.438 275>
VStem: 0 34.375<34.375 51.5625 223.438 360.938> 17.1875 34.375<137.5 206.25 378.125 429.688> 34.375 51.5625<464.062 481.25> 34.375 34.375<446.875 464.062> 51.5625 51.5625<481.25 498.438> 68.75 51.5625<34.375 51.5625 498.438 515.625> 85.9375 51.5625<120.312 137.5 515.625 532.812> 103.125 51.5625<137.5 154.688 532.812 550> 120.312 51.5625<154.688 171.875> 137.5 51.5625<171.875 189.062> 154.688 51.5625<189.062 206.25> 171.875 51.5625<120.312 154.688 206.25 223.438> 189.062 51.5625<223.438 240.625> 206.25 51.5625<240.625 257.812> 223.438 34.375<189.062 206.25> 240.625 51.5625<51.5625 68.75 292.188 309.375> 240.625 34.375<275 292.188> 257.812 51.5625<68.75 85.9375 137.5 154.688 309.375 326.562> 275 34.375<120.312 137.5 326.562 343.75> 292.188 34.375<360.938 395.312> 309.375 34.375<412.5 464.062 550 567.188> 326.562 51.5625<120.312 137.5> 326.562 34.375<481.25 532.812>
LayerCount: 2
Fore
SplineSet
0 206.25 m 1x000802
 0 378.125 l 1x000802
 17.1875 378.125 l 1
 17.1875 446.875 l 1x000801
 34.375 446.875 l 1x00080040
 34.375 481.25 l 1x00090080
 51.5625 481.25 l 1x00090020
 51.5625 498.4375 l 1x00008020
 68.75 498.4375 l 1x00008010
 68.75 515.625 l 1x00020010
 85.9375 515.625 l 1x00020008
 85.9375 532.8125 l 1x00010008
 103.125 532.8125 l 1x00010004
 103.125 550 l 1x00008004
 120.3125 550 l 1x00008002
 120.3125 567.1875 l 1x00004002
 137.5 567.1875 l 1x00004001
 137.5 584.375 l 1x00002001
 171.875 584.375 l 1x0000100040
 171.875 601.5625 l 1x0000080040
 206.25 601.5625 l 1x0000080010
 206.25 618.75 l 1
 292.1875 618.75 l 1x000004001040
 292.1875 601.5625 l 1x000008001040
 326.5625 601.5625 l 1x000008000008
 326.5625 584.375 l 1x000004000008
 343.75 584.375 l 1x000004000020
 343.75 550 l 1x000010000020
 360.9375 550 l 1
 360.9375 464.0625 l 1x000210000008
 343.75 464.0625 l 1
 343.75 395.3125 l 1x000210000020
 326.5625 395.3125 l 1x000210000040
 326.5625 343.75 l 1
 309.375 343.75 l 1x000210000088
 309.375 309.375 l 1x0002100001
 292.1875 309.375 l 1
 292.1875 292.1875 l 1x0002100004
 275 292.1875 l 1x0002100002
 275 257.8125 l 1
 257.8125 257.8125 l 1x000a10001080
 257.8125 240.625 l 1x001000001080
 240.625 240.625 l 1x0010000020
 240.625 223.4375 l 1x0004000020
 223.4375 223.4375 l 1
 223.4375 206.25 l 1x0044000040
 206.25 206.25 l 1x0008000080
 206.25 189.0625 l 1
 223.4375 189.0625 l 1x0010000088
 223.4375 206.25 l 1x0040000040
 257.8125 206.25 l 1x0040000008
 257.8125 189.0625 l 1
 275 189.0625 l 1x008000000880
 275 171.875 l 1x002000000880
 292.1875 171.875 l 1x002000000040
 292.1875 154.6875 l 1x004000000040
 309.375 154.6875 l 1x0040000001
 309.375 120.3125 l 1
 326.5625 120.3125 l 1
 326.5625 137.5 l 1x088000000090
 378.125 137.5 l 1
 378.125 103.125 l 1x040000000090
 343.75 103.125 l 1x040000000020
 343.75 85.9375 l 1x080000000020
 309.375 85.9375 l 1
 309.375 68.75 l 1x1800000001
 292.1875 68.75 l 1x1800000004
 292.1875 51.5625 l 1x4000000004
 275 51.5625 l 1x400000000080
 275 34.375 l 1x100000000080
 257.8125 34.375 l 1x1000000001
 257.8125 17.1875 l 1x4000000001
 223.4375 17.1875 l 1x4000000008
 223.4375 0 l 1
 120.3125 0 l 1x8000000208
 103.125 0 l 1x80000004
 103.125 17.1875 l 1x40000004
 85.9375 17.1875 l 1x40000008
 85.9375 34.375 l 1x10000008
 68.75 34.375 l 1x10000010
 68.75 51.5625 l 1x40000010
 51.5625 51.5625 l 1
 34.375 51.5625 l 1x40000220
 34.375 34.375 l 1x20000220
 17.1875 34.375 l 1x200001
 0 34.375 l 1x100002
 0 51.5625 l 1x400002
 0 68.75 l 1x100002
 17.1875 68.75 l 1x100001
 17.1875 85.9375 l 1x200001
 34.375 85.9375 l 1
 34.375 120.3125 l 1x21000040
 17.1875 120.3125 l 1x210001
 17.1875 154.6875 l 1x004001
 17.1875 206.25 l 1x000801
 0 206.25 l 1x000802
206.25 257.8125 m 1x0008000010
 223.4375 257.8125 l 1x0008000008
 223.4375 275 l 1x0004000008
 240.625 275 l 1x0004000002
 240.625 309.375 l 1x0004000004
 257.8125 309.375 l 1
 257.8125 326.5625 l 1x0004000001
 275 326.5625 l 1
 275 343.75 l 1
 275 360.9375 l 1x000400000080
 292.1875 360.9375 l 1
 292.1875 378.125 l 1
 292.1875 412.5 l 1x000400000040
 309.375 412.5 l 1
 309.375 446.875 l 1
 309.375 464.0625 l 1x000600000020
 309.375 481.25 l 1x000100000020
 326.5625 481.25 l 1x000100000008
 326.5625 498.4375 l 1x000080000008
 326.5625 532.8125 l 1x000020000008
 309.375 532.8125 l 1x000020000020
 309.375 567.1875 l 1x000008000020
 275 567.1875 l 1x000008000080
 275 584.375 l 1
 223.4375 584.375 l 1x000004000880
 223.4375 567.1875 l 1x000008000880
 189.0625 567.1875 l 1x0000080020
 189.0625 550 l 1
 154.6875 550 l 1x0000100420
 154.6875 532.8125 l 1x0000200420
 137.5 532.8125 l 1x00002008
 137.5 515.625 l 1x00004008
 120.3125 515.625 l 1x00004010
 120.3125 498.4375 l 1x00008010
 103.125 498.4375 l 1x00008020
 103.125 481.25 l 1x00010020
 85.9375 481.25 l 1x00010080
 85.9375 464.0625 l 1x00020080
 68.75 464.0625 l 1x00020040
 68.75 429.6875 l 1
 51.5625 429.6875 l 1
 51.5625 378.125 l 1x00020110
 51.5625 360.9375 l 1
 34.375 360.9375 l 1
 34.375 343.75 l 1
 34.375 309.375 l 1
 34.375 223.4375 l 1
 51.5625 223.4375 l 1x00060220
 51.5625 154.6875 l 1x004601
 51.5625 137.5 l 1
 68.75 137.5 l 1x00800110
 68.75 120.3125 l 1x01000110
 85.9375 120.3125 l 1x01000008
 85.9375 137.5 l 1x00800008
 103.125 137.5 l 1x00800004
 103.125 154.6875 l 1x00400004
 120.3125 154.6875 l 1x00400002
 120.3125 171.875 l 1x02000002
 137.5 171.875 l 1x02000001
 137.5 189.0625 l 1x00800001
 154.6875 189.0625 l 1x0080000080
 154.6875 206.25 l 1x0040000080
 171.875 206.25 l 1x0040000040
 171.875 223.4375 l 1x0020000040
 189.0625 223.4375 l 1x0020000020
 189.0625 240.625 l 1x0010000020
 206.25 240.625 l 1x0010000010
 206.25 257.8125 l 1x0008000010
240.625 51.5625 m 1x4000000004
 240.625 68.75 l 1x1000000004
 257.8125 68.75 l 1
 257.8125 85.9375 l 1x1800000001
 206.25 85.9375 l 1x1800000010
 206.25 103.125 l 1x0400000010
 189.0625 103.125 l 1x0400000020
 189.0625 120.3125 l 1x0100000020
 171.875 120.3125 l 1x0100000040
 171.875 154.6875 l 1x01000002
 154.6875 154.6875 l 1x00400004
 154.6875 137.5 l 1x00800004
 137.5 137.5 l 1x00800008
 137.5 120.3125 l 1x02000008
 120.3125 120.3125 l 1x02000002
 120.3125 103.125 l 1x04000002
 103.125 103.125 l 1x04000004
 103.125 85.9375 l 1x08000004
 85.9375 85.9375 l 1
 85.9375 68.75 l 1x18000008
 103.125 68.75 l 1x18000004
 103.125 51.5625 l 1x40000004
 120.3125 51.5625 l 1x40000010
 120.3125 34.375 l 1
 137.5 34.375 l 1
 206.25 34.375 l 1x8000001110
 206.25 51.5625 l 1x4000001110
 240.625 51.5625 l 1x4000000004
189.0625 154.6875 m 1x0120000220
 189.0625 171.875 l 1x01200001
 171.875 171.875 l 1
 171.875 154.6875 l 1
 189.0625 154.6875 l 1x0120000220
275 120.3125 m 1x010000004080
 275 137.5 l 1x008000004080
 257.8125 137.5 l 1x0080000001
 257.8125 154.6875 l 1
 223.4375 154.6875 l 1
 223.4375 120.3125 l 1x0840000041
 275 120.3125 l 1x010000004080
206.25 171.875 m 1x0020000110
 206.25 189.0625 l 1x0010000080
 189.0625 189.0625 l 1x00100001
 189.0625 171.875 l 1
 206.25 171.875 l 1x0020000110
EndSplineSet
Validated: 524293
EndChar
StartChar: C
Encoding: 67 67 63
Width: 498
Flags: W
HStem: -51.5625 34.375<189.062 257.812> -34.375 34.375<275 309.375 378.125 429.688> -17.1875 34.375<446.875 464.062> 0 34.375<0 34.375 481.25 498.438> 120.312 51.5625<326.562 343.75 360.938 378.125> 137.5 34.375<343.75 360.938> 378.125 51.5625<189.062 206.25> 395.312 51.5625<206.25 223.438> 412.5 51.5625<223.438 240.625> 429.688 51.5625<240.625 257.812> 446.875 51.5625<275 292.188 395.312 412.5> 446.875 34.375<257.812 275 412.5 429.688> 464.062 51.5625<292.188 395.312>
VStem: 0 51.5625<0 17.1875> 34.375 51.5625<51.5625 68.75> 34.375 34.375<34.375 51.5625> 68.75 51.5625<120.312 223.438> 85.9375 51.5625<240.625 275> 103.125 51.5625<17.1875 34.375 292.188 326.562> 103.125 34.375<34.375 68.75> 120.312 51.5625<0 17.1875 326.562 343.75> 137.5 51.5625<-17.1875 0 343.75 378.125> 154.688 51.5625<378.125 395.312> 171.875 51.5625<395.312 412.5> 189.062 51.5625<412.5 429.688> 206.25 51.5625<429.688 446.875> 292.188 51.5625<51.5625 68.75 120.312 137.5> 292.188 34.375<68.75 120.312> 309.375 68.75<0 34.375> 326.562 51.5625<154.688 171.875> 360.938 34.375<51.5625 68.75> 378.125 34.375<85.9375 120.312> 395.312 34.375<446.875 464.062> 464.062 34.375<17.1875 34.375>
LayerCount: 2
Fore
SplineSet
223.4375 395.3125 m 1x0100010040
 206.25 395.3125 l 1x0100020040
 206.25 378.125 l 1x0200020040
 189.0625 378.125 l 1
 189.0625 343.75 l 1x0200040040
 171.875 343.75 l 1
 171.875 326.5625 l 1x0200080040
 154.6875 326.5625 l 1x0200200040
 154.6875 275 l 1
 137.5 275 l 1x0200420040
 137.5 223.4375 l 1
 120.3125 223.4375 l 1
 120.3125 189.0625 l 1x0200840040
 120.3125 85.9375 l 1x0200080040
 137.5 85.9375 l 1x0200040040
 137.5 34.375 l 1x1200100040
 154.6875 34.375 l 1x1200200040
 154.6875 17.1875 l 1x2000200040
 171.875 17.1875 l 1x2000080040
 171.875 0 l 1x1000080040
 189.0625 0 l 1
 189.0625 -17.1875 l 1
 257.8125 -17.1875 l 1
 257.8125 0 l 1x9000044040
 309.375 0 l 1
 309.375 51.5625 l 1x4000044840
 292.1875 51.5625 l 1
 292.1875 137.5 l 1x4400002040
 309.375 137.5 l 1
 309.375 154.6875 l 1x4400000840
 326.5625 154.6875 l 1
 326.5625 171.875 l 1
 378.125 171.875 l 1x0800000440
 378.125 154.6875 l 1
 395.3125 154.6875 l 1
 395.3125 137.5 l 1x04000004c0
 412.5 137.5 l 1
 412.5 68.75 l 1x0400000140
 395.3125 68.75 l 1x0400000240
 395.3125 34.375 l 1
 378.125 34.375 l 1x14000008c0
 378.125 0 l 1
 429.6875 0 l 1x40000008c0
 429.6875 17.1875 l 1
 464.0625 17.1875 l 1x20000008c0
 464.0625 34.375 l 1
 498.4375 34.375 l 1
 498.4375 0 l 1
 481.25 0 l 1x10000008c0
 481.25 -17.1875 l 1
 446.875 -17.1875 l 1x20000008c0
 446.875 -34.375 l 1
 360.9375 -34.375 l 1x4000000240
 360.9375 -17.1875 l 1x2000000240
 326.5625 -17.1875 l 1x2000000440
 326.5625 -34.375 l 1
 275 -34.375 l 1x4000000440
 275 -51.5625 l 1
 171.875 -51.5625 l 1x8000010440
 171.875 -34.375 l 1x4000010440
 154.6875 -34.375 l 1x4000020040
 154.6875 -17.1875 l 1x2000020040
 137.5 -17.1875 l 1x2000040040
 137.5 0 l 1x1000040040
 120.3125 0 l 1x1000080040
 120.3125 17.1875 l 1x2000080040
 103.125 17.1875 l 1x2000200040
 103.125 68.75 l 1
 85.9375 68.75 l 1
 85.9375 51.5625 l 1x2002100040
 68.75 51.5625 l 1x2001000040
 68.75 17.1875 l 1
 51.5625 17.1875 l 1x2004800040
 51.5625 0 l 1
 0 0 l 1
 0 34.375 l 1x1004800040
 34.375 34.375 l 1x1001000040
 34.375 68.75 l 1x1002000040
 51.5625 68.75 l 1
 51.5625 120.3125 l 1
 68.75 120.3125 l 1
 68.75 240.625 l 1x1804800040
 85.9375 240.625 l 1
 85.9375 292.1875 l 1x1800400040
 103.125 292.1875 l 1
 103.125 326.5625 l 1x1800200040
 120.3125 326.5625 l 1
 120.3125 343.75 l 1x1800080040
 137.5 343.75 l 1
 137.5 378.125 l 1x1a00040040
 154.6875 378.125 l 1x1a00020040
 154.6875 395.3125 l 1x0100020040
 171.875 395.3125 l 1x0100010040
 171.875 412.5 l 1x0080010040
 189.0625 412.5 l 1x0080008040
 189.0625 429.6875 l 1x0200008040
 206.25 429.6875 l 1x0200004040
 206.25 446.875 l 1x0100004040
 223.4375 446.875 l 1x0100010040
 223.4375 464.0625 l 1x0080010040
 240.625 464.0625 l 1x0080008040
 240.625 481.25 l 1x0040008040
 275 481.25 l 1x0010008040
 275 498.4375 l 1
 292.1875 498.4375 l 1x0020009040
 292.1875 515.625 l 1
 395.3125 515.625 l 1x00080090c0
 395.3125 498.4375 l 1x00200090c0
 412.5 498.4375 l 1x0020000140
 412.5 481.25 l 1x0010000140
 429.6875 481.25 l 1
 429.6875 446.875 l 1x00100000c0
 395.3125 446.875 l 1x00200000c0
 395.3125 464.0625 l 1
 292.1875 464.0625 l 1x00080010c0
 292.1875 446.875 l 1x00200010c0
 257.8125 446.875 l 1x00100050c0
 257.8125 429.6875 l 1x00400050c0
 240.625 429.6875 l 1x0040008040
 240.625 412.5 l 1x0080008040
 223.4375 412.5 l 1x0080010040
 223.4375 395.3125 l 1x0100010040
360.9375 85.9375 m 1x0800002240
 378.125 85.9375 l 1
 378.125 120.3125 l 1x0800000140
 360.9375 120.3125 l 1x0800000240
 360.9375 137.5 l 1
 343.75 137.5 l 1x0400002240
 343.75 120.3125 l 1x0800002240
 326.5625 120.3125 l 1
 326.5625 85.9375 l 1
 326.5625 68.75 l 1x0800001040
 343.75 68.75 l 1
 343.75 51.5625 l 1
 360.9375 51.5625 l 1
 360.9375 85.9375 l 1x0800002240
EndSplineSet
Validated: 524289
EndChar
StartChar: D
Encoding: 68 68 64
Width: 516
Flags: W
HStem: -105.938 51.5625<309.375 343.75> -88.75 51.5625<360.938 378.125> -88.75 34.375<343.75 360.938> -71.5625 51.5625<378.125 395.312> -20 34.375<120.312 223.438> -2.8125 51.5625<85.9375 103.125 257.812 275> -2.8125 34.375<0 34.375 240.625 257.812 464.062 515.625> 14.375 51.5625<275 292.188> 48.75 34.375<360.938 378.125> 83.125 51.5625<412.5 429.688> 306.562 85.9375<51.5625 68.75 412.5 429.688> 358.125 51.5625<68.75 85.9375 275 292.188> 375.312 51.5625<85.9375 103.125 257.812 275> 392.5 51.5625<103.125 120.312 240.625 257.812> 409.688 34.375<120.312 137.5 223.438 240.625> 426.875 34.375<154.688 206.25> 495.625 51.5625<395.312 412.5> 512.812 51.5625<412.5 429.688>
VStem: 0 34.375<-2.8125 14.375 117.5 237.812> 17.1875 34.375<272.188 306.562> 34.375 51.5625<358.125 375.312> 34.375 34.375<323.75 358.125> 51.5625 51.5625<375.312 392.5> 68.75 51.5625<392.5 409.688> 240.625 51.5625<392.5 409.688> 257.812 51.5625<375.312 392.5> 275 34.375<-54.375 -20> 292.188 34.375<-2.8125 14.375 340.938 358.125> 309.375 51.5625<117.5 186.25> 309.375 34.375<-105.938 -88.75 100.312 117.5> 326.562 51.5625<186.25 237.812> 343.75 34.375<340.938 444.062> 360.938 34.375<461.25 495.625> 378.125 34.375<31.5625 48.75> 395.312 34.375<323.75 358.125> 412.5 34.375<117.5 134.688 547.188 564.375> 429.688 34.375<31.5625 83.125 392.5 444.062> 446.875 34.375<461.25 495.625>
LayerCount: 2
Fore
SplineSet
292.1875 14.375 m 1x01000010
 275 14.375 l 1x01000020
 275 -2.8125 l 1x04000020
 240.625 -2.8125 l 1x02000080
 240.625 -20 l 1
 103.125 -20 l 1x08000280
 103.125 -2.8125 l 1x04000280
 68.75 -2.8125 l 1x020001
 68.75 14.375 l 1
 34.375 14.375 l 1x010021
 34.375 -2.8125 l 1
 0 -2.8125 l 1
 0 31.5625 l 1x020021
 34.375 31.5625 l 1
 34.375 48.75 l 1x028004
 17.1875 48.75 l 1x028010
 17.1875 83.125 l 1x004010
 0 83.125 l 1
 0 117.5 l 1
 0 272.1875 l 1x004020
 17.1875 272.1875 l 1
 17.1875 323.75 l 1x004010
 34.375 323.75 l 1x004004
 34.375 375.3125 l 1x004808
 51.5625 375.3125 l 1x004802
 51.5625 392.5 l 1x002002
 68.75 392.5 l 1x002001
 68.75 409.6875 l 1x001001
 85.9375 409.6875 l 1x001008
 85.9375 426.875 l 1x000808
 103.125 426.875 l 1x000802
 103.125 444.0625 l 1x000402
 137.5 444.0625 l 1x000202
 137.5 461.25 l 1
 223.4375 461.25 l 1x000102
 223.4375 444.0625 l 1x000202
 257.8125 444.0625 l 1x00040240
 257.8125 426.875 l 1x00080240
 275 426.875 l 1x00080020
 275 409.6875 l 1x00100020
 292.1875 409.6875 l 1x00100080
 292.1875 392.5 l 1x00040080
 309.375 392.5 l 1x00040040
 309.375 375.3125 l 1
 326.5625 375.3125 l 1x00080042
 326.5625 340.9375 l 1
 343.75 340.9375 l 1
 343.75 461.25 l 1x00010011
 360.9375 461.25 l 1
 360.9375 512.8125 l 1x0001400080
 378.125 512.8125 l 1
 378.125 530 l 1x0001400040
 395.3125 530 l 1
 395.3125 547.1875 l 1x0000800020
 412.5 547.1875 l 1x0000800010
 412.5 564.375 l 1
 446.875 564.375 l 1x0000400010
 446.875 547.1875 l 1x0000800010
 464.0625 547.1875 l 1x0000800008
 464.0625 512.8125 l 1x0000400008
 481.25 512.8125 l 1
 481.25 444.0625 l 1x0002400004
 464.0625 444.0625 l 1x0002400008
 464.0625 375.3125 l 1x0008000008
 446.875 375.3125 l 1x0008000004
 446.875 358.125 l 1
 429.6875 358.125 l 1x0010000024
 429.6875 306.5625 l 1x0020000008
 412.5 306.5625 l 1
 412.5 272.1875 l 1x0020000010
 395.3125 272.1875 l 1
 395.3125 237.8125 l 1
 378.125 237.8125 l 1
 378.125 186.25 l 1x0020000220
 360.9375 186.25 l 1
 360.9375 117.5 l 1x00200008
 343.75 117.5 l 1x00200004
 343.75 48.75 l 1x00a00001
 326.5625 48.75 l 1
 326.5625 -20 l 1
 309.375 -20 l 1
 309.375 -54.375 l 1x88a00022
 360.9375 -54.375 l 1x2000002080
 360.9375 -37.1875 l 1x4000002080
 378.125 -37.1875 l 1x4000000040
 378.125 -20 l 1x1000000040
 395.3125 -20 l 1
 395.3125 14.375 l 1x1100000020
 378.125 14.375 l 1x1100000040
 378.125 48.75 l 1x0080000040
 360.9375 48.75 l 1
 360.9375 83.125 l 1x0080000080
 378.125 83.125 l 1
 378.125 100.3125 l 1x0080000040
 395.3125 100.3125 l 1
 395.3125 117.5 l 1x0080000020
 412.5 117.5 l 1
 412.5 134.6875 l 1
 446.875 134.6875 l 1
 446.875 117.5 l 1x0040000010
 464.0625 117.5 l 1
 464.0625 83.125 l 1
 464.0625 31.5625 l 1
 515.625 31.5625 l 1
 515.625 -2.8125 l 1
 464.0625 -2.8125 l 1x0240000008
 464.0625 -20 l 1
 429.6875 -20 l 1
 429.6875 -37.1875 l 1x4800000008
 412.5 -37.1875 l 1x4800000010
 412.5 -54.375 l 1x2000000010
 395.3125 -54.375 l 1x2000000020
 395.3125 -71.5625 l 1x1000000020
 378.125 -71.5625 l 1x1000000040
 378.125 -88.75 l 1x4000000040
 343.75 -88.75 l 1x2000000440
 343.75 -105.9375 l 1
 309.375 -105.9375 l 1x8000000440
 309.375 -88.75 l 1x2000000440
 292.1875 -88.75 l 1x20000010
 292.1875 -71.5625 l 1x10000010
 275 -71.5625 l 1
 275 -2.8125 l 1x14000020
 292.1875 -2.8125 l 1x02000010
 292.1875 14.375 l 1x01000010
309.375 186.25 m 1x01000008
 326.5625 186.25 l 1
 326.5625 237.8125 l 1x01000002
 309.375 237.8125 l 1
 309.375 323.75 l 1x01000004
 292.1875 323.75 l 1
 292.1875 358.125 l 1x01100010
 275 358.125 l 1x01100020
 275 375.3125 l 1x00080020
 257.8125 375.3125 l 1x00080040
 257.8125 392.5 l 1x00040040
 240.625 392.5 l 1x00040080
 240.625 409.6875 l 1
 206.25 409.6875 l 1x00020080
 206.25 426.875 l 1
 154.6875 426.875 l 1x00010080
 154.6875 409.6875 l 1
 120.3125 409.6875 l 1x00020180
 120.3125 392.5 l 1x00040180
 103.125 392.5 l 1x000402
 103.125 375.3125 l 1x000802
 85.9375 375.3125 l 1x000808
 85.9375 358.125 l 1x001008
 68.75 358.125 l 1x001004
 68.75 306.5625 l 1
 51.5625 306.5625 l 1x002011
 51.5625 237.8125 l 1
 34.375 237.8125 l 1
 34.375 117.5 l 1
 51.5625 117.5 l 1
 51.5625 83.125 l 1x006022
 85.9375 83.125 l 1
 85.9375 48.75 l 1x046008
 103.125 48.75 l 1x046002
 103.125 31.5625 l 1x020002
 120.3125 31.5625 l 1x020001
 120.3125 14.375 l 1
 223.4375 14.375 l 1x080001
 223.4375 31.5625 l 1
 257.8125 31.5625 l 1x02000140
 257.8125 48.75 l 1x04000140
 275 48.75 l 1x04000020
 275 65.9375 l 1x01000020
 292.1875 65.9375 l 1
 292.1875 100.3125 l 1x01000010
 309.375 100.3125 l 1x01000004
 309.375 186.25 l 1x01000008
429.6875 392.5 m 1x0020000008
 429.6875 461.25 l 1x0021000008
 446.875 461.25 l 1
 446.875 495.625 l 1x0021800004
 429.6875 495.625 l 1x0021800008
 429.6875 512.8125 l 1x0000400008
 412.5 512.8125 l 1x0000400010
 412.5 495.625 l 1
 395.3125 495.625 l 1
 395.3125 461.25 l 1x0001800090
 395.3125 444.0625 l 1
 378.125 444.0625 l 1x0002000120
 378.125 426.875 l 1x0001000120
 378.125 323.75 l 1x0001000040
 395.3125 323.75 l 1
 395.3125 375.3125 l 1x0008000020
 412.5 375.3125 l 1x0008000010
 412.5 392.5 l 1x0020000010
 429.6875 392.5 l 1x0020000008
429.6875 31.5625 m 1x0240000048
 429.6875 83.125 l 1x0240000048
 412.5 83.125 l 1x0240000010
 412.5 31.5625 l 1
 429.6875 31.5625 l 1x0240000048
EndSplineSet
Validated: 524293
EndChar
StartChar: E
Encoding: 69 69 65
Width: 464
Flags: W
HStem: -34.375 34.375<206.25 309.375> -17.1875 34.375<395.312 412.5> 0 51.5625<154.688 171.875> 0 34.375<0 34.375 429.688 464.062> 17.1875 51.5625<137.5 154.688> 34.375 51.5625<395.312 412.5> 68.75 34.375<360.938 378.125> 137.5 34.375<137.5 206.25> 154.688 34.375<51.5625 85.9375 223.438 275> 171.875 51.5625<309.375 326.562> 171.875 34.375<292.188 309.375> 189.062 51.5625<343.75 378.125> 206.25 51.5625<378.125 395.312> 223.438 51.5625<395.312 412.5> 343.75 51.5625<171.875 189.062> 360.938 51.5625<189.062 206.25> 378.125 34.375<206.25 223.438> 395.312 34.375<240.625 378.125>
VStem: 0 51.5625<0 17.1875 85.9375 103.125 137.5 154.688> 0 34.375<103.125 137.5> 17.1875 51.5625<68.75 85.9375> 34.375 34.375<34.375 68.75> 85.9375 34.375<120.312 137.5 189.062 206.25> 103.125 34.375<68.75 103.125 240.625 275> 120.312 34.375<292.188 309.375> 137.5 51.5625<17.1875 34.375 343.75 360.938> 137.5 34.375<326.562 343.75> 154.688 51.5625<0 17.1875 360.938 378.125> 326.562 34.375<51.5625 68.75> 343.75 51.5625<85.9375 103.125> 378.125 34.375<51.5625 68.75> 395.312 34.375<360.938 378.125> 412.5 51.5625<17.1875 34.375> 412.5 34.375<275 343.75>
LayerCount: 2
Fore
SplineSet
103.125 103.125 m 1x220001
 85.9375 103.125 l 1
 85.9375 154.6875 l 1
 51.5625 154.6875 l 1x228022
 51.5625 137.5 l 1x010022
 34.375 137.5 l 1
 34.375 103.125 l 1x030010
 51.5625 103.125 l 1x030020
 51.5625 85.9375 l 1x040020
 68.75 85.9375 l 1x040008
 68.75 17.1875 l 1x080004
 51.5625 17.1875 l 1x080020
 51.5625 0 l 1
 0 0 l 1x100020
 0 34.375 l 1x100010
 34.375 34.375 l 1
 34.375 68.75 l 1x120004
 17.1875 68.75 l 1x120008
 17.1875 85.9375 l 1x040008
 0 85.9375 l 1
 0 137.5 l 1x050020
 0 154.6875 l 1x008020
 17.1875 154.6875 l 1x008008
 17.1875 171.875 l 1x002008
 34.375 171.875 l 1x002004
 34.375 189.0625 l 1x001004
 51.5625 189.0625 l 1
 85.9375 189.0625 l 1x008022
 85.9375 240.625 l 1x001022
 103.125 240.625 l 1
 103.125 292.1875 l 1x001001
 120.3125 292.1875 l 1
 120.3125 326.5625 l 1x00100080
 137.5 326.5625 l 1x00100020
 137.5 360.9375 l 1x00110040
 154.6875 360.9375 l 1x00110010
 154.6875 378.125 l 1x00008010
 171.875 378.125 l 1x00008020
 171.875 395.3125 l 1x00020020
 189.0625 395.3125 l 1x00020040
 189.0625 412.5 l 1x00010040
 223.4375 412.5 l 1x00008040
 223.4375 429.6875 l 1
 395.3125 429.6875 l 1x00004041
 395.3125 412.5 l 1x00008041
 412.5 412.5 l 1x0000800040
 412.5 395.3125 l 1x0000400040
 429.6875 395.3125 l 1x00004001
 429.6875 360.9375 l 1x00010001
 446.875 360.9375 l 1
 446.875 275 l 1x0005000040
 446.875 257.8125 l 1x0008000040
 429.6875 257.8125 l 1x00080001
 429.6875 240.625 l 1x00100001
 412.5 240.625 l 1x0010000040
 412.5 223.4375 l 1x0004000040
 395.3125 223.4375 l 1x00040001
 395.3125 206.25 l 1x00080001
 378.125 206.25 l 1x00080002
 378.125 189.0625 l 1x00100002
 343.75 189.0625 l 1x00100004
 343.75 171.875 l 1x00200004
 309.375 171.875 l 1x00400004
 292.1875 171.875 l 1x00200004
 292.1875 154.6875 l 1
 275 154.6875 l 1
 223.4375 154.6875 l 1x00800004
 223.4375 137.5 l 1
 137.5 137.5 l 1
 120.3125 137.5 l 1
 120.3125 120.3125 l 1
 137.5 120.3125 l 1x01000224
 137.5 68.75 l 1
 154.6875 68.75 l 1x09000110
 154.6875 51.5625 l 1x20000110
 171.875 51.5625 l 1x20000020
 171.875 34.375 l 1x04000020
 189.0625 34.375 l 1x04000040
 189.0625 17.1875 l 1x08000040
 206.25 17.1875 l 1
 206.25 0 l 1
 309.375 0 l 1
 309.375 17.1875 l 1
 326.5625 17.1875 l 1x88000018
 326.5625 85.9375 l 1x04000018
 343.75 85.9375 l 1x04000004
 343.75 103.125 l 1
 395.3125 103.125 l 1x02000004
 395.3125 85.9375 l 1
 412.5 85.9375 l 1x0400000440
 412.5 34.375 l 1x0400000080
 395.3125 34.375 l 1
 395.3125 17.1875 l 1x44000001
 412.5 17.1875 l 1
 412.5 34.375 l 1x4400000080
 464.0625 34.375 l 1
 464.0625 0 l 1x1000000080
 429.6875 0 l 1x10000001
 429.6875 -17.1875 l 1
 326.5625 -17.1875 l 1x40000009
 326.5625 -34.375 l 1
 189.0625 -34.375 l 1x80000049
 189.0625 -17.1875 l 1x40000049
 171.875 -17.1875 l 1x40000020
 171.875 0 l 1x20000020
 154.6875 0 l 1x20000010
 154.6875 17.1875 l 1x08000010
 137.5 17.1875 l 1x08000040
 137.5 34.375 l 1x04000040
 120.3125 34.375 l 1x04000080
 120.3125 51.5625 l 1x20000080
 103.125 51.5625 l 1
 103.125 103.125 l 1x220001
137.5 206.25 m 1x00080020
 120.3125 206.25 l 1x00080220
 120.3125 189.0625 l 1
 137.5 189.0625 l 1
 137.5 171.875 l 1x01100220
 206.25 171.875 l 1
 206.25 189.0625 l 1x01100010
 275 189.0625 l 1
 275 206.25 l 1x00880010
 309.375 206.25 l 1x00200010
 309.375 223.4375 l 1
 326.5625 223.4375 l 1x00400018
 326.5625 240.625 l 1
 378.125 240.625 l 1x0010001a
 378.125 257.8125 l 1x0008001a
 395.3125 257.8125 l 1x00080001
 395.3125 275 l 1x00040001
 412.5 275 l 1
 412.5 343.75 l 1x0006000040
 395.3125 343.75 l 1x00060001
 395.3125 378.125 l 1x00008001
 378.125 378.125 l 1x00008002
 378.125 395.3125 l 1
 326.5625 395.3125 l 1
 240.625 395.3125 l 1x0000400a
 240.625 378.125 l 1
 206.25 378.125 l 1x0000801a
 206.25 360.9375 l 1x0001001a
 189.0625 360.9375 l 1x00010040
 189.0625 343.75 l 1x00020040
 171.875 343.75 l 1
 171.875 309.375 l 1x00020020
 154.6875 309.375 l 1x00020080
 154.6875 275 l 1
 137.5 275 l 1x00060110
 137.5 206.25 l 1x00080020
360.9375 51.5625 m 1x2200000a
 378.125 51.5625 l 1
 378.125 68.75 l 1
 360.9375 68.75 l 1
 360.9375 51.5625 l 1x2200000a
EndSplineSet
Validated: 524293
EndChar
StartChar: F
Encoding: 70 70 66
Width: 481
Flags: W
HStem: -257.812 51.5625<189.062 206.25> -257.812 34.375<51.5625 189.062> -240.625 51.5625<206.25 223.438> -223.438 51.5625<223.438 240.625> -223.438 34.375<0 17.1875> -154.688 51.5625<51.5625 68.75> -137.5 51.5625<68.75 85.9375> -120.312 51.5625<85.9375 103.125> -103.125 51.5625<103.125 120.312> -85.9375 51.5625<120.312 137.5> -68.75 34.375<137.5 154.688> -51.5625 34.375<326.562 395.312> -34.375 34.375<189.062 206.25> -17.1875 34.375<429.688 446.875> 0 34.375<17.1875 68.75 326.562 343.75 464.062 481.25> 17.1875 34.375<85.9375 103.125 360.938 378.125> 34.375 34.375<120.312 137.5> 51.5625 51.5625<275 292.188> 51.5625 34.375<412.5 429.688> 68.75 51.5625<292.188 309.375> 85.9375 34.375<206.25 223.438> 103.125 51.5625<257.812 275> 103.125 34.375<240.625 257.812 326.562 360.938> 120.312 51.5625<275 292.188> 137.5 51.5625<292.188 309.375> 154.688 51.5625<309.375 326.562> 171.875 51.5625<343.75 360.938> 171.875 34.375<326.562 343.75> 189.062 51.5625<360.938 378.125> 206.25 51.5625<378.125 395.312> 395.312 51.5625<223.438 240.625> 412.5 51.5625<240.625 257.812> 429.688 51.5625<257.812 275> 446.875 51.5625<275 292.188> 464.062 51.5625<292.188 309.375 395.312 412.5> 481.25 34.375<309.375 326.562> 498.438 34.375<343.75 378.125>
VStem: 0 51.5625<-223.438 -189.062> 17.1875 51.5625<-154.688 -137.5> 17.1875 34.375<-189.062 -154.688> 34.375 51.5625<-137.5 -120.312> 51.5625 51.5625<-120.312 -103.125> 68.75 51.5625<-103.125 -85.9375> 85.9375 51.5625<-85.9375 -68.75> 137.5 34.375<154.688 206.25> 154.688 34.375<120.312 137.5 223.438 292.188> 171.875 34.375<309.375 343.75> 189.062 51.5625<-223.438 -206.25 395.312 412.5> 189.062 34.375<360.938 395.312> 206.25 51.5625<-206.25 -189.062 412.5 429.688> 223.438 51.5625<-189.062 -171.875 -51.5625 -34.375 429.688 446.875> 240.625 51.5625<51.5625 68.75 446.875 464.062> 240.625 34.375<-171.875 -51.5625 34.375 51.5625> 257.812 51.5625<68.75 85.9375 137.5 154.688 464.062 481.25> 275 51.5625<85.9375 103.125 154.688 171.875> 309.375 68.75<120.312 137.5 189.062 206.25> 343.75 51.5625<206.25 223.438> 360.938 51.5625<85.9375 103.125 223.438 240.625> 378.125 51.5625<51.5625 85.9375 240.625 257.812 481.25 498.438> 395.312 34.375<257.812 275> 412.5 34.375<292.188 309.375 446.875 464.062> 429.688 34.375<326.562 429.688> 446.875 34.375<17.1875 34.375>
LayerCount: 2
Fore
SplineSet
103.125 51.5625 m 1x000100000040
 103.125 68.75 l 1x000110000040
 137.5 68.75 l 1
 137.5 85.9375 l 1x000088000048
 154.6875 85.9375 l 1
 154.6875 137.5 l 1x000088800004
 137.5 137.5 l 1x000088800008
 137.5 223.4375 l 1x000000200008
 154.6875 223.4375 l 1
 154.6875 309.375 l 1x000000200004
 171.875 309.375 l 1
 171.875 360.9375 l 1x000000200002
 189.0625 360.9375 l 1x00000020000080
 189.0625 412.5 l 1x000000210001
 206.25 412.5 l 1x00000021000040
 206.25 429.6875 l 1x00000000800040
 223.4375 429.6875 l 1x00000000800020
 223.4375 446.875 l 1x00000002000020
 240.625 446.875 l 1x00000002000010
 240.625 464.0625 l 1x00000001000010
 257.8125 464.0625 l 1x00000001000004
 257.8125 481.25 l 1x00000000800004
 275 481.25 l 1x00000000800002
 275 498.4375 l 1x00000000400002
 292.1875 498.4375 l 1x00000000400010
 292.1875 515.625 l 1x00000000200010
 326.5625 515.625 l 1x00000000100002
 326.5625 532.8125 l 1
 395.3125 532.8125 l 1x0000000008000210
 395.3125 515.625 l 1x0000000020000210
 412.5 515.625 l 1x0000000020000008
 412.5 498.4375 l 1x0000000008000008
 429.6875 498.4375 l 1x0000000008000020
 429.6875 481.25 l 1
 446.875 481.25 l 1x0000000010000022
 446.875 446.875 l 1x0000000040000008
 464.0625 446.875 l 1
 464.0625 309.375 l 1x0000000040000004
 446.875 309.375 l 1x0000000040000008
 446.875 275 l 1
 429.6875 275 l 1x0000000040000012
 429.6875 240.625 l 1x0000000840000020
 412.5 240.625 l 1x0000000840000040
 412.5 223.4375 l 1x0000002000000040
 395.3125 223.4375 l 1x0000002000000080
 395.3125 206.25 l 1x0000000400000080
 378.125 206.25 l 1x00000004000001
 378.125 189.0625 l 1x00000008000001
 360.9375 189.0625 l 1x0000000800000040
 360.9375 171.875 l 1x0000002000000040
 326.5625 171.875 l 1x0000001000000240
 326.5625 154.6875 l 1x0000004000000240
 309.375 154.6875 l 1x00000040000004
 309.375 137.5 l 1x00000080000004
 378.125 137.5 l 1x00000080000001
 378.125 120.3125 l 1
 395.3125 120.3125 l 1x0000010000000110
 395.3125 103.125 l 1x0000020000000110
 412.5 103.125 l 1
 412.5 85.9375 l 1x0000220000000040
 429.6875 85.9375 l 1
 429.6875 51.5625 l 1x0000220000000020
 412.5 51.5625 l 1x0000220000000008
 412.5 34.375 l 1x0000800000000008
 395.3125 34.375 l 1x0000800000000010
 395.3125 17.1875 l 1x0001000000000010
 360.9375 17.1875 l 1x0001000000000040
 360.9375 0 l 1x0002000000000040
 326.5625 0 l 1
 326.5625 -17.1875 l 1
 395.3125 -17.1875 l 1
 395.3125 0 l 1x0012000000000210
 412.5 0 l 1x0012000000000008
 412.5 17.1875 l 1x0001000000000008
 446.875 17.1875 l 1
 446.875 34.375 l 1x0004800000000002
 481.25 34.375 l 1
 481.25 0 l 1x0002000000000002
 464.0625 0 l 1x0002000000000004
 464.0625 -17.1875 l 1
 429.6875 -17.1875 l 1x0004000000000004
 429.6875 -34.375 l 1x0008000000000004
 412.5 -34.375 l 1x0008000000000008
 412.5 -51.5625 l 1
 309.375 -51.5625 l 1x0010000000000108
 309.375 -34.375 l 1
 292.1875 -34.375 l 1x0008000000001108
 292.1875 -17.1875 l 1x0004000000001108
 257.8125 -17.1875 l 1x00040000000004
 257.8125 -34.375 l 1x00080000000004
 275 -34.375 l 1
 275 -189.0625 l 1x08080000000020
 257.8125 -189.0625 l 1x08080000000040
 257.8125 -206.25 l 1x80000000000040
 240.625 -206.25 l 1x800000000001
 240.625 -223.4375 l 1x100000000001
 223.4375 -223.4375 l 1x10000000000020
 223.4375 -240.625 l 1x20000000000020
 206.25 -240.625 l 1x20000000000040
 206.25 -257.8125 l 1x80000000000040
 34.375 -257.8125 l 1x40000000008040
 34.375 -240.625 l 1x20000000008040
 17.1875 -240.625 l 1x2000000001
 17.1875 -223.4375 l 1x0800000001
 0 -223.4375 l 1
 0 -189.0625 l 1x0800000004
 17.1875 -189.0625 l 1x0800000001
 17.1875 -137.5 l 1x0a00000002
 34.375 -137.5 l 1x0a0000000080
 34.375 -120.3125 l 1x010000000080
 51.5625 -120.3125 l 1x010000000040
 51.5625 -103.125 l 1x040000000040
 68.75 -103.125 l 1x040000000020
 68.75 -85.9375 l 1x020000000020
 85.9375 -85.9375 l 1x020000000010
 85.9375 -68.75 l 1x010000000010
 103.125 -68.75 l 1x010000000040
 103.125 -51.5625 l 1x008000000040
 120.3125 -51.5625 l 1x008000000020
 120.3125 -34.375 l 1x004000000020
 154.6875 -34.375 l 1
 154.6875 -17.1875 l 1x002400000024
 171.875 -17.1875 l 1x002400000002
 171.875 0 l 1x000200000002
 206.25 0 l 1
 206.25 17.1875 l 1x00090000000040
 189.0625 17.1875 l 1x00090000000080
 189.0625 34.375 l 1x00008000000080
 171.875 34.375 l 1x000080000002
 171.875 51.5625 l 1x000020000002
 154.6875 51.5625 l 1x000020000004
 154.6875 34.375 l 1
 120.3125 34.375 l 1x000080000024
 120.3125 17.1875 l 1x000100000024
 85.9375 17.1875 l 1x000100000010
 85.9375 0 l 1x000200000010
 17.1875 0 l 1
 17.1875 34.375 l 1
 68.75 34.375 l 1
 68.75 51.5625 l 1x000220000120
 103.125 51.5625 l 1x000100000040
275 51.5625 m 1x00004000000008
 275 34.375 l 1
 309.375 34.375 l 1x00008000000009
 343.75 34.375 l 1
 343.75 51.5625 l 1x0002200000000080
 378.125 51.5625 l 1
 378.125 85.9375 l 1x0001080000000020
 360.9375 85.9375 l 1x0001080000000040
 360.9375 103.125 l 1
 326.5625 103.125 l 1x0000020000000240
 326.5625 85.9375 l 1x0000080000000240
 309.375 85.9375 l 1x00000800000004
 309.375 68.75 l 1x00001000000004
 292.1875 68.75 l 1x00001000000010
 292.1875 51.5625 l 1x00004000000010
 275 51.5625 l 1x00004000000008
206.25 85.9375 m 1x00000800000040
 206.25 51.5625 l 1x00002000000040
 223.4375 51.5625 l 1x00002000000020
 223.4375 34.375 l 1x00008000000020
 240.625 34.375 l 1x00008000000008
 240.625 68.75 l 1x00001000000010
 257.8125 68.75 l 1x00001000000004
 257.8125 85.9375 l 1x00000800000004
 275 85.9375 l 1x00000800000002
 275 103.125 l 1x00004000000002
 292.1875 103.125 l 1x00004000000010
 292.1875 120.3125 l 1x00001000000010
 275 120.3125 l 1
 275 103.125 l 1x00004100000002
 240.625 103.125 l 1x00000200000008
 240.625 85.9375 l 1x00000800000008
 206.25 85.9375 l 1x00000800000040
189.0625 154.6875 m 1x00000040000880
 189.0625 120.3125 l 1x000001000004
 206.25 120.3125 l 1x00000800000440
 223.4375 120.3125 l 1
 223.4375 137.5 l 1x00000880000020
 240.625 137.5 l 1x00000200000008
 257.8125 137.5 l 1x00000200000004
 257.8125 154.6875 l 1x00000400000004
 275 154.6875 l 1x00000400000002
 275 171.875 l 1x00000100000002
 292.1875 171.875 l 1x00000100000010
 292.1875 189.0625 l 1
 309.375 189.0625 l 1x00000080000011
 309.375 206.25 l 1x00000040000011
 326.5625 206.25 l 1x00000040000002
 343.75 206.25 l 1x0000001000000280
 343.75 223.4375 l 1x0000002000000280
 360.9375 223.4375 l 1x0000002000000040
 360.9375 240.625 l 1x0000000800000040
 378.125 240.625 l 1x0000000800000020
 378.125 257.8125 l 1x0000000400000020
 395.3125 257.8125 l 1
 395.3125 292.1875 l 1x0000000400000010
 412.5 292.1875 l 1
 412.5 326.5625 l 1x0000000400000008
 429.6875 326.5625 l 1
 429.6875 360.9375 l 1
 429.6875 395.3125 l 1x0000000600000004
 429.6875 429.6875 l 1x0000000080000004
 412.5 429.6875 l 1x0000000080000008
 412.5 464.0625 l 1x0000000020000008
 395.3125 464.0625 l 1x0000000020000010
 395.3125 481.25 l 1x0000000010000010
 378.125 481.25 l 1x0000000010000020
 378.125 498.4375 l 1x0000000008000020
 343.75 498.4375 l 1x0000000008000080
 343.75 481.25 l 1
 309.375 481.25 l 1x0000000010000480
 309.375 464.0625 l 1x0000000020000480
 292.1875 464.0625 l 1x00000000200010
 292.1875 446.875 l 1x00000000400010
 275 446.875 l 1x00000000400020
 275 429.6875 l 1x00000000800020
 257.8125 429.6875 l 1x00000000800040
 257.8125 412.5 l 1x00000001000040
 240.625 412.5 l 1x000000010001
 240.625 395.3125 l 1x000000020001
 223.4375 395.3125 l 1x00000002000080
 223.4375 343.75 l 1
 206.25 343.75 l 1x00000002000220
 206.25 292.1875 l 1
 189.0625 292.1875 l 1x00000002000440
 189.0625 206.25 l 1
 171.875 206.25 l 1x00000006000880
 171.875 154.6875 l 1
 189.0625 154.6875 l 1x00000040000880
292.1875 137.5 m 1x00001080000010
 292.1875 120.3125 l 1
 309.375 120.3125 l 1x00001080000011
 309.375 137.5 l 1x00001080000004
 292.1875 137.5 l 1x00001080000010
189.0625 -223.4375 m 1x400000000401
 189.0625 -206.25 l 1x800000000401
 206.25 -206.25 l 1x80000000000040
 206.25 -189.0625 l 1x20000000000040
 223.4375 -189.0625 l 1x20000000000020
 223.4375 -171.875 l 1x10000000000020
 240.625 -171.875 l 1
 240.625 -51.5625 l 1x10100000000008
 223.4375 -51.5625 l 1x10100000000020
 223.4375 -34.375 l 1x00080000000020
 189.0625 -34.375 l 1x00080000000080
 189.0625 -51.5625 l 1x00100000000080
 171.875 -51.5625 l 1x001000000002
 171.875 -68.75 l 1x002000000002
 154.6875 -68.75 l 1
 137.5 -68.75 l 1x002000000014
 137.5 -85.9375 l 1x004000000014
 120.3125 -85.9375 l 1x004000000020
 120.3125 -103.125 l 1x008000000020
 103.125 -103.125 l 1x008000000040
 103.125 -120.3125 l 1x010000000040
 85.9375 -120.3125 l 1x010000000080
 85.9375 -137.5 l 1x020000000080
 68.75 -137.5 l 1x0200000002
 68.75 -154.6875 l 1x0400000002
 51.5625 -154.6875 l 1
 51.5625 -171.875 l 1x1400000001
 51.5625 -223.4375 l 1
 189.0625 -223.4375 l 1x400000000401
EndSplineSet
Validated: 524293
EndChar
StartChar: G
Encoding: 71 71 67
Width: 447
Flags: W
HStem: -240.625 34.375<68.75 171.875> -223.438 34.375<189.062 206.25> -206.25 51.5625<240.625 257.812> -206.25 34.375<223.438 240.625> -189.062 51.5625<257.812 275> -171.875 51.5625<275 292.188> -154.688 51.5625<292.188 309.375> -137.5 51.5625<51.5625 68.75> -120.312 51.5625<68.75 85.9375> -103.125 51.5625<85.9375 103.125> -85.9375 34.375<103.125 120.312> -68.75 34.375<137.5 154.688> -51.5625 34.375<171.875 206.25> -34.375 34.375<223.438 326.562 395.312 412.5> -17.1875 51.5625<429.688 446.875> 0 51.5625<34.375 51.5625> 0 34.375<0 34.375> 17.1875 51.5625<51.5625 68.75> 34.375 51.5625<103.125 120.312 206.25 223.438> 34.375 34.375<120.312 206.25> 51.5625 51.5625<85.9375 103.125 223.438 240.625> 68.75 51.5625<257.812 275> 68.75 34.375<240.625 257.812> 85.9375 51.5625<275 292.188> 103.125 51.5625<292.188 309.375> 120.312 51.5625<309.375 326.562> 309.375 51.5625<120.312 137.5> 326.562 34.375<412.5 429.688> 343.75 51.5625<171.875 189.062 343.75 360.938> 343.75 34.375<154.688 171.875> 360.938 51.5625<189.062 206.25 326.562 343.75> 378.125 34.375<206.25 326.562>
VStem: 0 51.5625<0 17.1875> 17.1875 34.375<-189.062 -137.5> 34.375 34.375<137.5 206.25> 51.5625 51.5625<-103.125 -85.9375 85.9375 103.125 257.812 275> 51.5625 34.375<103.125 120.312 223.438 257.812> 68.75 51.5625<68.75 85.9375 275 292.188> 85.9375 51.5625<309.375 326.562> 85.9375 34.375<292.188 309.375> 103.125 51.5625<326.562 343.75> 206.25 68.75<-189.062 -171.875 68.75 85.9375> 240.625 51.5625<-171.875 -154.688> 257.812 51.5625<-154.688 -137.5 103.125 120.312> 275 51.5625<-137.5 -120.312 120.312 137.5> 292.188 51.5625<-120.312 -103.125 137.5 154.688> 309.375 34.375<-103.125 -85.9375> 326.562 51.5625<-51.5625 -34.375 360.938 378.125> 326.562 34.375<-68.75 -51.5625> 343.75 51.5625<0 17.1875> 360.938 51.5625<257.812 326.562> 360.938 34.375<17.1875 154.688> 412.5 34.375<0 34.375>
LayerCount: 2
Fore
SplineSet
343.75 137.5 m 1x00000100000410
 326.5625 137.5 l 1x000001000008
 326.5625 120.3125 l 1x000000400008
 309.375 120.3125 l 1x000000400010
 309.375 103.125 l 1x000000800010
 292.1875 103.125 l 1x000000800004
 292.1875 85.9375 l 1
 275 85.9375 l 1x000001000044
 275 68.75 l 1x000004000044
 257.8125 68.75 l 1x000004000010
 240.625 68.75 l 1x000002000020
 240.625 51.5625 l 1
 223.4375 51.5625 l 1x000008000020
 223.4375 34.375 l 1
 206.25 34.375 l 1x000020000040
 189.0625 34.375 l 1x000010000040
 103.125 34.375 l 1x0000200000c0
 103.125 51.5625 l 1x0000080000c0
 85.9375 51.5625 l 1x0000080001
 85.9375 34.375 l 1x0000100001
 68.75 34.375 l 1x0000100004
 68.75 17.1875 l 1
 51.5625 17.1875 l 1x0000400084
 51.5625 0 l 1x0001000084
 0 0 l 1
 0 34.375 l 1x0000800084
 34.375 34.375 l 1x0000800020
 34.375 51.5625 l 1x0001000020
 51.5625 51.5625 l 1x0001000008
 51.5625 68.75 l 1x0000400008
 68.75 68.75 l 1
 68.75 85.9375 l 1x0000410004
 51.5625 85.9375 l 1x0000410010
 51.5625 120.3125 l 1x0000004008
 34.375 120.3125 l 1x0000004020
 34.375 154.6875 l 1
 34.375 189.0625 l 1
 34.375 223.4375 l 1x0000008020
 51.5625 223.4375 l 1x0000008008
 51.5625 275 l 1x0000008010
 68.75 275 l 1
 68.75 292.1875 l 1x0000008004
 85.9375 292.1875 l 1x0000008001
 85.9375 326.5625 l 1x0000009002
 103.125 326.5625 l 1x000000900080
 103.125 343.75 l 1x000000040080
 120.3125 343.75 l 1x0000000401
 120.3125 360.9375 l 1x0000002001
 137.5 360.9375 l 1
 137.5 378.125 l 1x0000002102
 154.6875 378.125 l 1
 171.875 378.125 l 1x000000040080
 171.875 395.3125 l 1
 189.0625 395.3125 l 1x000000080080
 189.0625 412.5 l 1
 343.75 412.5 l 1x00000002008040
 343.75 395.3125 l 1x00000008008040
 360.9375 395.3125 l 1x00000008000010
 360.9375 378.125 l 1x00000001000010
 378.125 378.125 l 1x000000010001
 378.125 360.9375 l 1x000000020001
 429.6875 360.9375 l 1
 429.6875 326.5625 l 1
 412.5 326.5625 l 1x00000010000020
 412.5 154.6875 l 1
 395.3125 154.6875 l 1x00000090000018
 395.3125 0 l 1
 412.5 0 l 1
 412.5 34.375 l 1x00041090000048
 446.875 34.375 l 1
 446.875 -17.1875 l 1
 429.6875 -17.1875 l 1x00020000000048
 429.6875 -34.375 l 1
 378.125 -34.375 l 1x00040000000108
 378.125 -51.5625 l 1x00080000000108
 360.9375 -51.5625 l 1x00080000000080
 360.9375 -85.9375 l 1
 343.75 -85.9375 l 1x00200000000210
 343.75 -120.3125 l 1x008000000004
 326.5625 -120.3125 l 1x008000000008
 326.5625 -137.5 l 1x010000000008
 309.375 -137.5 l 1x010000000010
 309.375 -154.6875 l 1x020000000010
 292.1875 -154.6875 l 1x020000000020
 292.1875 -171.875 l 1x040000000020
 275 -171.875 l 1x040000000040
 275 -189.0625 l 1x080000000040
 257.8125 -189.0625 l 1x080000000010
 257.8125 -206.25 l 1x200000000010
 223.4375 -206.25 l 1x100000000010
 223.4375 -223.4375 l 1
 189.0625 -223.4375 l 1x400000000010
 189.0625 -240.625 l 1
 51.5625 -240.625 l 1x800000000810
 51.5625 -223.4375 l 1x400000000810
 34.375 -223.4375 l 1x4000000020
 34.375 -206.25 l 1x1000000020
 17.1875 -206.25 l 1
 17.1875 -120.3125 l 1x1080000040
 34.375 -120.3125 l 1x1080000020
 34.375 -103.125 l 1x0040000020
 51.5625 -103.125 l 1x0040000010
 51.5625 -85.9375 l 1x0100000010
 68.75 -85.9375 l 1x0100000004
 68.75 -68.75 l 1x0080000004
 85.9375 -68.75 l 1x0080000001
 85.9375 -51.5625 l 1x0040000001
 120.3125 -51.5625 l 1
 120.3125 -34.375 l 1x0024000001
 154.6875 -34.375 l 1
 154.6875 -17.1875 l 1x001200000080
 206.25 -17.1875 l 1
 206.25 0 l 1
 343.75 0 l 1x0008800000c040
 343.75 17.1875 l 1x0000400000c040
 360.9375 17.1875 l 1
 360.9375 103.125 l 1
 360.9375 154.6875 l 1
 343.75 154.6875 l 1x00004080000410
 343.75 137.5 l 1x00000100000410
171.875 -51.5625 m 1x000800000001
 171.875 -68.75 l 1
 137.5 -68.75 l 1x001000000201
 137.5 -85.9375 l 1x002000000201
 103.125 -85.9375 l 1x0020000010
 103.125 -103.125 l 1x0040000010
 85.9375 -103.125 l 1x0040000001
 85.9375 -120.3125 l 1x0080000001
 68.75 -120.3125 l 1x0080000004
 68.75 -137.5 l 1
 51.5625 -137.5 l 1x0100000044
 51.5625 -189.0625 l 1
 68.75 -189.0625 l 1
 68.75 -206.25 l 1x8800000044
 120.3125 -206.25 l 1
 171.875 -206.25 l 1
 171.875 -189.0625 l 1x8800000001
 206.25 -189.0625 l 1
 206.25 -171.875 l 1x440000000140
 240.625 -171.875 l 1x100000000020
 240.625 -154.6875 l 1x200000000020
 257.8125 -154.6875 l 1x200000000010
 257.8125 -137.5 l 1x080000000010
 275 -137.5 l 1x080000000008
 275 -120.3125 l 1x040000000008
 292.1875 -120.3125 l 1x040000000004
 292.1875 -103.125 l 1x020000000004
 309.375 -103.125 l 1
 309.375 -68.75 l 1x021000000002
 326.5625 -68.75 l 1x02100000000080
 326.5625 -34.375 l 1
 223.4375 -34.375 l 1x000400000001
 223.4375 -51.5625 l 1
 171.875 -51.5625 l 1x000800000001
206.25 68.75 m 1x000010000440
 206.25 85.9375 l 1
 223.4375 85.9375 l 1x000020000440
 223.4375 103.125 l 1x000008000440
 257.8125 103.125 l 1x000002000010
 257.8125 120.3125 l 1x000004000010
 275 120.3125 l 1x000004000008
 275 137.5 l 1x000001000008
 292.1875 137.5 l 1x000001000004
 292.1875 154.6875 l 1x000000800004
 309.375 154.6875 l 1x000000800002
 309.375 171.875 l 1x000000400002
 326.5625 171.875 l 1
 326.5625 206.25 l 1x00000040000080
 343.75 206.25 l 1
 343.75 257.8125 l 1x00000040000040
 360.9375 257.8125 l 1x00000040000020
 360.9375 343.75 l 1x00000048000010
 343.75 343.75 l 1x00000048000040
 343.75 360.9375 l 1x00000002000040
 326.5625 360.9375 l 1x000000020001
 326.5625 378.125 l 1
 206.25 378.125 l 1x000000010041
 206.25 360.9375 l 1
 189.0625 360.9375 l 1x000000020041
 189.0625 343.75 l 1x000000080041
 154.6875 343.75 l 1x0000000400c1
 154.6875 326.5625 l 1x0000001000c1
 137.5 326.5625 l 1x0000001002
 137.5 309.375 l 1x0000002002
 120.3125 309.375 l 1x0000002001
 120.3125 275 l 1x0000002004
 103.125 275 l 1
 103.125 257.8125 l 1x0000002010
 85.9375 257.8125 l 1x0000002008
 85.9375 206.25 l 1
 68.75 206.25 l 1
 68.75 137.5 l 1
 85.9375 137.5 l 1x0000012021
 85.9375 103.125 l 1x0000080008
 103.125 103.125 l 1x0000080010
 103.125 85.9375 l 1x0000200010
 120.3125 85.9375 l 1x0000200004
 120.3125 68.75 l 1
 206.25 68.75 l 1x000010000440
EndSplineSet
Validated: 524289
EndChar
StartChar: H
Encoding: 72 72 68
Width: 447
Flags: W
HStem: -51.5625 51.5625<326.562 343.75> -34.375 34.375<343.75 360.938> -17.1875 68.75<120.312 137.5 275 292.188> -17.1875 34.375<34.375 51.5625> 0 34.375<0 17.1875 395.312 412.5 429.688 446.875> 17.1875 51.5625<343.75 360.938> 34.375 68.75<171.875 189.062 309.375 326.562> 51.5625 34.375<429.688 446.875> 68.75 51.5625<206.25 223.438 395.312 412.5> 68.75 34.375<257.812 292.188> 464.062 51.5625<223.438 240.625> 481.25 51.5625<240.625 257.812> 498.438 51.5625<257.812 275 343.75 360.938> 515.625 34.375<275 292.188> 532.812 34.375<309.375 326.562>
VStem: 0 34.375<17.1875 34.375> 51.5625 34.375<34.375 85.9375> 68.75 34.375<-85.9375 -51.5625 103.125 154.688> 85.9375 34.375<171.875 206.25> 103.125 34.375<223.438 275> 120.312 34.375<292.188 309.375> 137.5 34.375<326.562 360.938> 154.688 51.5625<412.5 429.688> 154.688 34.375<378.125 412.5> 171.875 51.5625<429.688 446.875> 189.062 51.5625<464.062 481.25> 189.062 34.375<446.875 464.062> 206.25 51.5625<481.25 498.438> 223.438 51.5625<120.312 137.5 498.438 515.625> 240.625 51.5625<137.5 154.688> 257.812 34.375<154.688 171.875> 275 34.375<17.1875 34.375> 292.188 34.375<51.5625 68.75 206.25 223.438> 309.375 34.375<-51.5625 -34.375> 326.562 34.375<257.812 292.188> 343.75 34.375<309.375 343.75> 360.938 34.375<360.938 498.438> 412.5 34.375<51.5625 68.75> 412.5 17.1875<34.375 51.5625>
LayerCount: 2
Fore
SplineSet
51.5625 -51.5625 m 1x800180
 51.5625 -17.1875 l 1
 17.1875 -17.1875 l 1x100180
 17.1875 0 l 1
 0 0 l 1
 0 34.375 l 1x080180
 34.375 34.375 l 1x020180
 34.375 17.1875 l 1
 51.5625 17.1875 l 1
 51.5625 51.5625 l 1x110180
 51.5625 103.125 l 1x004180
 68.75 103.125 l 1
 68.75 171.875 l 1x004140
 85.9375 171.875 l 1
 85.9375 223.4375 l 1x004120
 103.125 223.4375 l 1
 103.125 292.1875 l 1x004110
 120.3125 292.1875 l 1
 120.3125 326.5625 l 1x004108
 137.5 326.5625 l 1
 137.5 378.125 l 1x004104
 154.6875 378.125 l 1x004101
 154.6875 429.6875 l 1x004102
 171.875 429.6875 l 1
 171.875 446.875 l 1x00410080
 189.0625 446.875 l 1x00410020
 189.0625 481.25 l 1x00510040
 206.25 481.25 l 1x00510010
 206.25 498.4375 l 1x00090010
 223.4375 498.4375 l 1x00090008
 223.4375 515.625 l 1x00210008
 240.625 515.625 l 1x00210004
 240.625 532.8125 l 1x00110004
 257.8125 532.8125 l 1x00110002
 257.8125 550 l 1x00090002
 292.1875 550 l 1x0005000080
 292.1875 567.1875 l 1
 343.75 567.1875 l 1x0003000090
 343.75 550 l 1x0009000090
 360.9375 550 l 1x0009000008
 360.9375 532.8125 l 1x0003000008
 378.125 532.8125 l 1x0003000010
 378.125 515.625 l 1x0005000010
 395.3125 515.625 l 1x0005000008
 395.3125 481.25 l 1
 395.3125 378.125 l 1
 395.3125 343.75 l 1x0011000008
 378.125 343.75 l 1
 378.125 309.375 l 1
 378.125 292.1875 l 1x0011000010
 360.9375 292.1875 l 1
 360.9375 275 l 1x0011000020
 360.9375 240.625 l 1x0011000008
 343.75 240.625 l 1
 343.75 223.4375 l 1
 326.5625 223.4375 l 1x0011000090
 326.5625 189.0625 l 1x0011000020
 309.375 189.0625 l 1
 309.375 171.875 l 1
 292.1875 171.875 l 1x0011000240
 292.1875 137.5 l 1x00110004
 275 137.5 l 1
 275 120.3125 l 1x00910008
 257.8125 120.3125 l 1x00910002
 257.8125 103.125 l 1x00410002
 309.375 103.125 l 1x0201000240
 326.5625 103.125 l 1
 326.5625 34.375 l 1
 309.375 34.375 l 1x0201000120
 309.375 17.1875 l 1
 326.5625 17.1875 l 1
 326.5625 0 l 1x8401000120
 360.9375 0 l 1
 360.9375 17.1875 l 1x4401000008
 343.75 17.1875 l 1x4401000010
 343.75 51.5625 l 1x0101000010
 343.75 68.75 l 1x0401000010
 360.9375 68.75 l 1x0401000008
 360.9375 85.9375 l 1x0101000008
 360.9375 103.125 l 1x0041000008
 378.125 103.125 l 1x0041000010
 378.125 120.3125 l 1
 412.5 120.3125 l 1x0081000012
 412.5 103.125 l 1
 429.6875 103.125 l 1x0041000012
 429.6875 85.9375 l 1x0101000012
 446.875 85.9375 l 1
 446.875 51.5625 l 1x0101000004
 429.6875 51.5625 l 1
 429.6875 34.375 l 1x0901000002
 446.875 34.375 l 1
 446.875 0 l 1
 395.3125 0 l 1x090100000c
 395.3125 -17.1875 l 1x100100000c
 378.125 -17.1875 l 1x1001000010
 378.125 -34.375 l 1x4001000010
 343.75 -34.375 l 1x4001000040
 343.75 -51.5625 l 1
 309.375 -51.5625 l 1x8001000040
 309.375 -34.375 l 1x4001000040
 292.1875 -34.375 l 1x4001000080
 292.1875 -17.1875 l 1x2001000080
 275 -17.1875 l 1
 275 51.5625 l 1x20010001
 292.1875 51.5625 l 1
 292.1875 68.75 l 1x2041000080
 206.25 68.75 l 1x0081001080
 206.25 51.5625 l 1x0101001080
 189.0625 51.5625 l 1x01010020
 189.0625 34.375 l 1x02010020
 171.875 34.375 l 1x02010080
 171.875 17.1875 l 1x04010080
 154.6875 17.1875 l 1x040101
 154.6875 0 l 1x080101
 137.5 0 l 1x080104
 137.5 -17.1875 l 1x200104
 120.3125 -17.1875 l 1x200108
 120.3125 -34.375 l 1x400108
 103.125 -34.375 l 1x400110
 103.125 -85.9375 l 1
 68.75 -85.9375 l 1
 68.75 -51.5625 l 1x800140
 51.5625 -51.5625 l 1x800180
343.75 498.4375 m 1x0089000010
 343.75 515.625 l 1x0005000010
 326.5625 515.625 l 1x0005000020
 326.5625 532.8125 l 1x0003000020
 309.375 532.8125 l 1x0003000040
 309.375 515.625 l 1x0005000040
 292.1875 515.625 l 1
 275 515.625 l 1x0005000880
 275 498.4375 l 1x0009000880
 257.8125 498.4375 l 1x00090010
 257.8125 481.25 l 1x00110010
 240.625 481.25 l 1x00110040
 240.625 464.0625 l 1x00210040
 223.4375 464.0625 l 1x00210020
 223.4375 446.875 l 1
 223.4375 429.6875 l 1x00210080
 206.25 429.6875 l 1
 206.25 412.5 l 1x002102
 189.0625 412.5 l 1x002101
 189.0625 360.9375 l 1
 171.875 360.9375 l 1
 171.875 326.5625 l 1x00210420
 171.875 309.375 l 1
 154.6875 309.375 l 1
 154.6875 292.1875 l 1x00210880
 154.6875 275 l 1
 137.5 275 l 1
 137.5 257.8125 l 1x002111
 137.5 206.25 l 1
 120.3125 206.25 l 1x002124
 120.3125 154.6875 l 1
 103.125 154.6875 l 1x002148
 103.125 85.9375 l 1
 85.9375 85.9375 l 1x012190
 85.9375 34.375 l 1
 103.125 34.375 l 1x020190
 103.125 51.5625 l 1x010190
 137.5 51.5625 l 1
 137.5 68.75 l 1x204104
 154.6875 68.75 l 1x204101
 154.6875 85.9375 l 1x010101
 171.875 85.9375 l 1x01010080
 171.875 103.125 l 1x02010080
 189.0625 103.125 l 1x02010020
 189.0625 120.3125 l 1x00810020
 223.4375 120.3125 l 1
 223.4375 137.5 l 1x00810008
 240.625 137.5 l 1
 240.625 154.6875 l 1x00810004
 257.8125 154.6875 l 1
 257.8125 189.0625 l 1x00810002
 275 189.0625 l 1
 275 206.25 l 1x00810001
 292.1875 206.25 l 1
 292.1875 240.625 l 1x0081000080
 309.375 240.625 l 1
 309.375 257.8125 l 1x0081000040
 326.5625 257.8125 l 1
 326.5625 309.375 l 1x0081000020
 343.75 309.375 l 1
 343.75 360.9375 l 1x0081000010
 360.9375 360.9375 l 1
 360.9375 498.4375 l 1x0089000008
 343.75 498.4375 l 1x0089000010
412.5 34.375 m 1x088100000a
 412.5 68.75 l 1x0881000004
 395.3125 68.75 l 1
 395.3125 34.375 l 1
 412.5 34.375 l 1x088100000a
EndSplineSet
Validated: 524289
EndChar
StartChar: I
Encoding: 73 73 69
Width: 464
Flags: W
HStem: -68.75 51.5625<292.188 309.375 326.562 343.75> -68.75 34.375<309.375 326.562> -51.5625 51.5625<275 292.188 343.75 360.938> -17.1875 34.375<51.5625 68.75> 0 34.375<85.9375 120.312 429.688 464.062> 17.1875 51.5625<137.5 154.688> 17.1875 34.375<0 17.1875> 34.375 51.5625<154.688 171.875 326.562 343.75> 51.5625 51.5625<171.875 189.062> 68.75 51.5625<189.062 206.25 360.938 395.312> 85.9375 51.5625<206.25 223.438> 532.812 85.9375<223.438 257.812> 550 51.5625<206.25 223.438>
VStem: 0 51.5625<17.1875 34.375> 0 34.375<34.375 51.5625> 34.375 51.5625<-17.1875 0> 120.312 51.5625<34.375 51.5625> 137.5 51.5625<51.5625 68.75> 154.688 51.5625<68.75 85.9375> 171.875 51.5625<85.9375 103.125> 206.25 68.75<120.312 137.5 550 601.562> 223.438 34.375<601.562 618.75> 240.625 51.5625<-17.1875 0 206.25 240.625> 240.625 34.375<0 103.125 171.875 206.25> 257.812 51.5625<-34.375 -17.1875 240.625 292.188> 275 68.75<343.75 429.688> 292.188 51.5625<-68.75 -51.5625> 292.188 34.375<429.688 446.875> 326.562 51.5625<-34.375 -17.1875 34.375 51.5625> 326.562 34.375<51.5625 68.75> 360.938 34.375<103.125 120.312> 395.312 34.375<34.375 68.75>
LayerCount: 2
Fore
SplineSet
137.5 68.75 m 1x040040
 154.6875 68.75 l 1x040020
 154.6875 85.9375 l 1x010020
 171.875 85.9375 l 1x010010
 171.875 103.125 l 1x008010
 189.0625 103.125 l 1x008040
 189.0625 120.3125 l 1
 206.25 120.3125 l 1x004048
 206.25 137.5 l 1x002048
 223.4375 137.5 l 1
 223.4375 171.875 l 1x002004
 240.625 171.875 l 1x002001
 240.625 206.25 l 1
 240.625 240.625 l 1x002002
 257.8125 240.625 l 1
 257.8125 292.1875 l 1
 257.8125 343.75 l 1x00200080
 275 343.75 l 1
 275 429.6875 l 1x00200040
 292.1875 429.6875 l 1
 292.1875 446.875 l 1x00200010
 309.375 446.875 l 1x00200080
 326.5625 446.875 l 1
 326.5625 429.6875 l 1x00200010
 343.75 429.6875 l 1
 343.75 343.75 l 1x00200040
 326.5625 343.75 l 1
 326.5625 292.1875 l 1
 309.375 292.1875 l 1
 309.375 240.625 l 1x00200084
 292.1875 240.625 l 1
 292.1875 206.25 l 1x002002
 275 206.25 l 1x002001
 275 120.3125 l 1x004008
 275 0 l 1x204001
 292.1875 0 l 1x204002
 292.1875 -17.1875 l 1x800002
 309.375 -17.1875 l 1x80000080
 309.375 -34.375 l 1
 326.5625 -34.375 l 1x40000088
 326.5625 -17.1875 l 1x80000088
 343.75 -17.1875 l 1x80000020
 343.75 0 l 1
 360.9375 0 l 1
 360.9375 17.1875 l 1
 343.75 17.1875 l 1x22000022
 343.75 34.375 l 1x01000022
 326.5625 34.375 l 1x01000008
 326.5625 85.9375 l 1x01000004
 343.75 85.9375 l 1x01000020
 343.75 103.125 l 1
 360.9375 103.125 l 1x00800022
 360.9375 120.3125 l 1
 395.3125 120.3125 l 1x00400022
 395.3125 103.125 l 1
 412.5 103.125 l 1x00800022
 412.5 85.9375 l 1
 429.6875 85.9375 l 1
 429.6875 34.375 l 1
 464.0625 34.375 l 1
 464.0625 0 l 1
 429.6875 0 l 1x08200001
 429.6875 -17.1875 l 1
 378.125 -17.1875 l 1
 378.125 -34.375 l 1x50000009
 360.9375 -34.375 l 1x50000002
 360.9375 -51.5625 l 1
 343.75 -51.5625 l 1x20000022
 343.75 -68.75 l 1
 292.1875 -68.75 l 1x80000022
 292.1875 -51.5625 l 1x20000022
 275 -51.5625 l 1x20000040
 275 -34.375 l 1x40000040
 257.8125 -34.375 l 1
 257.8125 -17.1875 l 1x50000080
 240.625 -17.1875 l 1x500002
 240.625 103.125 l 1
 223.4375 103.125 l 1x508011
 223.4375 85.9375 l 1x002011
 206.25 85.9375 l 1x002020
 206.25 68.75 l 1x004020
 189.0625 68.75 l 1x004040
 189.0625 51.5625 l 1x008040
 171.875 51.5625 l 1x008080
 171.875 34.375 l 1x010080
 154.6875 34.375 l 1x010020
 154.6875 17.1875 l 1x040020
 137.5 17.1875 l 1x040040
 137.5 0 l 1
 85.9375 0 l 1x080140
 85.9375 -17.1875 l 1
 34.375 -17.1875 l 1x100140
 34.375 0 l 1
 17.1875 0 l 1x080140
 17.1875 17.1875 l 1
 0 17.1875 l 1x0204
 0 51.5625 l 1x0202
 34.375 51.5625 l 1x0082
 34.375 34.375 l 1x0102
 51.5625 34.375 l 1
 51.5625 17.1875 l 1
 68.75 17.1875 l 1
 68.75 34.375 l 1x1104
 120.3125 34.375 l 1
 120.3125 51.5625 l 1x088480
 137.5 51.5625 l 1x088040
 137.5 68.75 l 1x040040
395.3125 68.75 m 1x00400009
 360.9375 68.75 l 1x00400005
 360.9375 51.5625 l 1x00800005
 378.125 51.5625 l 1x00800008
 378.125 34.375 l 1
 395.3125 34.375 l 1x01000009
 395.3125 68.75 l 1x00400009
223.4375 532.8125 m 1x00100440
 223.4375 550 l 1x00080440
 206.25 550 l 1
 206.25 601.5625 l 1x000808
 223.4375 601.5625 l 1x000804
 223.4375 618.75 l 1
 257.8125 618.75 l 1x001004
 257.8125 601.5625 l 1x000804
 275 601.5625 l 1
 275 584.375 l 1x000808
 275 532.8125 l 1
 223.4375 532.8125 l 1x00100440
EndSplineSet
Validated: 524289
EndChar
StartChar: J
Encoding: 74 74 70
Width: 498
Flags: W
HStem: -223.438 34.375<85.9375 171.875> -206.25 51.5625<223.438 240.625> -206.25 34.375<189.062 223.438> -189.062 51.5625<240.625 257.812> -171.875 51.5625<257.812 275> -154.688 51.5625<275 292.188> -120.312 51.5625<68.75 85.9375> -103.125 51.5625<85.9375 103.125> -85.9375 51.5625<103.125 120.312> -68.75 51.5625<120.312 137.5> -51.5625 34.375<137.5 154.688> -34.375 34.375<171.875 189.062> -17.1875 34.375<206.25 223.438> 0 34.375<240.625 257.812 429.688 498.438> 17.1875 34.375<0 17.1875 275 292.188> 34.375 51.5625<51.5625 68.75> 34.375 34.375<34.375 51.5625> 51.5625 51.5625<68.75 85.9375> 68.75 51.5625<85.9375 103.125 429.688 446.875> 103.125 51.5625<464.062 481.25> 120.312 51.5625<412.5 429.688> 137.5 51.5625<137.5 154.688> 137.5 34.375<429.688 446.875> 532.812 85.9375<326.562 343.75 378.125 395.312>
VStem: 0 34.375<17.1875 34.375> 34.375 51.5625<-189.062 -171.875 -120.312 -103.125> 34.375 34.375<-171.875 -120.312> 51.5625 51.5625<-103.125 -85.9375 68.75 85.9375> 68.75 51.5625<-85.9375 -68.75 85.9375 103.125> 85.9375 51.5625<-68.75 -51.5625 103.125 120.312> 103.125 51.5625<137.5 154.688> 103.125 34.375<120.312 137.5> 120.312 51.5625<154.688 171.875> 137.5 51.5625<171.875 189.062> 154.688 34.375<189.062 206.25> 171.875 34.375<223.438 240.625> 189.062 51.5625<275 292.188> 189.062 34.375<257.812 275> 206.25 51.5625<292.188 309.375> 223.438 34.375<309.375 326.562> 240.625 51.5625<-154.688 -137.5> 240.625 34.375<343.75 360.938> 257.812 51.5625<-137.5 -120.312> 275 51.5625<-120.312 -103.125 395.312 429.688> 292.188 34.375<-103.125 -85.9375 257.812 360.938 429.688 464.062> 309.375 34.375<-68.75 -17.1875 137.5 240.625> 326.562 68.75<532.812 550 601.562 618.75> 326.562 34.375<0 17.1875 103.125 120.312> 343.75 34.375<515.625 532.812 618.75 635.938> 378.125 51.5625<120.312 137.5> 378.125 34.375<103.125 120.312> 412.5 51.5625<154.688 171.875> 429.688 51.5625<103.125 120.312> 446.875 34.375<120.312 137.5>
LayerCount: 2
Fore
SplineSet
326.5625 257.8125 m 5x000005000008
 343.75 257.8125 l 5x00000500000880
 343.75 137.5 l 5x000003000004
 360.9375 137.5 l 5x000003000001
 360.9375 103.125 l 5
 378.125 103.125 l 5x00001100000120
 378.125 137.5 l 5x00000300000040
 395.3125 137.5 l 5x000003000002
 395.3125 154.6875 l 5
 412.5 154.6875 l 5x00001100000210
 412.5 171.875 l 5x00000900000210
 464.0625 171.875 l 5x00000300000210
 464.0625 154.6875 l 5x00001100000210
 481.25 154.6875 l 5x00001100000004
 481.25 137.5 l 5x00000300000004
 481.25 103.125 l 5x00001100000008
 464.0625 103.125 l 5
 464.0625 85.9375 l 5x00011100000010
 446.875 85.9375 l 5x00011100000004
 446.875 68.75 l 5x00002100000004
 429.6875 68.75 l 5
 429.6875 34.375 l 5
 498.4375 34.375 l 5x00042100000008
 498.4375 17.1875 l 5x00020100000008
 498.4375 0 l 5
 412.5 0 l 5x00040100000010
 412.5 17.1875 l 5
 395.3125 17.1875 l 5x00020100000210
 395.3125 34.375 l 5x00008100000210
 360.9375 34.375 l 5
 360.9375 -17.1875 l 5x000881000001
 343.75 -17.1875 l 5x000881000004
 343.75 -68.75 l 5x004001000004
 343.75 -85.9375 l 5
 326.5625 -85.9375 l 5x00800100000880
 326.5625 -103.125 l 5x010001000010
 326.5625 -120.3125 l 5x020001000010
 309.375 -120.3125 l 5
 309.375 -137.5 l 5x120001000020
 292.1875 -137.5 l 5x120001000080
 292.1875 -154.6875 l 5x040001000080
 275 -154.6875 l 5x040001000010
 275 -171.875 l 5x080001000010
 257.8125 -171.875 l 5x080001000020
 257.8125 -189.0625 l 5x100001000020
 240.625 -189.0625 l 5x100001000040
 240.625 -206.25 l 5x400001000040
 223.4375 -206.25 l 5x4000010001
 189.0625 -206.25 l 5x2000010004
 189.0625 -223.4375 l 5x8000010004
 137.5 -223.4375 l 5
 68.75 -223.4375 l 5x8000010840
 68.75 -206.25 l 5x2000010840
 51.5625 -206.25 l 5x20000110
 51.5625 -189.0625 l 5x10000110
 34.375 -189.0625 l 5
 34.375 -103.125 l 5x11000140
 51.5625 -103.125 l 5x11000110
 51.5625 -85.9375 l 5x00800110
 68.75 -85.9375 l 5x00800108
 68.75 -68.75 l 5x02000108
 85.9375 -68.75 l 5x02000104
 85.9375 -51.5625 l 5x01000104
 103.125 -51.5625 l 5x01000101
 103.125 -34.375 l 5x00800101
 120.3125 -34.375 l 5x0080010080
 120.3125 -17.1875 l 5x0040010080
 154.6875 -17.1875 l 5
 154.6875 0 l 5x0024010020
 189.0625 0 l 5
 189.0625 17.1875 l 5x0012010004
 223.4375 17.1875 l 5
 223.4375 34.375 l 5x0008810001
 257.8125 34.375 l 5
 257.8125 51.5625 l 5x000441000020
 292.1875 51.5625 l 5
 292.1875 68.75 l 5x000221000008
 326.5625 68.75 l 5x000221000001
 326.5625 103.125 l 5x000011000001
 326.5625 120.3125 l 5x000009000001
 309.375 120.3125 l 5x000009000004
 309.375 137.5 l 5
 309.375 240.625 l 5x000003000004
 292.1875 240.625 l 5
 292.1875 360.9375 l 5
 275 360.9375 l 5x000003000048
 275 326.5625 l 5
 257.8125 326.5625 l 5x000003000110
 257.8125 292.1875 l 5x0000030002
 240.625 292.1875 l 5
 240.625 275 l 5x0000030008
 223.4375 275 l 5x0000030004
 223.4375 240.625 l 5
 206.25 240.625 l 5x0000030011
 206.25 206.25 l 5
 189.0625 206.25 l 5x0000030022
 189.0625 171.875 l 5x0000030040
 171.875 171.875 l 5x0000030080
 171.875 154.6875 l 5x0000110080
 154.6875 154.6875 l 5x00001102
 154.6875 137.5 l 5x00000502
 137.5 137.5 l 5x00000501
 137.5 103.125 l 5x00001104
 120.3125 103.125 l 5
 120.3125 85.9375 l 5x00011108
 103.125 85.9375 l 5x00011110
 103.125 68.75 l 5x00002110
 85.9375 68.75 l 5x00002104
 85.9375 51.5625 l 5x00004104
 68.75 51.5625 l 5x00004108
 68.75 34.375 l 5x00010108
 34.375 34.375 l 5x00008188
 34.375 17.1875 l 5
 0 17.1875 l 5x00020188
 0 34.375 l 5x00008188
 0 51.5625 l 5
 17.1875 51.5625 l 5
 17.1875 68.75 l 5x00022188
 51.5625 68.75 l 5x00008190
 51.5625 85.9375 l 5x00010190
 68.75 85.9375 l 5x00010108
 68.75 103.125 l 5x00004108
 85.9375 103.125 l 5x00004104
 85.9375 120.3125 l 5x00002104
 103.125 120.3125 l 5x00002101
 103.125 154.6875 l 5x00001102
 120.3125 154.6875 l 5x0000110080
 120.3125 171.875 l 5x0000030080
 137.5 171.875 l 5x0000030040
 137.5 189.0625 l 5x0000050040
 154.6875 189.0625 l 5
 154.6875 223.4375 l 5x0000050020
 171.875 223.4375 l 5
 171.875 257.8125 l 5x0000050010
 189.0625 257.8125 l 5x0000050004
 189.0625 292.1875 l 5x0000050008
 206.25 292.1875 l 5
 206.25 309.375 l 5x0000050002
 223.4375 309.375 l 5
 223.4375 343.75 l 5x0000050001
 240.625 343.75 l 5
 240.625 378.125 l 5x000005000040
 257.8125 378.125 l 5
 257.8125 395.3125 l 5x000005000020
 275 395.3125 l 5
 275 429.6875 l 5x000005000010
 292.1875 429.6875 l 5
 292.1875 464.0625 l 5
 326.5625 464.0625 l 5
 326.5625 257.8125 l 5x000005000008
275 17.1875 m 5x000201000010
 275 0 l 5x000401000010
 240.625 0 l 5x000401000040
 240.625 -17.1875 l 5x000801000040
 206.25 -17.1875 l 5x0008010002
 206.25 -34.375 l 5x0010010002
 189.0625 -34.375 l 5x0010010004
 171.875 -34.375 l 5x0010010010
 171.875 -51.5625 l 5x0020010010
 154.6875 -51.5625 l 5
 137.5 -51.5625 l 5x0020010420
 137.5 -68.75 l 5x0040010420
 120.3125 -68.75 l 5x00400108
 120.3125 -85.9375 l 5x00800108
 103.125 -85.9375 l 5x00800110
 103.125 -103.125 l 5x01000110
 85.9375 -103.125 l 5x01000140
 85.9375 -120.3125 l 5x02000140
 68.75 -120.3125 l 5x02000120
 68.75 -171.875 l 5x08000120
 85.9375 -171.875 l 5
 85.9375 -189.0625 l 5
 171.875 -189.0625 l 5
 171.875 -171.875 l 5x8800014010
 223.4375 -171.875 l 5x2000014011
 223.4375 -154.6875 l 5x4000014011
 240.625 -154.6875 l 5x400001000080
 240.625 -137.5 l 5x100001000080
 257.8125 -137.5 l 5x100001000020
 257.8125 -120.3125 l 5x080001000020
 275 -120.3125 l 5x080001000010
 275 -103.125 l 5x040001000010
 292.1875 -103.125 l 5
 292.1875 -68.75 l 5x044001000008
 309.375 -68.75 l 5x044001000004
 309.375 -34.375 l 5x001001000004
 309.375 0 l 5x000401000004
 326.5625 0 l 5x000401000001
 326.5625 17.1875 l 5x000201000001
 275 17.1875 l 5x000201000010
429.6875 120.3125 m 5x00002100000040
 446.875 120.3125 l 5
 446.875 137.5 l 5
 429.6875 137.5 l 5
 429.6875 120.3125 l 5x00002300000044
 412.5 120.3125 l 5x00000900000020
 412.5 103.125 l 5
 429.6875 103.125 l 5x00001100000028
 429.6875 120.3125 l 5x00002100000040
395.3125 532.8125 m 5x000001000002
 378.125 532.8125 l 5
 378.125 515.625 l 5
 343.75 515.625 l 5
 343.75 532.8125 l 5x00000100000080
 326.5625 532.8125 l 5
 326.5625 550 l 5x000001000002
 309.375 550 l 5
 309.375 567.1875 l 5
 309.375 601.5625 l 5x000001000004
 326.5625 601.5625 l 5
 326.5625 618.75 l 5x000001000002
 343.75 618.75 l 5
 343.75 635.9375 l 5
 378.125 635.9375 l 5
 378.125 618.75 l 5x00000100000080
 395.3125 618.75 l 5
 395.3125 601.5625 l 5
 395.3125 532.8125 l 5x000001000002
EndSplineSet
Validated: 524293
EndChar
StartChar: K
Encoding: 75 75 71
Width: 516
Flags: W
HStem: -85.9375 51.5625<275 292.188> -85.9375 34.375<257.812 275> -68.75 51.5625<292.188 309.375> -34.375 34.375<137.5 189.062> -17.1875 51.5625<103.125 120.312 257.812 275 464.062 481.25> 0 51.5625<34.375 51.5625 275 292.188 360.938 378.125> 0 34.375<0 34.375 481.25 515.625> 17.1875 51.5625<378.125 395.312> 34.375 51.5625<395.312 412.5> 51.5625 34.375<412.5 429.688> 68.75 51.5625<326.562 343.75> 68.75 34.375<120.312 137.5> 85.9375 85.9375<223.438 257.812> 103.125 34.375<275 309.375> 154.688 51.5625<292.188 309.375> 154.688 34.375<275 292.188> 171.875 51.5625<309.375 326.562> 189.062 51.5625<326.562 343.75> 206.25 51.5625<343.75 360.938> 223.438 51.5625<360.938 378.125> 240.625 51.5625<378.125 395.312> 257.812 51.5625<395.312 412.5> 275 51.5625<412.5 429.688> 292.188 51.5625<429.688 446.875> 309.375 68.75<189.062 206.25 446.875 464.062> 412.5 51.5625<257.812 275> 429.688 51.5625<275 292.188> 446.875 51.5625<292.188 309.375> 464.062 51.5625<309.375 326.562> 481.25 51.5625<326.562 343.75> 498.438 51.5625<343.75 360.938> 515.625 51.5625<360.938 378.125 446.875 464.062> 532.812 34.375<378.125 446.875>
VStem: 51.5625 51.5625<-51.5625 -17.1875> 51.5625 34.375<-103.125 -51.5625> 68.75 51.5625<103.125 120.312> 85.9375 34.375<120.312 137.5> 103.125 34.375<154.688 189.062> 120.312 34.375<206.25 240.625> 137.5 34.375<257.812 275> 154.688 51.5625<309.375 326.562> 154.688 34.375<292.188 309.375> 171.875 51.5625<326.562 343.75> 189.062 51.5625<360.938 378.125> 189.062 34.375<343.75 360.938> 206.25 51.5625<378.125 395.312> 223.438 51.5625<412.5 429.688> 223.438 34.375<-51.5625 -34.375 395.312 412.5> 240.625 51.5625<-85.9375 -68.75 429.688 446.875> 257.812 51.5625<17.1875 34.375 446.875 464.062> 275 51.5625<34.375 51.5625 464.062 481.25> 292.188 34.375<51.5625 68.75> 309.375 51.5625<-17.1875 0 206.25 223.438 498.438 515.625> 309.375 34.375<85.9375 103.125> 326.562 51.5625<0 17.1875 223.438 240.625 515.625 532.812> 343.75 51.5625<17.1875 34.375 240.625 257.812> 360.938 51.5625<34.375 51.5625 257.812 275> 378.125 51.5625<275 292.188> 395.312 51.5625<68.75 85.9375 292.188 309.375> 412.5 51.5625<309.375 326.562> 429.688 85.9375<0 34.375> 429.688 34.375<34.375 51.5625> 446.875 34.375<-17.1875 0 343.75 360.938> 464.062 34.375<378.125 515.625>
LayerCount: 2
Fore
SplineSet
446.875 85.9375 m 5x0008000000000020
 446.875 68.75 l 5
 464.0625 68.75 l 5x0010000000000021
 464.0625 34.375 l 5x0810000000000004
 515.625 34.375 l 5
 515.625 0 l 5x0200000000000008
 481.25 0 l 5x0200000000000002
 481.25 -17.1875 l 5
 446.875 -17.1875 l 5x0800000000000002
 446.875 0 l 5x0200000000000002
 429.6875 0 l 5x0200000000000008
 429.6875 51.5625 l 5
 412.5 51.5625 l 5x0240000000000084
 412.5 34.375 l 5x0080000000000084
 395.3125 34.375 l 5x00800000000001
 395.3125 17.1875 l 5x01000000000001
 378.125 17.1875 l 5x01000000000002
 378.125 0 l 5x04000000000002
 360.9375 0 l 5x04000000000008
 360.9375 -51.5625 l 5x4400000000000080
 326.5625 -51.5625 l 5x44000000000002
 326.5625 -68.75 l 5
 292.1875 -68.75 l 5x20000000000082
 292.1875 -85.9375 l 5x80000000000082
 240.625 -85.9375 l 5x40000000000082
 240.625 -68.75 l 5x20000000000082
 223.4375 -68.75 l 5x200000000001
 223.4375 -51.5625 l 5
 223.4375 -34.375 l 5x500000000001
 189.0625 -34.375 l 5x500000000008
 154.6875 -34.375 l 5x500000000040
 120.3125 -34.375 l 5x5000000002
 120.3125 -17.1875 l 5
 103.125 -17.1875 l 5
 103.125 -51.5625 l 5x4800000042
 85.9375 -51.5625 l 5
 85.9375 -103.125 l 5
 51.5625 -103.125 l 5x4800000020
 51.5625 -51.5625 l 5
 51.5625 -34.375 l 5x5000000040
 51.5625 0 l 5
 34.375 0 l 5x0400000020
 0 0 l 5
 0 34.375 l 5
 17.1875 34.375 l 5
 34.375 34.375 l 5x0200000020
 34.375 51.5625 l 5
 51.5625 51.5625 l 5
 51.5625 68.75 l 5x0410000020
 68.75 68.75 l 5x0410000010
 68.75 85.9375 l 5x0008000010
 68.75 120.3125 l 5x0020000010
 85.9375 120.3125 l 5
 85.9375 154.6875 l 5x0021000008
 103.125 154.6875 l 5
 103.125 206.25 l 5x0021200004
 120.3125 206.25 l 5x0021200002
 120.3125 257.8125 l 5x0000040002
 137.5 257.8125 l 5x0000040001
 137.5 292.1875 l 5x0000010001
 154.6875 292.1875 l 5x000001000040
 154.6875 326.5625 l 5x000002000080
 171.875 326.5625 l 5x000002000020
 171.875 343.75 l 5x000001000020
 189.0625 343.75 l 5x000001000008
 189.0625 378.125 l 5x000000800010
 206.25 378.125 l 5
 206.25 395.3125 l 5x000000800004
 223.4375 395.3125 l 5x000000800001
 223.4375 429.6875 l 5x000000a00002
 240.625 429.6875 l 5x000000a0000080
 240.625 446.875 l 5x00000010000080
 257.8125 446.875 l 5x00000010000040
 257.8125 464.0625 l 5x00000040000040
 275 464.0625 l 5x00000040000020
 275 481.25 l 5x00000020000020
 292.1875 481.25 l 5x00000020000010
 292.1875 498.4375 l 5x00000010000010
 309.375 498.4375 l 5x00000010000008
 309.375 515.625 l 5x00000008000008
 326.5625 515.625 l 5x00000008000002
 326.5625 532.8125 l 5x00000004000002
 343.75 532.8125 l 5x00000004000001
 343.75 550 l 5x00000002000001
 360.9375 550 l 5x0000000200000080
 360.9375 567.1875 l 5x0000000100000080
 412.5 567.1875 l 5x0000000080000010
 429.6875 567.1875 l 5x0000000080000004
 464.0625 567.1875 l 5x0000000100000001
 464.0625 550 l 5x0000000200000001
 481.25 550 l 5x0000000200000002
 481.25 532.8125 l 5x0000000080000002
 498.4375 532.8125 l 5x0000000080000001
 498.4375 498.4375 l 5
 498.4375 360.9375 l 5x0000000200000001
 481.25 360.9375 l 5
 481.25 326.5625 l 5x0000020200000002
 464.0625 326.5625 l 5x0000020200000010
 464.0625 309.375 l 5x0000008000000010
 446.875 309.375 l 5x0000008000000020
 446.875 292.1875 l 5x0000010000000020
 429.6875 292.1875 l 5x0000010000000040
 429.6875 275 l 5x0000020000000040
 412.5 275 l 5x0000020000000080
 412.5 257.8125 l 5x0000040000000080
 395.3125 257.8125 l 5x00000400000001
 395.3125 240.625 l 5x00000800000001
 378.125 240.625 l 5x00000800000002
 378.125 223.4375 l 5x00001000000002
 360.9375 223.4375 l 5x00001000000008
 360.9375 206.25 l 5x00002000000008
 343.75 206.25 l 5x00002000000001
 343.75 189.0625 l 5x00004000000001
 326.5625 189.0625 l 5x00004000000002
 326.5625 171.875 l 5x00008000000002
 309.375 171.875 l 5x00008000000004
 309.375 154.6875 l 5x00020000000004
 275 154.6875 l 5
 275 137.5 l 5x00050000000020
 326.5625 137.5 l 5x00050000000002
 326.5625 120.3125 l 5x00200000000002
 343.75 120.3125 l 5
 343.75 68.75 l 5
 326.5625 68.75 l 5x00200000000011
 326.5625 34.375 l 5x00800000000020
 309.375 34.375 l 5x00800000000040
 309.375 17.1875 l 5x01000000000040
 292.1875 17.1875 l 5x01000000000010
 292.1875 0 l 5x04000000000010
 275 0 l 5x04000000000020
 275 -17.1875 l 5x08000000000020
 257.8125 -17.1875 l 5x08000000000040
 257.8125 -51.5625 l 5
 275 -51.5625 l 5x48000000000120
 275 -34.375 l 5x80000000000120
 292.1875 -34.375 l 5x80000000000010
 292.1875 -17.1875 l 5x20000000000010
 309.375 -17.1875 l 5
 309.375 0 l 5x22000000000008
 326.5625 0 l 5x22000000000002
 326.5625 17.1875 l 5x01000000000002
 343.75 17.1875 l 5x01000000000001
 343.75 34.375 l 5x00800000000001
 360.9375 34.375 l 5x0080000000000080
 360.9375 51.5625 l 5x0400000000000080
 378.125 51.5625 l 5x0400000000000040
 378.125 68.75 l 5x0100000000000040
 395.3125 68.75 l 5x0100000000000020
 395.3125 85.9375 l 5x0080000000000020
 446.875 85.9375 l 5x0008000000000020
395.3125 292.1875 m 5x0000080000000020
 395.3125 309.375 l 5x0000040000000020
 412.5 309.375 l 5x0000040000000010
 412.5 326.5625 l 5x0000020000000010
 429.6875 326.5625 l 5x0000020000000004
 429.6875 343.75 l 5x0000010000000004
 446.875 343.75 l 5x0000010000000002
 446.875 378.125 l 5x0000008000000002
 464.0625 378.125 l 5
 464.0625 412.5 l 5
 464.0625 515.625 l 5x000000c100000001
 446.875 515.625 l 5x000000c100000002
 446.875 532.8125 l 5
 378.125 532.8125 l 5x0000000080000202
 378.125 515.625 l 5x0000000100000202
 360.9375 515.625 l 5x00000001000008
 360.9375 498.4375 l 5x00000002000008
 343.75 498.4375 l 5x00000002000001
 343.75 481.25 l 5
 326.5625 481.25 l 5x00000004000021
 326.5625 464.0625 l 5x00000008000021
 309.375 464.0625 l 5x00000008000040
 309.375 446.875 l 5x00000010000040
 292.1875 446.875 l 5x00000010000080
 292.1875 429.6875 l 5x00000020000080
 275 429.6875 l 5x000000200002
 275 412.5 l 5x000000400002
 257.8125 412.5 l 5x000000400001
 257.8125 378.125 l 5x000000c00004
 240.625 378.125 l 5
 240.625 360.9375 l 5x000000c00010
 223.4375 360.9375 l 5x000000c00008
 223.4375 326.5625 l 5x000002000020
 206.25 326.5625 l 5x000002000080
 206.25 309.375 l 5x000000800080
 189.0625 309.375 l 5x000000800040
 189.0625 275 l 5
 171.875 275 l 5x000002000108
 171.875 240.625 l 5
 154.6875 240.625 l 5x000008000220
 154.6875 189.0625 l 5
 137.5 189.0625 l 5x000040000440
 137.5 137.5 l 5
 120.3125 137.5 l 5x0004400009
 120.3125 103.125 l 5
 137.5 103.125 l 5x0010000011
 137.5 120.3125 l 5x0020000011
 171.875 120.3125 l 5x002000000020
 171.875 137.5 l 5x000400000020
 206.25 137.5 l 5
 206.25 154.6875 l 5x000500000004
 223.4375 154.6875 l 5x000500000001
 223.4375 171.875 l 5x000800000001
 257.8125 171.875 l 5
 257.8125 189.0625 l 5x00084000000040
 292.1875 189.0625 l 5x00010000000010
 292.1875 206.25 l 5x00020000000010
 309.375 206.25 l 5x00020000000008
 309.375 223.4375 l 5x00008000000008
 326.5625 223.4375 l 5x00008000000002
 326.5625 240.625 l 5x00004000000002
 343.75 240.625 l 5x00004000000001
 343.75 257.8125 l 5x00002000000001
 360.9375 257.8125 l 5x0000200000000080
 360.9375 275 l 5x0000100000000080
 378.125 275 l 5x0000100000000040
 378.125 292.1875 l 5x0000080000000040
 395.3125 292.1875 l 5x0000080000000020
189.0625 0 m 5x110000000108
 189.0625 17.1875 l 5
 137.5 17.1875 l 5
 137.5 0 l 5
 189.0625 0 l 5x110000000108
257.8125 85.9375 m 5x00080000000040
 206.25 85.9375 l 5x000800000004
 206.25 68.75 l 5x001000000004
 189.0625 68.75 l 5x001000000008
 189.0625 51.5625 l 5x004000000008
 206.25 51.5625 l 5x004000000004
 206.25 34.375 l 5x008000000004
 223.4375 34.375 l 5x008000000001
 223.4375 17.1875 l 5x010000000001
 257.8125 17.1875 l 5x01000000000040
 257.8125 34.375 l 5x08000000000040
 275 34.375 l 5x08000000000020
 275 51.5625 l 5x04000000000020
 292.1875 51.5625 l 5
 292.1875 85.9375 l 5x04080000000010
 309.375 85.9375 l 5x04080000000004
 309.375 103.125 l 5x00040000000004
 292.1875 103.125 l 5x00040000000010
 257.8125 103.125 l 5x00040000000040
 257.8125 85.9375 l 5x00080000000040
120.3125 51.5625 m 5x0040000002
 103.125 51.5625 l 5
 103.125 34.375 l 5x0840000004
 120.3125 34.375 l 5
 120.3125 51.5625 l 5x0840000002
 137.5 51.5625 l 5x0840000001
 137.5 68.75 l 5x0010000001
 120.3125 68.75 l 5x0010000002
 120.3125 51.5625 l 5x0040000002
EndSplineSet
Validated: 524293
EndChar
StartChar: L
Encoding: 76 76 72
Width: 498
Flags: W
HStem: -120.312 51.5625<154.688 189.062> -103.125 34.375<189.062 223.438> -85.9375 51.5625<257.812 275> -85.9375 34.375<240.625 257.812> -68.75 51.5625<275 292.188> -51.5625 51.5625<292.188 309.375> -51.5625 34.375<51.5625 120.312> -34.375 51.5625<154.688 171.875 309.375 326.562> -17.1875 51.5625<171.875 189.062 326.562 343.75> 0 34.375<0 17.1875 343.75 378.125 429.688 498.438> 17.1875 51.5625<206.25 223.438> 17.1875 34.375<395.312 429.688> 34.375 51.5625<223.438 240.625> 51.5625 51.5625<240.625 257.812> 120.312 51.5625<292.188 309.375> 464.062 51.5625<257.812 275> 481.25 51.5625<275 292.188> 498.438 51.5625<292.188 309.375 395.312 412.5> 515.625 34.375<309.375 326.562> 532.812 34.375<343.75 378.125>
VStem: 0 34.375<17.1875 34.375> 17.1875 34.375<-17.1875 0> 120.312 34.375<-68.75 -51.5625 17.1875 120.312> 137.5 34.375<137.5 223.438> 154.688 34.375<-120.312 -103.125 240.625 292.188> 171.875 34.375<309.375 343.75> 189.062 34.375<360.938 395.312> 206.25 34.375<412.5 429.688> 223.438 51.5625<68.75 85.9375 464.062 481.25> 223.438 34.375<446.875 464.062> 240.625 51.5625<85.9375 103.125 481.25 498.438> 257.812 51.5625<-51.5625 -34.375 120.312 137.5 498.438 515.625> 257.812 34.375<103.125 120.312> 275 51.5625<-34.375 -17.1875 137.5 154.688> 292.188 51.5625<-17.1875 0 154.688 171.875> 309.375 51.5625<189.062 206.25> 309.375 34.375<171.875 189.062> 326.562 51.5625<206.25 223.438> 343.75 51.5625<240.625 257.812> 343.75 34.375<223.438 240.625> 360.938 51.5625<257.812 275> 378.125 34.375<275 309.375> 395.312 34.375<326.562 343.75> 412.5 34.375<360.938 498.438>
LayerCount: 2
Fore
SplineSet
120.3125 137.5 m 1x021206
 137.5 137.5 l 1
 137.5 240.625 l 1x021201
 154.6875 240.625 l 1
 154.6875 309.375 l 1x02120080
 171.875 309.375 l 1
 171.875 360.9375 l 1x02120040
 189.0625 360.9375 l 1
 189.0625 412.5 l 1x02120020
 206.25 412.5 l 1
 206.25 446.875 l 1x02120010
 223.4375 446.875 l 1x02120004
 223.4375 481.25 l 1x02128008
 240.625 481.25 l 1x02128002
 240.625 498.4375 l 1x00024002
 257.8125 498.4375 l 1x00024001
 257.8125 515.625 l 1x00030001
 275 515.625 l 1x0003000040
 275 532.8125 l 1x0002800040
 292.1875 532.8125 l 1x0002800020
 292.1875 550 l 1x0002400020
 326.5625 550 l 1x0002200004
 326.5625 567.1875 l 1x0002100004
 378.125 567.1875 l 1x000210000040
 395.3125 567.1875 l 1x000210000020
 395.3125 550 l 1x000240000020
 412.5 550 l 1x000240000010
 412.5 532.8125 l 1x000210000010
 429.6875 532.8125 l 1x000210000020
 429.6875 515.625 l 1x000220000020
 446.875 515.625 l 1
 446.875 343.75 l 1x000220000010
 429.6875 343.75 l 1
 429.6875 309.375 l 1x000220000020
 412.5 309.375 l 1x000220000040
 412.5 257.8125 l 1x000220000080
 395.3125 257.8125 l 1
 395.3125 240.625 l 1x0002200002
 378.125 240.625 l 1x0002200001
 378.125 206.25 l 1x0002200004
 360.9375 206.25 l 1
 360.9375 189.0625 l 1x0002200010
 343.75 189.0625 l 1x0002200008
 343.75 154.6875 l 1x0002200020
 326.5625 154.6875 l 1
 326.5625 137.5 l 1x0002200040
 309.375 137.5 l 1
 309.375 120.3125 l 1x00022001
 292.1875 120.3125 l 1x0002200080
 292.1875 85.9375 l 1x000a2002
 275 85.9375 l 1x000a2008
 275 68.75 l 1x00220008
 257.8125 68.75 l 1x0022000080
 257.8125 51.5625 l 1x0006000080
 240.625 51.5625 l 1x00060002
 240.625 34.375 l 1x000a0002
 223.4375 34.375 l 1x000a0004
 223.4375 17.1875 l 1x00220004
 206.25 17.1875 l 1x00220010
 206.25 0 l 1x00420010
 189.0625 0 l 1x00420020
 189.0625 -17.1875 l 1x00820020
 171.875 -17.1875 l 1x00820040
 171.875 -34.375 l 1x01020040
 154.6875 -34.375 l 1x01020080
 154.6875 -68.75 l 1x810202
 223.4375 -68.75 l 1
 223.4375 -51.5625 l 1x42020204
 257.8125 -51.5625 l 1x10020001
 257.8125 -34.375 l 1x20020001
 275 -34.375 l 1x2002000040
 275 -17.1875 l 1x0802000040
 292.1875 -17.1875 l 1x0802000020
 292.1875 0 l 1x0402000020
 309.375 0 l 1x0402000008
 309.375 17.1875 l 1x0102000008
 326.5625 17.1875 l 1x0102000004
 326.5625 34.375 l 1x0082000004
 378.125 34.375 l 1
 378.125 51.5625 l 1x004600000040
 429.6875 51.5625 l 1x001200000020
 429.6875 34.375 l 1
 498.4375 34.375 l 1
 498.4375 0 l 1
 429.6875 0 l 1x004200000020
 429.6875 17.1875 l 1
 395.3125 17.1875 l 1x001200000020
 395.3125 0 l 1
 343.75 0 l 1x004200002020
 343.75 -17.1875 l 1x008200002020
 326.5625 -17.1875 l 1x0082000040
 326.5625 -34.375 l 1x0102000040
 309.375 -34.375 l 1x01020001
 309.375 -51.5625 l 1x04020001
 292.1875 -51.5625 l 1x0402000020
 292.1875 -68.75 l 1x0802000020
 275 -68.75 l 1x0802000040
 275 -85.9375 l 1x2002000040
 240.625 -85.9375 l 1x10020002
 240.625 -103.125 l 1
 189.0625 -103.125 l 1x40020082
 189.0625 -120.3125 l 1
 154.6875 -120.3125 l 1x80020082
 154.6875 -103.125 l 1x40020082
 137.5 -103.125 l 1x400201
 137.5 -85.9375 l 1x100201
 120.3125 -85.9375 l 1x100202
 120.3125 -51.5625 l 1
 34.375 -51.5625 l 1x02020a
 34.375 -34.375 l 1x01020a
 17.1875 -34.375 l 1x010204
 17.1875 0 l 1x004204
 0 0 l 1
 0 34.375 l 1x004208
 34.375 34.375 l 1x000a08
 34.375 17.1875 l 1x001208
 51.5625 17.1875 l 1
 51.5625 -17.1875 l 1
 120.3125 -17.1875 l 1
 120.3125 137.5 l 1x021206
378.125 309.375 m 1x000600000040
 378.125 326.5625 l 1x000600000040
 395.3125 326.5625 l 1
 395.3125 343.75 l 1
 395.3125 360.9375 l 1x000600000020
 412.5 360.9375 l 1
 412.5 378.125 l 1
 412.5 498.4375 l 1x000640000010
 395.3125 498.4375 l 1x000640000020
 395.3125 515.625 l 1x000220000020
 378.125 515.625 l 1x000220000040
 378.125 532.8125 l 1x000210000040
 343.75 532.8125 l 1x0002100001
 343.75 515.625 l 1
 309.375 515.625 l 1x0002200101
 309.375 498.4375 l 1x0002400101
 292.1875 498.4375 l 1x00024002
 292.1875 481.25 l 1x00028002
 275 481.25 l 1x00028008
 275 464.0625 l 1x00030008
 257.8125 464.0625 l 1
 257.8125 446.875 l 1x00030004
 257.8125 429.6875 l 1
 240.625 429.6875 l 1
 240.625 412.5 l 1x0003001080
 240.625 395.3125 l 1
 223.4375 395.3125 l 1
 223.4375 378.125 l 1x00030022
 223.4375 343.75 l 1
 206.25 343.75 l 1x00030044
 206.25 292.1875 l 1
 189.0625 292.1875 l 1x00030090
 189.0625 223.4375 l 1
 171.875 223.4375 l 1x00030120
 171.875 120.3125 l 1
 154.6875 120.3125 l 1
 154.6875 34.375 l 1
 154.6875 17.1875 l 1
 171.875 17.1875 l 1x010b0240
 171.875 34.375 l 1x00820240
 189.0625 34.375 l 1
 189.0625 51.5625 l 1x00860020
 206.25 51.5625 l 1x00860010
 206.25 68.75 l 1x00220010
 223.4375 68.75 l 1x00220008
 223.4375 85.9375 l 1x000a0008
 240.625 85.9375 l 1x000a0002
 240.625 103.125 l 1x00060002
 257.8125 103.125 l 1x0006000080
 257.8125 137.5 l 1x00060001
 275 137.5 l 1
 275 154.6875 l 1x0006000040
 292.1875 154.6875 l 1
 292.1875 171.875 l 1x0006000020
 309.375 171.875 l 1x0006000008
 309.375 206.25 l 1x0006000010
 326.5625 206.25 l 1
 326.5625 223.4375 l 1x0006000004
 343.75 223.4375 l 1x0006000001
 343.75 257.8125 l 1x0006000002
 360.9375 257.8125 l 1
 360.9375 275 l 1x000600000080
 378.125 275 l 1
 378.125 309.375 l 1x000600000040
EndSplineSet
Validated: 524289
EndChar
StartChar: M
Encoding: 77 77 73
Width: 516
Flags: W
HStem: -189.062 51.5625<257.812 275 309.375 326.562> -189.062 34.375<275 309.375> -171.875 51.5625<326.562 343.75> -154.688 51.5625<343.75 360.938> -120.312 51.5625<378.125 395.312> -103.125 51.5625<85.9375 103.125 429.688 446.875> -103.125 34.375<103.125 120.312> -85.9375 51.5625<68.75 85.9375 137.5 154.688 446.875 464.062> -51.5625 68.75<103.125 120.312 326.562 343.75> -34.375 51.5625<257.812 275> -17.1875 51.5625<85.9375 103.125 275 292.188> 0 34.375<0 34.375 68.75 85.9375 498.438 515.625> 17.1875 51.5625<309.375 326.562> 17.1875 34.375<378.125 395.312> 34.375 51.5625<326.562 343.75> 51.5625 51.5625<343.75 360.938> 68.75 51.5625<360.938 378.125> 85.9375 51.5625<378.125 395.312> 171.875 51.5625<103.125 120.312> 189.062 51.5625<240.625 257.812> 206.25 17.1875<189.062 206.25> 464.062 51.5625<171.875 189.062> 481.25 51.5625<189.062 206.25> 498.438 51.5625<120.312 137.5> 515.625 51.5625<85.9375 120.312 360.938 378.125> 532.812 51.5625<309.375 326.562 378.125 395.312 464.062 481.25> 550 34.375<275 309.375> 567.188 34.375<412.5 446.875>
VStem: 17.1875 34.375<137.5 412.5> 34.375 34.375<-34.375 0 34.375 68.75 429.688 481.25> 51.5625 34.375<498.438 515.625> 68.75 34.375<223.438 275> 85.9375 34.375<171.875 189.062 292.188 343.75 550 567.188> 103.125 34.375<-34.375 -17.1875 360.938 378.125> 120.312 34.375<-68.75 -51.5625 223.438 240.625> 137.5 34.375<257.812 309.375 446.875 464.062> 154.688 34.375<326.562 378.125> 189.062 85.9375<206.25 223.438 515.625 532.812> 206.25 34.375<240.625 292.188> 223.438 34.375<-137.5 -34.375 189.062 206.25 309.375 326.562> 240.625 34.375<343.75 360.938> 257.812 34.375<240.625 257.812 378.125 395.312> 275 34.375<275 292.188 412.5 446.875> 292.188 34.375<309.375 326.562> 309.375 34.375<343.75 378.125> 326.562 34.375<-34.375 0 395.312 446.875> 343.75 51.5625<85.9375 103.125> 343.75 34.375<-68.75 -51.5625> 360.938 51.5625<34.375 51.5625 103.125 120.312 550 567.188> 378.125 51.5625<120.312 137.5> 395.312 51.5625<154.688 171.875> 395.312 34.375<-51.5625 17.1875 137.5 154.688> 412.5 51.5625<171.875 189.062> 429.688 34.375<189.062 223.438> 446.875 34.375<240.625 257.812> 464.062 34.375<-34.375 0 275 309.375> 481.25 34.375<0 34.375 326.562 532.812>
LayerCount: 2
Fore
SplineSet
446.875 -51.5625 m 5x04020000000012
 446.875 -34.375 l 5x01000000000012
 464.0625 -34.375 l 5
 464.0625 0 l 5x01100000000001
 481.25 0 l 5x0110000000000080
 481.25 34.375 l 5x0002000000000080
 515.625 34.375 l 5
 515.625 0 l 5x0010000000000080
 498.4375 0 l 5x00100000000001
 498.4375 -51.5625 l 5x00800000000001
 481.25 -51.5625 l 5
 481.25 -68.75 l 5x0280000000000080
 464.0625 -68.75 l 5x02800000000001
 464.0625 -85.9375 l 5x01000000000001
 446.875 -85.9375 l 5x01000000000002
 446.875 -103.125 l 5x04000000000002
 429.6875 -103.125 l 5x04000000000004
 429.6875 -120.3125 l 5x08000000000004
 378.125 -120.3125 l 5
 378.125 -137.5 l 5x88000000000040
 360.9375 -137.5 l 5x88000000000080
 360.9375 -154.6875 l 5x10000000000080
 343.75 -154.6875 l 5x100000000001
 343.75 -171.875 l 5x200000000001
 326.5625 -171.875 l 5x200000000004
 326.5625 -189.0625 l 5
 257.8125 -189.0625 l 5x800000000044
 257.8125 -171.875 l 5x200000000044
 240.625 -171.875 l 5x200000000080
 240.625 -154.6875 l 5x100000000080
 223.4375 -154.6875 l 5
 223.4375 -17.1875 l 5x1020000001
 240.625 -17.1875 l 5x102000000080
 240.625 0 l 5x001000000080
 257.8125 0 l 5x001000000040
 257.8125 17.1875 l 5x004000000040
 275 17.1875 l 5x004000000020
 275 34.375 l 5x002000000020
 292.1875 34.375 l 5
 292.1875 51.5625 l 5x002100000010
 309.375 51.5625 l 5x002100000008
 309.375 68.75 l 5x000800000008
 326.5625 68.75 l 5x000800000004
 326.5625 85.9375 l 5x000200000004
 343.75 85.9375 l 5x000200000002
 343.75 103.125 l 5x000100000002
 360.9375 103.125 l 5x00010000000080
 360.9375 120.3125 l 5x00008000000080
 378.125 120.3125 l 5x00008000000040
 378.125 137.5 l 5x00004000000040
 395.3125 137.5 l 5x00004000000010
 395.3125 171.875 l 5x00006000000020
 412.5 171.875 l 5x00006000000008
 412.5 189.0625 l 5x00001000000008
 429.6875 189.0625 l 5
 429.6875 240.625 l 5x00001000000004
 446.875 240.625 l 5
 446.875 275 l 5x00001000000002
 464.0625 275 l 5
 464.0625 326.5625 l 5x00001000000001
 481.25 326.5625 l 5
 481.25 532.8125 l 5x0000104000000080
 464.0625 532.8125 l 5x00001040000001
 464.0625 550 l 5x00000020000001
 446.875 550 l 5x00000020000002
 446.875 567.1875 l 5
 412.5 567.1875 l 5x00000010000082
 412.5 550 l 5x00000020000082
 395.3125 550 l 5x00000020000010
 395.3125 532.8125 l 5x00000040000010
 378.125 532.8125 l 5x00000040000040
 378.125 515.625 l 5x00000080000040
 360.9375 515.625 l 5
 360.9375 378.125 l 5
 343.75 378.125 l 5x00000080000880
 343.75 326.5625 l 5
 326.5625 326.5625 l 5x000000800011
 326.5625 292.1875 l 5
 309.375 292.1875 l 5x000000800024
 309.375 257.8125 l 5
 292.1875 257.8125 l 5x000000800048
 292.1875 223.4375 l 5
 275 223.4375 l 5
 275 206.25 l 5x000008800410
 257.8125 206.25 l 5x0000088001
 257.8125 189.0625 l 5
 223.4375 189.0625 l 5x0000100001
 223.4375 206.25 l 5x0000080001
 189.0625 206.25 l 5
 189.0625 223.4375 l 5x0000080004
 206.25 223.4375 l 5
 206.25 309.375 l 5x0000080002
 223.4375 309.375 l 5
 223.4375 343.75 l 5x0000080001
 240.625 343.75 l 5
 240.625 378.125 l 5x000008000080
 257.8125 378.125 l 5
 257.8125 412.5 l 5x000008000040
 275 412.5 l 5
 275 464.0625 l 5x00000c000020
 292.1875 464.0625 l 5x00000c000010
 292.1875 481.25 l 5x000002000010
 309.375 481.25 l 5x000002000008
 309.375 515.625 l 5x000000800008
 326.5625 515.625 l 5x000000800004
 326.5625 532.8125 l 5x000000400004
 309.375 532.8125 l 5x000000400008
 309.375 550 l 5x000000200008
 275 550 l 5x000000200020
 275 515.625 l 5x0000008004
 240.625 515.625 l 5x000000800080
 240.625 498.4375 l 5x000001000080
 223.4375 498.4375 l 5x0000010001
 223.4375 481.25 l 5x0000020001
 189.0625 481.25 l 5x0000020004
 189.0625 464.0625 l 5
 171.875 464.0625 l 5
 171.875 429.6875 l 5
 189.0625 429.6875 l 5
 189.0625 309.375 l 5
 171.875 309.375 l 5
 171.875 240.625 l 5x0000140014
 154.6875 240.625 l 5x0000140020
 154.6875 206.25 l 5x0000080008
 137.5 206.25 l 5x0000080010
 137.5 189.0625 l 5
 120.3125 189.0625 l 5x0000100090
 120.3125 171.875 l 5
 85.9375 171.875 l 5x0000200090
 85.9375 189.0625 l 5x0000100090
 68.75 189.0625 l 5
 68.75 240.625 l 5
 68.75 292.1875 l 5x00001001
 85.9375 292.1875 l 5
 85.9375 343.75 l 5
 85.9375 360.9375 l 5x0000100080
 103.125 360.9375 l 5
 103.125 378.125 l 5
 103.125 395.3125 l 5x0000100040
 120.3125 395.3125 l 5
 120.3125 412.5 l 5
 120.3125 446.875 l 5x0000100020
 137.5 446.875 l 5
 137.5 481.25 l 5x0000120010
 137.5 498.4375 l 5x0000010010
 120.3125 498.4375 l 5x0000010020
 120.3125 515.625 l 5
 85.9375 515.625 l 5x0000008220
 85.9375 481.25 l 5
 68.75 481.25 l 5x0000020480
 68.75 412.5 l 5
 51.5625 412.5 l 5
 51.5625 257.8125 l 5
 51.5625 137.5 l 5
 68.75 137.5 l 5x00004209
 68.75 34.375 l 5x00104204
 103.125 34.375 l 5x0020000440
 103.125 17.1875 l 5x0080000440
 120.3125 17.1875 l 5x0080000020
 120.3125 0 l 5x0010000020
 137.5 0 l 5x0010000010
 137.5 -34.375 l 5
 154.6875 -34.375 l 5
 154.6875 -85.9375 l 5x0110000048
 137.5 -85.9375 l 5x0110000010
 137.5 -103.125 l 5x0200000010
 85.9375 -103.125 l 5x0400000090
 85.9375 -85.9375 l 5x0100000090
 68.75 -85.9375 l 5x01000001
 68.75 -68.75 l 5x02000001
 51.5625 -68.75 l 5
 51.5625 -51.5625 l 5x02800002
 34.375 -51.5625 l 5x02800004
 34.375 0 l 5
 0 0 l 5
 0 34.375 l 5
 34.375 34.375 l 5
 34.375 68.75 l 5x00108004
 17.1875 68.75 l 5x00108008
 17.1875 103.125 l 5
 17.1875 429.6875 l 5x00010008
 34.375 429.6875 l 5
 34.375 498.4375 l 5x00010104
 51.5625 498.4375 l 5x00010102
 51.5625 532.8125 l 5x00000042
 68.75 532.8125 l 5x00000041
 68.75 550 l 5x00000021
 85.9375 550 l 5x0000002080
 85.9375 567.1875 l 5
 120.3125 567.1875 l 5x0000008080
 120.3125 550 l 5x0000010080
 154.6875 550 l 5x0000002088
 154.6875 515.625 l 5x0000008088
 189.0625 515.625 l 5x0000040004
 189.0625 532.8125 l 5x0000020004
 206.25 532.8125 l 5
 206.25 550 l 5x0000022002
 223.4375 550 l 5x0000022001
 223.4375 567.1875 l 5x0000001001
 240.625 567.1875 l 5x000000100080
 240.625 584.375 l 5x000000200080
 326.5625 584.375 l 5x000000400084
 326.5625 567.1875 l 5x000000100084
 343.75 567.1875 l 5x000000100001
 343.75 550 l 5x000000200001
 360.9375 550 l 5x00000020000080
 360.9375 567.1875 l 5x00000080000080
 378.125 567.1875 l 5x00000080000040
 378.125 584.375 l 5x00000040000040
 395.3125 584.375 l 5x00000040000010
 395.3125 601.5625 l 5
 464.0625 601.5625 l 5x00000010000011
 464.0625 584.375 l 5x00000040000011
 481.25 584.375 l 5x0000004000000080
 481.25 567.1875 l 5x0000001000000080
 498.4375 567.1875 l 5x00000010000001
 498.4375 550 l 5x00000020000001
 515.625 550 l 5
 515.625 309.375 l 5x0000002000000080
 498.4375 309.375 l 5
 498.4375 257.8125 l 5x00000020000001
 481.25 257.8125 l 5x00000020000002
 481.25 223.4375 l 5
 464.0625 223.4375 l 5x0000082000000480
 464.0625 171.875 l 5x00002000000008
 446.875 171.875 l 5
 446.875 154.6875 l 5x00002000000020
 429.6875 154.6875 l 5x00002000000010
 429.6875 120.3125 l 5x0000a000000040
 412.5 120.3125 l 5x0000a000000080
 412.5 103.125 l 5x00010000000080
 395.3125 103.125 l 5x000100000002
 395.3125 85.9375 l 5x000040000002
 378.125 85.9375 l 5x00004000000040
 378.125 68.75 l 5x00008000000040
 360.9375 68.75 l 5x00008000000080
 360.9375 51.5625 l 5
 412.5 51.5625 l 5x00010000000080
 412.5 34.375 l 5
 429.6875 34.375 l 5x00020000000084
 429.6875 -51.5625 l 5
 446.875 -51.5625 l 5x04020000000012
395.3125 -68.75 m 5x08800000000110
 395.3125 17.1875 l 5x08040000000110
 378.125 17.1875 l 5x08040000000040
 378.125 0 l 5
 360.9375 0 l 5x00100000000440
 360.9375 -17.1875 l 5x00200000000440
 360.9375 -34.375 l 5
 378.125 -34.375 l 5x00400000000440
 378.125 -51.5625 l 5
 378.125 -68.75 l 5
 395.3125 -68.75 l 5x08800000000110
137.5 326.5625 m 5x0000200010
 154.6875 326.5625 l 5
 154.6875 378.125 l 5
 137.5 378.125 l 5x0000200048
 137.5 343.75 l 5
 120.3125 343.75 l 5x0000200090
 120.3125 275 l 5
 103.125 275 l 5
 103.125 223.4375 l 5
 120.3125 223.4375 l 5
 120.3125 257.8125 l 5x0000200120
 137.5 257.8125 l 5
 137.5 326.5625 l 5x0000200010
240.625 292.1875 m 5x000010000240
 240.625 240.625 l 5
 257.8125 240.625 l 5
 257.8125 275 l 5x000010000240
 275 275 l 5
 275 309.375 l 5x000010000020
 292.1875 309.375 l 5
 292.1875 343.75 l 5x000010000010
 309.375 343.75 l 5
 309.375 378.125 l 5
 309.375 395.3125 l 5x000010000008
 326.5625 395.3125 l 5
 326.5625 412.5 l 5
 326.5625 446.875 l 5
 309.375 446.875 l 5
 309.375 412.5 l 5x000010000024
 309.375 395.3125 l 5
 292.1875 395.3125 l 5
 292.1875 378.125 l 5x000010000048
 292.1875 360.9375 l 5
 275 360.9375 l 5
 275 343.75 l 5x000010000090
 275 326.5625 l 5
 257.8125 326.5625 l 5
 257.8125 309.375 l 5x000010000120
 257.8125 292.1875 l 5
 240.625 292.1875 l 5x000010000240
326.5625 -137.5 m 5x800000000004
 326.5625 -120.3125 l 5x200000000004
 343.75 -120.3125 l 5x200000000001
 343.75 -103.125 l 5x100000000001
 360.9375 -103.125 l 5
 360.9375 -85.9375 l 5x11000000000080
 343.75 -85.9375 l 5x110000000001
 343.75 -51.5625 l 5x008000000001
 326.5625 -51.5625 l 5x008000000004
 326.5625 -17.1875 l 5x002000000004
 326.5625 17.1875 l 5x008000000004
 343.75 17.1875 l 5
 343.75 34.375 l 5x008200000001
 326.5625 34.375 l 5
 326.5625 17.1875 l 5x008200000004
 309.375 17.1875 l 5x000800000008
 309.375 0 l 5x001000000008
 292.1875 0 l 5x001000000010
 292.1875 -17.1875 l 5x002000000010
 275 -17.1875 l 5x002000000020
 275 -34.375 l 5
 257.8125 -34.375 l 5
 257.8125 -137.5 l 5
 275 -137.5 l 5x804000000120
 275 -154.6875 l 5x400000000120
 309.375 -154.6875 l 5x400000000008
 309.375 -137.5 l 5x800000000008
 326.5625 -137.5 l 5x800000000004
68.75 0 m 5x0010000480
 68.75 -34.375 l 5
 85.9375 -34.375 l 5x0110000480
 85.9375 -51.5625 l 5x0400000480
 103.125 -51.5625 l 5x0400000040
 103.125 -68.75 l 5x0200000040
 120.3125 -68.75 l 5
 120.3125 -51.5625 l 5x0280000020
 103.125 -51.5625 l 5
 103.125 -17.1875 l 5x0420000040
 85.9375 -17.1875 l 5x0420000080
 85.9375 0 l 5
 68.75 0 l 5x0010000480
360.9375 34.375 m 5x00020000000080
 360.9375 51.5625 l 5x00010000000080
 343.75 51.5625 l 5x000100000001
 343.75 34.375 l 5x000200000001
 360.9375 34.375 l 5x00020000000080
EndSplineSet
Validated: 524293
EndChar
StartChar: N
Encoding: 78 78 74
Width: 498
Flags: W
HStem: -137.5 51.5625<343.75 360.938> -137.5 34.375<360.938 395.312> -120.312 51.5625<326.562 343.75> -85.9375 51.5625<137.5 171.875> -85.9375 34.375<378.125 395.312> -68.75 51.5625<120.312 137.5> -51.5625 51.5625<446.875 464.062> -17.1875 51.5625<378.125 395.312 481.25 498.438> 0 34.375<0 68.75 395.312 412.5> 17.1875 34.375<120.312 154.688> 51.5625 51.5625<343.75 360.938> 68.75 51.5625<360.938 378.125> 189.062 34.375<189.062 206.25> 446.875 68.75<85.9375 103.125 378.125 395.312> 464.062 51.5625<171.875 189.062> 481.25 34.375<154.688 171.875> 498.438 34.375<120.312 137.5> 515.625 34.375<292.188 343.75>
VStem: 34.375 34.375<189.062 343.75> 51.5625 34.375<103.125 171.875 360.938 446.875> 68.75 34.375<51.5625 85.9375 464.062 481.25> 85.9375 51.5625<-34.375 -17.1875> 85.9375 34.375<-17.1875 0> 103.125 51.5625<515.625 532.812> 137.5 34.375<-85.9375 -68.75> 154.688 34.375<223.438 343.75> 171.875 51.5625<189.062 206.25> 171.875 34.375<-34.375 0 360.938 378.125> 189.062 51.5625<412.5 429.688> 206.25 34.375<223.438 240.625> 223.438 34.375<257.812 378.125> 240.625 51.5625<481.25 515.625> 292.188 34.375<-68.75 17.1875> 309.375 51.5625<-103.125 -85.9375 51.5625 68.75> 309.375 34.375<34.375 51.5625> 326.562 51.5625<68.75 85.9375> 343.75 51.5625<-17.1875 0 85.9375 103.125 498.438 515.625> 343.75 34.375<-51.5625 -17.1875> 360.938 51.5625<103.125 120.312 481.25 498.438> 378.125 34.375<120.312 137.5 464.062 481.25> 395.312 34.375<154.688 223.438 395.312 446.875> 412.5 51.5625<-51.5625 -34.375> 412.5 34.375<240.625 378.125> 464.062 34.375<0 34.375>
LayerCount: 2
Fore
SplineSet
103.125 -51.5625 m 1x020801
 103.125 -34.375 l 1x100801
 85.9375 -34.375 l 1x100804
 85.9375 0 l 1x108802
 0 0 l 1
 0 34.375 l 1
 68.75 34.375 l 1
 68.75 85.9375 l 1x108808
 51.5625 85.9375 l 1
 51.5625 171.875 l 1x108810
 34.375 171.875 l 1
 34.375 343.75 l 1
 34.375 360.9375 l 1x108820
 51.5625 360.9375 l 1
 51.5625 378.125 l 1
 51.5625 429.6875 l 1
 51.5625 464.0625 l 1x108a10
 68.75 464.0625 l 1x108a08
 68.75 498.4375 l 1x000888
 85.9375 498.4375 l 1x000882
 85.9375 515.625 l 1x000c02
 103.125 515.625 l 1x000c01
 103.125 532.8125 l 1
 154.6875 532.8125 l 1x000881
 154.6875 515.625 l 1x000901
 189.0625 515.625 l 1x000a0108
 189.0625 498.4375 l 1x00088108
 206.25 498.4375 l 1x00088004
 206.25 481.25 l 1x00090004
 240.625 481.25 l 1x00090001
 240.625 498.4375 l 1x00088001
 240.625 515.625 l 1x00084001
 257.8125 515.625 l 1x00084002
 257.8125 532.8125 l 1
 275 532.8125 l 1x00088002
 275 550 l 1
 292.1875 550 l 1
 360.9375 550 l 1x0008400282
 360.9375 532.8125 l 1x0008800282
 378.125 532.8125 l 1x0008800001
 378.125 515.625 l 1x000c000001
 395.3125 515.625 l 1x000c000008
 395.3125 498.4375 l 1x0008800008
 412.5 498.4375 l 1x0008800002
 412.5 464.0625 l 1x000a000001
 429.6875 464.0625 l 1
 429.6875 395.3125 l 1x000a00000080
 446.875 395.3125 l 1
 446.875 326.5625 l 1
 446.875 223.4375 l 1x000a00000020
 429.6875 223.4375 l 1
 429.6875 137.5 l 1x000a00000080
 412.5 137.5 l 1x000a000001
 412.5 103.125 l 1x002a000002
 395.3125 103.125 l 1
 395.3125 85.9375 l 1x002a000008
 378.125 85.9375 l 1
 378.125 68.75 l 1x0018000010
 360.9375 68.75 l 1x0018000040
 360.9375 51.5625 l 1x0028000040
 343.75 51.5625 l 1x0028000020
 343.75 17.1875 l 1
 326.5625 17.1875 l 1
 326.5625 -68.75 l 1
 343.75 -68.75 l 1x2048000084
 343.75 -85.9375 l 1x8008000084
 360.9375 -85.9375 l 1x8008000040
 360.9375 -103.125 l 1
 395.3125 -103.125 l 1
 395.3125 -85.9375 l 1x480800004080
 360.9375 -85.9375 l 1x800800004080
 360.9375 -68.75 l 1x8408000002
 343.75 -68.75 l 1x2008000004
 343.75 0 l 1x2088000008
 360.9375 0 l 1x2088000002
 360.9375 17.1875 l 1x0048000002
 378.125 17.1875 l 1x0048000001
 378.125 34.375 l 1x0108000001
 429.6875 34.375 l 1x008800000080
 429.6875 17.1875 l 1x004800000080
 446.875 17.1875 l 1
 446.875 0 l 1
 464.0625 0 l 1x024800000030
 464.0625 34.375 l 1x008800000030
 498.4375 34.375 l 1
 498.4375 -17.1875 l 1x010800000030
 481.25 -17.1875 l 1
 481.25 -34.375 l 1
 464.0625 -34.375 l 1x110800000040
 464.0625 -51.5625 l 1x020800000040
 446.875 -51.5625 l 1
 446.875 -103.125 l 1x420800000020
 429.6875 -103.125 l 1x420800000080
 429.6875 -120.3125 l 1x200800000080
 412.5 -120.3125 l 1x200800000020
 412.5 -137.5 l 1x400800000020
 343.75 -137.5 l 1x800800000420
 343.75 -120.3125 l 1x200800000420
 326.5625 -120.3125 l 1x2008000010
 326.5625 -103.125 l 1x4008000010
 309.375 -103.125 l 1
 309.375 -85.9375 l 1x4808000040
 292.1875 -85.9375 l 1
 292.1875 34.375 l 1x4888000080
 309.375 34.375 l 1x4888000020
 309.375 68.75 l 1x4898000040
 326.5625 68.75 l 1
 326.5625 85.9375 l 1x4898000010
 343.75 85.9375 l 1
 343.75 103.125 l 1x0028000008
 360.9375 103.125 l 1x0028000002
 360.9375 120.3125 l 1x0018000002
 378.125 120.3125 l 1
 378.125 154.6875 l 1x0018000001
 395.3125 154.6875 l 1
 395.3125 240.625 l 1x001800000080
 412.5 240.625 l 1
 412.5 378.125 l 1x001800000020
 395.3125 378.125 l 1
 395.3125 446.875 l 1x001c00000080
 378.125 446.875 l 1x001c000001
 378.125 481.25 l 1x0009000001
 360.9375 481.25 l 1x0009000002
 360.9375 498.4375 l 1x0008800002
 343.75 498.4375 l 1x0008800008
 343.75 515.625 l 1
 292.1875 515.625 l 1x0008400108
 292.1875 481.25 l 1
 275 481.25 l 1x0009000108
 275 464.0625 l 1
 257.8125 464.0625 l 1
 257.8125 429.6875 l 1x000a0002
 240.625 429.6875 l 1x000a0008
 240.625 395.3125 l 1x000a0001
 257.8125 395.3125 l 1
 257.8125 257.8125 l 1
 257.8125 240.625 l 1x000a0002
 240.625 240.625 l 1
 240.625 223.4375 l 1x000a0004
 240.625 206.25 l 1
 223.4375 206.25 l 1
 223.4375 189.0625 l 1
 171.875 189.0625 l 1
 171.875 206.25 l 1x000a0021
 154.6875 206.25 l 1
 154.6875 360.9375 l 1x000a0040
 171.875 360.9375 l 1
 171.875 412.5 l 1x000a0010
 189.0625 412.5 l 1
 189.0625 464.0625 l 1x000a0008
 171.875 464.0625 l 1x000a0010
 171.875 481.25 l 1x00090010
 137.5 481.25 l 1x00090080
 137.5 498.4375 l 1
 120.3125 498.4375 l 1x00088280
 120.3125 481.25 l 1x00090280
 103.125 481.25 l 1x000908
 103.125 446.875 l 1
 85.9375 446.875 l 1x000c11
 85.9375 343.75 l 1
 68.75 343.75 l 1
 68.75 189.0625 l 1
 85.9375 189.0625 l 1x000c22
 85.9375 103.125 l 1
 103.125 103.125 l 1x002c11
 103.125 51.5625 l 1
 171.875 51.5625 l 1
 171.875 34.375 l 1x00ac0810
 189.0625 34.375 l 1x00ac0008
 189.0625 17.1875 l 1x00480008
 206.25 17.1875 l 1
 206.25 -51.5625 l 1x02480004
 189.0625 -51.5625 l 1x02480008
 189.0625 -68.75 l 1
 171.875 -68.75 l 1x04080088
 171.875 -85.9375 l 1
 137.5 -85.9375 l 1x10080088
 137.5 -68.75 l 1
 120.3125 -68.75 l 1x04080288
 120.3125 -51.5625 l 1x02080288
 103.125 -51.5625 l 1x020801
206.25 343.75 m 1x00080004
 189.0625 343.75 l 1
 189.0625 240.625 l 1
 189.0625 223.4375 l 1
 206.25 223.4375 l 1
 206.25 240.625 l 1
 206.25 257.8125 l 1x00080044
 223.4375 257.8125 l 1
 223.4375 275 l 1
 223.4375 343.75 l 1
 223.4375 378.125 l 1
 206.25 378.125 l 1x00080012
 206.25 343.75 l 1x00080004
120.3125 -17.1875 m 1x04880280
 137.5 -17.1875 l 1x048804
 137.5 -34.375 l 1
 154.6875 -34.375 l 1x10080440
 171.875 -34.375 l 1
 171.875 -17.1875 l 1x11080010
 171.875 0 l 1x00880010
 154.6875 0 l 1x00880040
 154.6875 17.1875 l 1x00480040
 137.5 17.1875 l 1
 120.3125 17.1875 l 1x00480280
 120.3125 0 l 1
 120.3125 -17.1875 l 1x04880280
412.5 0 m 1x008800000020
 395.3125 0 l 1x008800000820
 395.3125 -17.1875 l 1x010800000820
 378.125 -17.1875 l 1
 378.125 -51.5625 l 1x0908000004
 412.5 -51.5625 l 1x020800000440
 412.5 0 l 1x008800000020
EndSplineSet
Validated: 524293
EndChar
StartChar: O
Encoding: 79 79 75
Width: 516
Flags: W
HStem: -137.5 34.375<206.25 292.188> -120.312 51.5625<171.875 189.062 343.75 360.938> -120.312 34.375<309.375 343.75> -103.125 51.5625<154.688 171.875 360.938 378.125> -85.9375 51.5625<395.312 412.5> -85.9375 34.375<378.125 395.312> -17.1875 34.375<17.1875 34.375> 0 34.375<0 17.1875> 34.375 34.375<360.938 412.5> 51.5625 51.5625<154.688 171.875 326.562 343.75 429.688 446.875> 51.5625 34.375<171.875 189.062> 68.75 85.9375<206.25 223.438 309.375 326.562> 85.9375 34.375<498.438 515.625> 120.312 51.5625<68.75 85.9375> 154.688 68.75<154.688 171.875 257.812 275> 154.688 51.5625<137.5 154.688> 171.875 34.375<498.438 515.625> 189.062 51.5625<223.438 240.625> 206.25 34.375<189.062 223.438> 343.75 51.5625<429.688 446.875> 360.938 51.5625<120.312 137.5 412.5 429.688> 378.125 51.5625<137.5 154.688 395.312 412.5> 395.312 51.5625<154.688 171.875 378.125 395.312> 412.5 51.5625<171.875 189.062 360.938 378.125> 429.688 34.375<343.75 360.938> 446.875 34.375<206.25 326.562>
VStem: 0 17.1875<17.1875 34.375> 17.1875 34.375<51.5625 85.9375> 34.375 51.5625<120.312 137.5> 34.375 34.375<17.1875 34.375 103.125 120.312> 68.75 34.375<223.438 309.375> 85.9375 34.375<34.375 85.9375 326.562 360.938> 103.125 51.5625<-51.5625 -17.1875 103.125 137.5 378.125 395.312> 103.125 34.375<-17.1875 17.1875> 120.312 51.5625<-68.75 -51.5625 395.312 412.5> 137.5 51.5625<412.5 429.688> 154.688 51.5625<51.5625 68.75 429.688 446.875> 171.875 51.5625<137.5 154.688> 189.062 34.375<85.9375 137.5> 257.812 51.5625<154.688 171.875> 275 51.5625<103.125 154.688> 292.188 51.5625<85.9375 103.125> 309.375 51.5625<68.75 85.9375> 360.938 51.5625<412.5 429.688> 378.125 51.5625<395.312 412.5> 395.312 51.5625<-51.5625 -34.375 378.125 395.312> 412.5 34.375<-34.375 -17.1875> 429.688 34.375<0 17.1875> 446.875 34.375<34.375 51.5625 309.375 343.75> 464.062 51.5625<171.875 206.25> 464.062 34.375<120.312 171.875 206.25 292.188>
LayerCount: 2
Fore
SplineSet
498.4375 51.5625 m 5x00200000000020
 481.25 51.5625 l 5
 481.25 17.1875 l 5x02200000000080
 464.0625 17.1875 l 5x022000000001
 464.0625 -17.1875 l 5
 446.875 -17.1875 l 5x02200000000220
 446.875 -34.375 l 5x0a2000000004
 446.875 -51.5625 l 5x040000000004
 429.6875 -51.5625 l 5x040000000001
 429.6875 -68.75 l 5x400000000001
 412.5 -68.75 l 5x400000000002
 412.5 -85.9375 l 5x080000000002
 395.3125 -85.9375 l 5x080000000004
 378.125 -85.9375 l 5x040000000008
 378.125 -103.125 l 5x100000000008
 360.9375 -103.125 l 5x100000000010
 360.9375 -120.3125 l 5
 343.75 -120.3125 l 5x400000000050
 326.5625 -120.3125 l 5x200000000080
 309.375 -120.3125 l 5x200000000020
 309.375 -137.5 l 5x800000000020
 292.1875 -137.5 l 5
 189.0625 -137.5 l 5x800000000240
 189.0625 -120.3125 l 5x400000000240
 171.875 -120.3125 l 5x4000000004
 171.875 -103.125 l 5x1000000004
 137.5 -103.125 l 5x1000000010
 137.5 -85.9375 l 5x0400000010
 120.3125 -85.9375 l 5
 120.3125 -51.5625 l 5x0400000020
 103.125 -51.5625 l 5x0400000080
 103.125 17.1875 l 5x0600000040
 85.9375 17.1875 l 5
 85.9375 103.125 l 5x06400001
 103.125 103.125 l 5
 103.125 137.5 l 5
 85.9375 137.5 l 5
 85.9375 120.3125 l 5x0644000880
 68.75 120.3125 l 5
 68.75 103.125 l 5x06440004
 68.75 85.9375 l 5
 51.5625 85.9375 l 5x00080012
 51.5625 68.75 l 5x00100012
 51.5625 51.5625 l 5
 68.75 51.5625 l 5x00200012
 68.75 34.375 l 5x00800004
 68.75 -17.1875 l 5
 17.1875 -17.1875 l 5x02800012
 17.1875 0 l 5x01000012
 0 0 l 5
 0 34.375 l 5
 17.1875 34.375 l 5x01000020
 17.1875 17.1875 l 5
 34.375 17.1875 l 5
 34.375 34.375 l 5x02800024
 17.1875 34.375 l 5x01000024
 17.1875 85.9375 l 5x01080010
 17.1875 103.125 l 5x00400010
 34.375 103.125 l 5x00400004
 34.375 120.3125 l 5
 34.375 137.5 l 5x00440008
 51.5625 137.5 l 5
 51.5625 154.6875 l 5
 68.75 154.6875 l 5x00010012
 68.75 171.875 l 5x00040012
 85.9375 171.875 l 5
 85.9375 206.25 l 5x00042001
 68.75 206.25 l 5
 68.75 240.625 l 5
 68.75 326.5625 l 5x00042002
 85.9375 326.5625 l 5
 85.9375 378.125 l 5x00042401
 103.125 378.125 l 5x0004240080
 103.125 395.3125 l 5x0000020080
 120.3125 395.3125 l 5x0000020020
 120.3125 412.5 l 5x0000080020
 137.5 412.5 l 5x0000080010
 137.5 429.6875 l 5x0000040010
 154.6875 429.6875 l 5x0000040008
 154.6875 446.875 l 5x0000020008
 171.875 446.875 l 5x0000020004
 171.875 464.0625 l 5x0000010004
 189.0625 464.0625 l 5x0000010002
 189.0625 481.25 l 5
 240.625 481.25 l 5
 343.75 481.25 l 5x000000400240
 343.75 464.0625 l 5x000000800240
 378.125 464.0625 l 5x000001000248
 378.125 446.875 l 5x000002000248
 395.3125 446.875 l 5x000002000004
 395.3125 429.6875 l 5x000004000004
 412.5 429.6875 l 5x000004000010
 412.5 412.5 l 5x000008000010
 429.6875 412.5 l 5x000008000008
 429.6875 395.3125 l 5x000010000008
 446.875 395.3125 l 5x000010000004
 446.875 378.125 l 5
 464.0625 378.125 l 5x00000400000420
 464.0625 360.9375 l 5x00000800000420
 481.25 360.9375 l 5
 481.25 309.375 l 5x00000800000080
 498.4375 309.375 l 5
 498.4375 206.25 l 5x00008800000020
 515.625 206.25 l 5
 515.625 171.875 l 5x00008800000040
 498.4375 171.875 l 5
 498.4375 120.3125 l 5x00088800000020
 515.625 120.3125 l 5
 515.625 85.9375 l 5x00088800000040
 498.4375 85.9375 l 5x00088800000020
 498.4375 51.5625 l 5x00200000000020
446.875 343.75 m 5x00005000000080
 429.6875 343.75 l 5x000050000001
 429.6875 360.9375 l 5x000008000001
 412.5 360.9375 l 5x000008000002
 412.5 378.125 l 5x000004000002
 395.3125 378.125 l 5x000004000004
 395.3125 395.3125 l 5x000002000004
 378.125 395.3125 l 5x000002000008
 378.125 412.5 l 5x000001000008
 360.9375 412.5 l 5x000001000010
 360.9375 429.6875 l 5
 343.75 429.6875 l 5x000000800050
 326.5625 429.6875 l 5x000000800080
 326.5625 446.875 l 5x000000400080
 309.375 446.875 l 5x000000400020
 292.1875 446.875 l 5
 206.25 446.875 l 5x000000400840
 206.25 429.6875 l 5x000000800840
 189.0625 429.6875 l 5x0000008010
 189.0625 412.5 l 5x0000010010
 171.875 412.5 l 5x0000010020
 171.875 395.3125 l 5x0000020020
 154.6875 395.3125 l 5x0000020080
 154.6875 378.125 l 5x0000040080
 137.5 378.125 l 5x0000040010
 137.5 360.9375 l 5
 120.3125 360.9375 l 5x0000080110
 120.3125 309.375 l 5
 103.125 309.375 l 5
 103.125 275 l 5
 103.125 223.4375 l 5
 120.3125 223.4375 l 5x0002080220
 120.3125 206.25 l 5x0000200220
 137.5 206.25 l 5x0001000010
 154.6875 206.25 l 5x0001000008
 154.6875 223.4375 l 5x0002000008
 171.875 223.4375 l 5x0002000004
 171.875 240.625 l 5x0000200004
 206.25 240.625 l 5x0000200008
 240.625 240.625 l 5x0000400008
 257.8125 240.625 l 5x0000200009
 257.8125 223.4375 l 5x0002000009
 275 223.4375 l 5x000200000080
 275 206.25 l 5x000020000080
 292.1875 206.25 l 5x000020000040
 292.1875 189.0625 l 5x000040000040
 309.375 189.0625 l 5x000040000020
 309.375 154.6875 l 5x0010400001
 326.5625 154.6875 l 5x001040000080
 326.5625 103.125 l 5x004000000080
 343.75 103.125 l 5x004000000040
 343.75 85.9375 l 5x000800000040
 360.9375 85.9375 l 5
 360.9375 68.75 l 5
 395.3125 68.75 l 5x008800000024
 412.5 68.75 l 5
 412.5 85.9375 l 5x008800000002
 429.6875 85.9375 l 5x008800000001
 429.6875 103.125 l 5x004000000001
 446.875 103.125 l 5
 446.875 120.3125 l 5x00440000000080
 464.0625 120.3125 l 5x00440000000020
 464.0625 154.6875 l 5x00010000000020
 464.0625 189.0625 l 5x00004000000040
 464.0625 292.1875 l 5x00004000000020
 446.875 292.1875 l 5
 446.875 343.75 l 5x00005000000080
223.4375 189.0625 m 5x0000400003
 223.4375 206.25 l 5
 189.0625 206.25 l 5x0000200003
 189.0625 171.875 l 5x0000800003
 206.25 171.875 l 5
 206.25 154.6875 l 5x0010800008
 223.4375 154.6875 l 5x0010800004
 223.4375 68.75 l 5x0010800002
 206.25 68.75 l 5x0010800008
 206.25 51.5625 l 5x0020000008
 154.6875 51.5625 l 5x0040000008
 154.6875 68.75 l 5x0010000008
 137.5 68.75 l 5x0010000010
 137.5 85.9375 l 5
 120.3125 85.9375 l 5
 120.3125 34.375 l 5
 137.5 34.375 l 5x0088000110
 137.5 -17.1875 l 5x0288000040
 154.6875 -17.1875 l 5
 154.6875 -51.5625 l 5x1288000080
 171.875 -51.5625 l 5x1288000020
 171.875 -68.75 l 5
 189.0625 -68.75 l 5x4000000022
 189.0625 -85.9375 l 5x0400000022
 206.25 -85.9375 l 5
 206.25 -103.125 l 5
 292.1875 -103.125 l 5
 292.1875 -85.9375 l 5x840000000840
 343.75 -85.9375 l 5x200000000840
 343.75 -68.75 l 5
 360.9375 -68.75 l 5x400000000850
 360.9375 -51.5625 l 5x100000000850
 378.125 -51.5625 l 5x100000000008
 395.3125 -51.5625 l 5x040000000004
 395.3125 -34.375 l 5x080000000004
 412.5 -34.375 l 5
 412.5 0 l 5x090000000002
 429.6875 0 l 5x090000000001
 429.6875 34.375 l 5x008000000001
 446.875 34.375 l 5x00800000000080
 446.875 51.5625 l 5x00400000000080
 429.6875 51.5625 l 5x004000000001
 429.6875 34.375 l 5
 343.75 34.375 l 5x008000000041
 343.75 51.5625 l 5x004000000041
 326.5625 51.5625 l 5x004000000080
 326.5625 68.75 l 5x001000000080
 309.375 68.75 l 5x001000000020
 309.375 85.9375 l 5x000800000020
 292.1875 85.9375 l 5x000800000040
 292.1875 103.125 l 5x004000000040
 275 103.125 l 5
 275 154.6875 l 5x004200000080
 257.8125 154.6875 l 5x0042000001
 257.8125 171.875 l 5
 240.625 171.875 l 5x0000800001
 240.625 189.0625 l 5
 223.4375 189.0625 l 5x0000400003
171.875 154.6875 m 5x0022000004
 137.5 154.6875 l 5
 137.5 137.5 l 5x0001000010
 154.6875 137.5 l 5
 154.6875 103.125 l 5
 171.875 103.125 l 5x0041000084
 171.875 85.9375 l 5x0020000084
 189.0625 85.9375 l 5
 189.0625 137.5 l 5x0020000002
 171.875 137.5 l 5
 171.875 154.6875 l 5x0022000004
EndSplineSet
Validated: 524293
EndChar
StartChar: P
Encoding: 80 80 76
Width: 430
Flags: W
HStem: -34.375 51.5625<326.562 343.75> -17.1875 34.375<343.75 360.938> 0 34.375<378.125 429.688> 17.1875 51.5625<17.1875 34.375> 17.1875 34.375<0 17.1875> 34.375 51.5625<34.375 51.5625> 154.688 85.9375<120.312 137.5 206.25 223.438> 189.062 85.9375<137.5 154.688 223.438 240.625> 309.375 51.5625<292.188 309.375> 326.562 51.5625<309.375 326.562 360.938 378.125> 343.75 51.5625<326.562 360.938> 429.688 51.5625<223.438 240.625> 515.625 51.5625<154.688 189.062>
VStem: 0 51.5625<34.375 51.5625> 0 34.375<17.1875 34.375> 17.1875 51.5625<51.5625 68.75> 34.375 51.5625<-223.438 -206.25 68.75 85.9375> 51.5625 51.5625<-154.688 -120.312 103.125 120.312> 51.5625 34.375<85.9375 103.125> 68.75 51.5625<-120.312 -68.75 120.312 137.5> 85.9375 34.375<137.5 154.688> 103.125 34.375<-17.1875 0 171.875 189.062> 120.312 34.375<17.1875 34.375 429.688 515.625> 137.5 34.375<378.125 412.5> 154.688 51.5625<275 343.75> 154.688 34.375<550 567.188> 189.062 34.375<378.125 429.688 481.25 515.625> 206.25 34.375<446.875 464.062> 223.438 51.5625<257.812 275> 223.438 34.375<240.625 257.812> 240.625 51.5625<275 292.188> 257.812 51.5625<309.375 326.562> 257.812 34.375<292.188 309.375> 275 51.5625<326.562 343.75> 292.188 34.375<17.1875 34.375> 309.375 34.375<-34.375 -17.1875 51.5625 68.75> 326.562 34.375<85.9375 103.125 378.125 395.312> 343.75 34.375<120.312 137.5> 360.938 34.375<154.688 189.062> 378.125 34.375<206.25 326.562>
LayerCount: 2
Fore
SplineSet
85.9375 -17.1875 m 5x401808
 103.125 -17.1875 l 5x401804
 103.125 17.1875 l 5x081804
 120.3125 17.1875 l 5x081802
 120.3125 85.9375 l 5x041802
 137.5 85.9375 l 5
 137.5 154.6875 l 5
 120.3125 154.6875 l 5x061809
 120.3125 120.3125 l 5x061810
 103.125 120.3125 l 5
 103.125 103.125 l 5x061840
 85.9375 103.125 l 5x061820
 85.9375 68.75 l 5x121880
 68.75 68.75 l 5x1219
 68.75 51.5625 l 5x0819
 51.5625 51.5625 l 5x081c
 51.5625 34.375 l 5x041c
 34.375 34.375 l 5x041a
 34.375 17.1875 l 5x101a
 0 17.1875 l 5x081a
 0 51.5625 l 5x081c
 17.1875 51.5625 l 5x0819
 17.1875 68.75 l 5x1019
 34.375 68.75 l 5x101880
 34.375 85.9375 l 5x041880
 51.5625 85.9375 l 5x041820
 51.5625 120.3125 l 5x041840
 68.75 120.3125 l 5
 68.75 137.5 l 5x041810
 85.9375 137.5 l 5
 85.9375 171.875 l 5x041808
 103.125 171.875 l 5
 103.125 206.25 l 5
 103.125 223.4375 l 5x041804
 120.3125 223.4375 l 5
 120.3125 240.625 l 5x061802
 137.5 240.625 l 5x061801
 137.5 275 l 5x011801
 154.6875 275 l 5
 154.6875 343.75 l 5x01380080
 137.5 343.75 l 5
 137.5 412.5 l 5x013801
 120.3125 412.5 l 5
 120.3125 532.8125 l 5x013802
 137.5 532.8125 l 5
 137.5 550 l 5x013801
 154.6875 550 l 5
 154.6875 567.1875 l 5
 189.0625 567.1875 l 5
 189.0625 550 l 5
 206.25 550 l 5
 206.25 532.8125 l 5x01380050
 223.4375 532.8125 l 5x01380004
 223.4375 481.25 l 5
 240.625 481.25 l 5
 240.625 429.6875 l 5
 223.4375 429.6875 l 5x01380022
 223.4375 360.9375 l 5x00980004
 206.25 360.9375 l 5
 206.25 257.8125 l 5
 206.25 240.625 l 5x02980010
 223.4375 240.625 l 5x02980004
 223.4375 257.8125 l 5
 223.4375 275 l 5x01180008
 240.625 275 l 5
 240.625 292.1875 l 5x01180002
 257.8125 292.1875 l 5x0118000080
 257.8125 326.5625 l 5x01580001
 275 326.5625 l 5x0158000040
 275 343.75 l 5x0038000040
 292.1875 343.75 l 5x0038000020
 292.1875 360.9375 l 5x0098000020
 309.375 360.9375 l 5x0098000010
 309.375 378.125 l 5x0058000010
 326.5625 378.125 l 5x0058000008
 326.5625 395.3125 l 5
 360.9375 395.3125 l 5x0038000008
 360.9375 378.125 l 5
 378.125 378.125 l 5x0058000009
 378.125 360.9375 l 5x0098000009
 395.3125 360.9375 l 5x0098000002
 395.3125 343.75 l 5x0038000002
 412.5 343.75 l 5
 412.5 257.8125 l 5
 412.5 189.0625 l 5x0138000001
 395.3125 189.0625 l 5
 395.3125 137.5 l 5x0138000002
 378.125 137.5 l 5x0138000004
 378.125 103.125 l 5
 360.9375 103.125 l 5x0138000009
 360.9375 68.75 l 5
 343.75 68.75 l 5x1138000012
 343.75 34.375 l 5
 326.5625 34.375 l 5
 326.5625 17.1875 l 5x8418000024
 360.9375 17.1875 l 5
 360.9375 34.375 l 5x4418000022
 429.6875 34.375 l 5x2018000022
 429.6875 17.1875 l 5x0818000022
 429.6875 0 l 5
 378.125 0 l 5x2018000001
 378.125 -17.1875 l 5
 343.75 -17.1875 l 5x4018000011
 343.75 -34.375 l 5
 309.375 -34.375 l 5x8018000011
 309.375 -17.1875 l 5x4018000011
 292.1875 -17.1875 l 5x4018000020
 292.1875 0 l 5x2018000020
 292.1875 51.5625 l 5x0818000020
 309.375 51.5625 l 5x0818000010
 309.375 85.9375 l 5x0418000010
 326.5625 85.9375 l 5
 326.5625 120.3125 l 5x0418000008
 343.75 120.3125 l 5
 343.75 154.6875 l 5x0618000004
 360.9375 154.6875 l 5x0618000002
 360.9375 189.0625 l 5
 360.9375 206.25 l 5x0118000002
 378.125 206.25 l 5
 378.125 223.4375 l 5
 378.125 326.5625 l 5x0158000001
 360.9375 326.5625 l 5x0158000002
 360.9375 343.75 l 5
 326.5625 343.75 l 5x0038000042
 326.5625 326.5625 l 5x0058000042
 309.375 326.5625 l 5x00580001
 309.375 309.375 l 5x00980001
 292.1875 309.375 l 5x0098000080
 292.1875 275 l 5x01980002
 275 275 l 5
 275 257.8125 l 5x01980008
 257.8125 257.8125 l 5x01980004
 257.8125 223.4375 l 5x0198000080
 240.625 223.4375 l 5
 240.625 189.0625 l 5x01980002
 223.4375 189.0625 l 5x01980004
 223.4375 154.6875 l 5x02180004
 206.25 154.6875 l 5
 206.25 120.3125 l 5x02180010
 189.0625 120.3125 l 5
 189.0625 68.75 l 5
 171.875 68.75 l 5x12180120
 171.875 34.375 l 5x04180120
 154.6875 34.375 l 5x041802
 154.6875 0 l 5
 137.5 0 l 5x20180440
 137.5 -68.75 l 5
 120.3125 -68.75 l 5
 120.3125 -120.3125 l 5x201811
 103.125 -120.3125 l 5x201840
 103.125 -206.25 l 5
 85.9375 -206.25 l 5
 85.9375 -223.4375 l 5x201884
 51.5625 -223.4375 l 5x201820
 34.375 -223.4375 l 5
 34.375 -154.6875 l 5x201880
 51.5625 -154.6875 l 5
 51.5625 -120.3125 l 5x201840
 68.75 -120.3125 l 5
 68.75 -68.75 l 5x201810
 85.9375 -68.75 l 5
 85.9375 -17.1875 l 5x401808
137.5 171.875 m 5
 137.5 154.6875 l 5x021801
 154.6875 154.6875 l 5x02180040
 154.6875 171.875 l 5
 154.6875 189.0625 l 5
 137.5 189.0625 l 5x01180440
 137.5 171.875 l 5
189.0625 515.625 m 5x00580020
 154.6875 515.625 l 5
 154.6875 429.6875 l 5x00580220
 171.875 429.6875 l 5
 171.875 378.125 l 5
 189.0625 378.125 l 5
 189.0625 446.875 l 5x00580120
 206.25 446.875 l 5
 206.25 464.0625 l 5x00580010
 189.0625 464.0625 l 5
 189.0625 515.625 l 5x00580020
EndSplineSet
Validated: 524293
EndChar
StartChar: Q
Encoding: 81 81 77
Width: 498
Flags: W
HStem: -257.812 34.375<154.688 171.875> -51.5625 51.5625<343.75 378.125> -34.375 34.375<378.125 395.312> -17.1875 34.375<137.5 171.875> 0 34.375<0 17.1875 481.25 498.438> 17.1875 51.5625<34.375 51.5625> 17.1875 34.375<446.875 464.062> 68.75 34.375<360.938 378.125> 378.125 51.5625<137.5 154.688> 395.312 51.5625<154.688 171.875> 412.5 51.5625<171.875 189.062> 429.688 51.5625<189.062 206.25> 446.875 51.5625<206.25 223.438 360.938 378.125> 464.062 34.375<223.438 240.625> 481.25 51.5625<292.188 326.562> 481.25 34.375<257.812 292.188 326.562 343.75>
VStem: 0 34.375<0 17.1875> 51.5625 34.375<85.9375 257.812> 68.75 34.375<275 309.375> 85.9375 34.375<326.562 343.75> 103.125 51.5625<378.125 395.312> 103.125 34.375<360.938 378.125> 120.312 51.5625<395.312 412.5> 137.5 51.5625<412.5 429.688> 154.688 34.375<-257.812 -240.625> 171.875 51.5625<-206.25 -171.875 446.875 464.062> 171.875 34.375<-223.438 -206.25> 189.062 51.5625<-171.875 -137.5> 206.25 51.5625<-120.312 -103.125> 223.438 51.5625<-85.9375 -68.75> 240.625 51.5625<-51.5625 -34.375> 240.625 34.375<-68.75 -51.5625> 257.812 51.5625<-34.375 -17.1875> 292.188 34.375<515.625 532.812> 309.375 51.5625<120.312 137.5> 343.75 51.5625<171.875 189.062 464.062 481.25> 343.75 34.375<-51.5625 -34.375> 360.938 68.75<223.438 257.812> 360.938 51.5625<206.25 223.438 446.875 464.062> 378.125 34.375<429.688 446.875> 395.312 51.5625<0 17.1875> 429.688 51.5625<34.375 51.5625> 429.688 34.375<429.688 446.875> 464.062 34.375<0 17.1875>
LayerCount: 2
Fore
SplineSet
275 17.1875 m 5x82008001
 257.8125 17.1875 l 5x8200800080
 257.8125 0 l 5x8800800080
 223.4375 0 l 5x88008004
 223.4375 -17.1875 l 5
 85.9375 -17.1875 l 5x90009004
 85.9375 0 l 5x88009004
 68.75 0 l 5x8800a0
 68.75 17.1875 l 5x8200a0
 34.375 17.1875 l 5x8400a0
 34.375 0 l 5
 0 0 l 5
 0 34.375 l 5
 17.1875 34.375 l 5x8800a0
 17.1875 51.5625 l 5
 34.375 51.5625 l 5x8200a0
 34.375 68.75 l 5
 51.5625 68.75 l 5
 51.5625 240.625 l 5
 51.5625 275 l 5x8400c0
 68.75 275 l 5
 68.75 326.5625 l 5x8400a0
 85.9375 326.5625 l 5
 85.9375 360.9375 l 5x840090
 103.125 360.9375 l 5x840084
 103.125 395.3125 l 5x844088
 120.3125 395.3125 l 5x844082
 120.3125 412.5 l 5x802082
 137.5 412.5 l 5x802081
 137.5 429.6875 l 5x808081
 154.6875 429.6875 l 5x80808080
 154.6875 446.875 l 5x80408080
 171.875 446.875 l 5x80408040
 171.875 464.0625 l 5x80208040
 189.0625 464.0625 l 5x80208010
 189.0625 481.25 l 5x80108010
 206.25 481.25 l 5x80108008
 206.25 498.4375 l 5x80088008
 240.625 498.4375 l 5x80048001
 240.625 515.625 l 5
 292.1875 515.625 l 5x8001800140
 292.1875 532.8125 l 5
 326.5625 532.8125 l 5x8002800140
 326.5625 515.625 l 5
 360.9375 515.625 l 5x8001800142
 360.9375 498.4375 l 5x8008800142
 378.125 498.4375 l 5x8008800001
 378.125 481.25 l 5x8001800001
 395.3125 481.25 l 5x8001800010
 395.3125 464.0625 l 5x8004800010
 412.5 464.0625 l 5x8004800002
 412.5 429.6875 l 5
 429.6875 429.6875 l 5x801080000120
 429.6875 446.875 l 5
 464.0625 446.875 l 5x800880000120
 464.0625 429.6875 l 5x801080000120
 481.25 429.6875 l 5x801080000040
 481.25 412.5 l 5
 481.25 360.9375 l 5x802080000040
 464.0625 360.9375 l 5
 464.0625 292.1875 l 5
 446.875 292.1875 l 5
 446.875 257.8125 l 5x802080000090
 429.6875 257.8125 l 5
 429.6875 223.4375 l 5x8020800004
 412.5 223.4375 l 5x8020800002
 412.5 189.0625 l 5x8020800001
 395.3125 189.0625 l 5x8020800010
 395.3125 154.6875 l 5x802080000080
 378.125 154.6875 l 5
 378.125 137.5 l 5
 360.9375 137.5 l 5
 360.9375 120.3125 l 5x8020800021
 360.9375 103.125 l 5x8120800002
 378.125 103.125 l 5
 378.125 85.9375 l 5
 378.125 68.75 l 5x8120800001
 360.9375 68.75 l 5
 360.9375 51.5625 l 5x8320800002
 360.9375 34.375 l 5x8800800002
 343.75 34.375 l 5x8800800008
 343.75 17.1875 l 5
 343.75 0 l 5xc200800008
 395.3125 0 l 5
 395.3125 17.1875 l 5xa20080000880
 412.5 17.1875 l 5xa200800001
 412.5 34.375 l 5
 429.6875 34.375 l 5x880080000140
 429.6875 51.5625 l 5
 481.25 51.5625 l 5x820080000140
 481.25 34.375 l 5x880080000140
 498.4375 34.375 l 5
 498.4375 0 l 5
 464.0625 0 l 5x880080000010
 464.0625 17.1875 l 5
 446.875 17.1875 l 5x820080000090
 446.875 0 l 5x880080000090
 429.6875 0 l 5x880080000020
 429.6875 -17.1875 l 5
 412.5 -17.1875 l 5x900080000120
 412.5 -34.375 l 5xa00080000120
 378.125 -34.375 l 5xa000800008
 378.125 -51.5625 l 5
 343.75 -51.5625 l 5xc000800008
 343.75 -34.375 l 5
 326.5625 -34.375 l 5xa000800048
 326.5625 -17.1875 l 5x9000800048
 309.375 -17.1875 l 5x9000800080
 309.375 -34.375 l 5xa000800080
 292.1875 -34.375 l 5xa0008002
 292.1875 -51.5625 l 5xc0008002
 275 -51.5625 l 5
 275 -103.125 l 5xc0008001
 257.8125 -103.125 l 5xc0008008
 257.8125 -137.5 l 5
 240.625 -137.5 l 5
 240.625 -171.875 l 5xc000801080
 223.4375 -171.875 l 5
 223.4375 -206.25 l 5xc0008040
 206.25 -206.25 l 5xc0008020
 206.25 -240.625 l 5
 189.0625 -240.625 l 5
 189.0625 -257.8125 l 5
 154.6875 -257.8125 l 5
 154.6875 -223.4375 l 5xc0008088
 171.875 -223.4375 l 5xc0008020
 171.875 -171.875 l 5xc0008040
 189.0625 -171.875 l 5
 189.0625 -120.3125 l 5xc0008010
 206.25 -120.3125 l 5
 206.25 -85.9375 l 5xc0008008
 223.4375 -85.9375 l 5
 223.4375 -68.75 l 5xc0008004
 240.625 -68.75 l 5xc0008001
 240.625 -34.375 l 5xa0008002
 257.8125 -34.375 l 5xa000800080
 257.8125 0 l 5x8800800080
 275 0 l 5x88008001
 275 17.1875 l 5x82008001
103.125 257.8125 m 5x808084
 85.9375 257.8125 l 5
 85.9375 85.9375 l 5
 103.125 85.9375 l 5
 103.125 51.5625 l 5x8280c4
 120.3125 51.5625 l 5x828082
 120.3125 34.375 l 5x880082
 137.5 34.375 l 5x880081
 137.5 17.1875 l 5x900081
 171.875 17.1875 l 5x90008020
 171.875 34.375 l 5x88008020
 206.25 34.375 l 5x88008008
 206.25 51.5625 l 5x82008008
 223.4375 51.5625 l 5
 223.4375 68.75 l 5x83008004
 240.625 68.75 l 5
 240.625 85.9375 l 5
 275 85.9375 l 5
 275 103.125 l 5
 292.1875 103.125 l 5
 292.1875 120.3125 l 5x8300800140
 309.375 120.3125 l 5
 309.375 154.6875 l 5x8300800020
 326.5625 154.6875 l 5
 326.5625 171.875 l 5
 343.75 171.875 l 5x8300800050
 343.75 206.25 l 5x8300800008
 360.9375 206.25 l 5x8300800002
 360.9375 257.8125 l 5x8300800004
 378.125 257.8125 l 5
 378.125 292.1875 l 5x8300800001
 395.3125 292.1875 l 5
 395.3125 412.5 l 5x832080000080
 378.125 412.5 l 5x8320800001
 378.125 446.875 l 5x8008800001
 360.9375 446.875 l 5x8008800002
 360.9375 464.0625 l 5x8004800002
 343.75 464.0625 l 5x8004800010
 343.75 481.25 l 5
 257.8125 481.25 l 5x8001800090
 257.8125 464.0625 l 5
 223.4375 464.0625 l 5x8004804090
 223.4375 446.875 l 5x8008804090
 206.25 446.875 l 5x80088008
 206.25 429.6875 l 5
 189.0625 429.6875 l 5x80108108
 189.0625 412.5 l 5x80208108
 171.875 412.5 l 5x802082
 171.875 395.3125 l 5x804082
 154.6875 395.3125 l 5x804088
 154.6875 378.125 l 5x808088
 137.5 378.125 l 5x808084
 137.5 343.75 l 5
 120.3125 343.75 l 5x808091
 120.3125 309.375 l 5
 103.125 309.375 l 5x8080a2
 103.125 257.8125 l 5x808084
EndSplineSet
Validated: 524293
EndChar
StartChar: R
Encoding: 82 82 78
Width: 498
Flags: W
HStem: -17.1875 34.375<34.375 51.5625> 0 51.5625<68.75 85.9375 378.125 395.312> 0 34.375<0 17.1875 395.312 498.438> 17.1875 51.5625<360.938 378.125> 34.375 68.75<103.125 120.312 343.75 360.938> 223.438 34.375<189.062 223.438> 240.625 34.375<240.625 257.812> 275 51.5625<292.188 309.375> 292.188 51.5625<309.375 326.562> 360.938 51.5625<103.125 137.5> 567.188 51.5625<309.375 326.562 360.938 378.125> 584.375 51.5625<326.562 360.938>
VStem: 0 34.375<17.1875 34.375> 17.1875 51.5625<-17.1875 0> 51.5625 51.5625<17.1875 34.375> 68.75 34.375<309.375 360.938> 85.9375 34.375<51.5625 68.75 275 292.188> 103.125 34.375<395.312 412.5> 120.312 34.375<103.125 154.688> 137.5 51.5625<275 292.188> 137.5 34.375<171.875 223.438 292.188 360.938> 257.812 34.375<206.25 240.625 326.562 498.438> 275 34.375<154.688 189.062 515.625 567.188> 292.188 51.5625<103.125 120.312> 292.188 34.375<120.312 137.5> 309.375 51.5625<85.9375 103.125 326.562 343.75> 326.562 34.375<68.75 85.9375 343.75 360.938 618.75 635.938> 343.75 34.375<378.125 395.312> 360.938 34.375<412.5 464.062> 378.125 34.375<481.25 567.188>
LayerCount: 2
Fore
SplineSet
326.5625 309.375 m 1x01400020
 326.5625 292.1875 l 1x00c00020
 309.375 292.1875 l 1x00c00040
 309.375 275 l 1x01400040
 292.1875 275 l 1
 292.1875 257.8125 l 1x05400080
 292.1875 206.25 l 1
 309.375 206.25 l 1x05400440
 309.375 171.875 l 1
 309.375 154.6875 l 1
 326.5625 154.6875 l 1x05400220
 326.5625 137.5 l 1
 326.5625 120.3125 l 1x05400080
 343.75 120.3125 l 1
 343.75 103.125 l 1x0d4001
 360.9375 103.125 l 1x0d400040
 360.9375 68.75 l 1
 378.125 68.75 l 1x10400024
 378.125 51.5625 l 1x40400024
 395.3125 51.5625 l 1x40400008
 395.3125 34.375 l 1
 481.25 34.375 l 1
 498.4375 34.375 l 1
 498.4375 0 l 1
 481.25 0 l 1x20400008
 378.125 0 l 1x40400004
 378.125 17.1875 l 1x10400004
 360.9375 17.1875 l 1x10400008
 360.9375 34.375 l 1x08400008
 343.75 34.375 l 1x08400010
 343.75 51.5625 l 1x40400010
 326.5625 51.5625 l 1
 326.5625 85.9375 l 1x40400020
 309.375 85.9375 l 1
 309.375 103.125 l 1x08400040
 292.1875 103.125 l 1x084001
 292.1875 137.5 l 1x08400080
 275 137.5 l 1
 275 189.0625 l 1x084002
 257.8125 189.0625 l 1
 257.8125 240.625 l 1
 240.625 240.625 l 1x0a4004
 240.625 223.4375 l 1
 171.875 223.4375 l 1
 171.875 154.6875 l 1x04400c
 154.6875 154.6875 l 1
 154.6875 85.9375 l 1x044020
 137.5 85.9375 l 1
 137.5 68.75 l 1
 120.3125 68.75 l 1x144088
 120.3125 34.375 l 1
 103.125 34.375 l 1x084220
 103.125 17.1875 l 1x104220
 85.9375 17.1875 l 1x104080
 85.9375 0 l 1
 68.75 0 l 1x404480
 68.75 -17.1875 l 1
 17.1875 -17.1875 l 1x804480
 17.1875 0 l 1x204480
 0 0 l 1
 0 34.375 l 1x2048
 34.375 34.375 l 1
 34.375 17.1875 l 1
 51.5625 17.1875 l 1
 51.5625 34.375 l 1x884a
 68.75 34.375 l 1x8841
 68.75 51.5625 l 1x4041
 85.9375 51.5625 l 1
 85.9375 85.9375 l 1x404080
 103.125 85.9375 l 1
 103.125 103.125 l 1x084040
 120.3125 103.125 l 1
 120.3125 171.875 l 1x084020
 137.5 171.875 l 1
 137.5 223.4375 l 1x0c4008
 120.3125 223.4375 l 1x0c4020
 120.3125 240.625 l 1x024020
 103.125 240.625 l 1x024040
 103.125 257.8125 l 1x044040
 85.9375 257.8125 l 1
 85.9375 292.1875 l 1x04c080
 68.75 292.1875 l 1
 68.75 378.125 l 1x04c1
 85.9375 378.125 l 1
 85.9375 395.3125 l 1x04c080
 103.125 395.3125 l 1
 103.125 412.5 l 1
 137.5 412.5 l 1
 137.5 395.3125 l 1x04c040
 154.6875 395.3125 l 1
 154.6875 378.125 l 1x04c020
 171.875 378.125 l 1
 171.875 292.1875 l 1x04c008
 189.0625 292.1875 l 1x04c010
 189.0625 257.8125 l 1
 223.4375 257.8125 l 1
 223.4375 275 l 1x054010
 257.8125 275 l 1x024014
 257.8125 326.5625 l 1
 257.8125 481.25 l 1
 257.8125 515.625 l 1x014014
 275 515.625 l 1
 275 550 l 1
 275 584.375 l 1x015002
 292.1875 584.375 l 1
 292.1875 601.5625 l 1x01500080
 309.375 601.5625 l 1
 309.375 618.75 l 1x00600040
 326.5625 618.75 l 1x00600020
 326.5625 635.9375 l 1
 360.9375 635.9375 l 1x00500020
 360.9375 618.75 l 1
 378.125 618.75 l 1
 378.125 601.5625 l 1x00600024
 395.3125 601.5625 l 1
 395.3125 584.375 l 1x00500008
 412.5 584.375 l 1
 412.5 498.4375 l 1
 412.5 464.0625 l 1x00500004
 395.3125 464.0625 l 1
 395.3125 412.5 l 1
 395.3125 395.3125 l 1x00500008
 378.125 395.3125 l 1
 378.125 378.125 l 1x00500010
 378.125 360.9375 l 1
 360.9375 360.9375 l 1x00500024
 360.9375 343.75 l 1x00d00040
 360.9375 326.5625 l 1x01400040
 343.75 326.5625 l 1
 343.75 309.375 l 1x01400010
 326.5625 309.375 l 1x01400020
137.5 360.9375 m 1x014008
 103.125 360.9375 l 1
 103.125 309.375 l 1
 120.3125 309.375 l 1x014120
 120.3125 275 l 1
 137.5 275 l 1x014090
 137.5 360.9375 l 1x014008
378.125 567.1875 m 1x00e00004
 360.9375 567.1875 l 1x00e00008
 360.9375 584.375 l 1x00500008
 326.5625 584.375 l 1x00500020
 326.5625 567.1875 l 1
 309.375 567.1875 l 1x00600220
 309.375 498.4375 l 1
 292.1875 498.4375 l 1
 292.1875 446.875 l 1
 292.1875 429.6875 l 1
 292.1875 326.5625 l 1
 309.375 326.5625 l 1x01600440
 309.375 343.75 l 1x00c00440
 326.5625 343.75 l 1
 326.5625 378.125 l 1x00c00020
 343.75 378.125 l 1
 343.75 412.5 l 1x00c00010
 360.9375 412.5 l 1
 360.9375 481.25 l 1x00c00008
 378.125 481.25 l 1
 378.125 550 l 1
 378.125 567.1875 l 1x00e00004
EndSplineSet
Validated: 524289
EndChar
StartChar: S
Encoding: 83 83 79
Width: 516
Flags: W
HStem: -154.688 34.375<275 343.75> -137.5 51.5625<240.625 257.812 378.125 395.312> -137.5 34.375<360.938 378.125> -120.312 51.5625<395.312 412.5> -103.125 51.5625<206.25 223.438> -34.375 51.5625<257.812 275> -17.1875 34.375<464.062 481.25> 0 34.375<0 17.1875 498.438 515.625> 17.1875 34.375<34.375 51.5625> 34.375 51.5625<85.9375 103.125> 34.375 34.375<68.75 85.9375 326.562 412.5> 51.5625 51.5625<103.125 120.312> 68.75 51.5625<120.312 137.5> 137.5 85.9375<171.875 189.062 395.312 412.5> 206.25 51.5625<360.938 378.125> 223.438 51.5625<343.75 360.938> 240.625 51.5625<326.562 343.75> 257.812 51.5625<292.188 309.375> 257.812 34.375<309.375 326.562> 275 51.5625<275 292.188> 292.188 34.375<240.625 275> 309.375 51.5625<189.062 206.25> 326.562 51.5625<171.875 189.062> 343.75 51.5625<154.688 171.875> 360.938 51.5625<137.5 154.688> 378.125 51.5625<120.312 137.5> 395.312 51.5625<103.125 120.312> 515.625 51.5625<171.875 189.062> 532.812 51.5625<154.688 171.875> 550 51.5625<137.5 154.688> 567.188 34.375<120.312 137.5> 584.375 34.375<85.9375 103.125>
VStem: 0 34.375<0 17.1875> 34.375 51.5625<481.25 498.438 567.188 584.375> 34.375 34.375<498.438 567.188> 51.5625 51.5625<464.062 481.25> 68.75 51.5625<429.688 446.875 601.562 618.75> 68.75 34.375<446.875 464.062> 85.9375 51.5625<68.75 85.9375 412.5 429.688> 103.125 51.5625<85.9375 103.125 395.312 412.5> 120.312 51.5625<103.125 120.312 378.125 395.312> 137.5 51.5625<137.5 154.688 360.938 378.125 550 567.188> 137.5 34.375<120.312 137.5> 154.688 51.5625<154.688 171.875 532.812 550> 171.875 34.375<171.875 206.25> 189.062 34.375<223.438 257.812 481.25 515.625> 206.25 34.375<-85.9375 -68.75 275 292.188 446.875 464.062> 223.438 51.5625<-120.312 -103.125 -34.375 -17.1875> 223.438 34.375<-51.5625 -34.375 360.938 429.688> 240.625 51.5625<-17.1875 0> 257.812 51.5625<0 17.1875> 275 51.5625<17.1875 34.375> 326.562 51.5625<240.625 257.812> 343.75 51.5625<223.438 240.625> 360.938 51.5625<206.25 223.438> 378.125 34.375<189.062 206.25> 395.312 34.375<154.688 171.875> 412.5 34.375<-68.75 -51.5625 85.9375 137.5> 429.688 34.375<-34.375 -17.1875> 481.25 34.375<17.1875 34.375>
LayerCount: 2
Fore
SplineSet
120.3125 618.75 m 1x0000000108000010
 120.3125 601.5625 l 1x0000000208000010
 154.6875 601.5625 l 1x0000000408100010
 154.6875 584.375 l 1x0000000808100010
 171.875 584.375 l 1x0000000800080010
 171.875 567.1875 l 1x0000001000080010
 189.0625 567.1875 l 1x0000001000400010
 189.0625 550 l 1x0000000400400010
 206.25 550 l 1x0000000400100010
 206.25 532.8125 l 1
 223.4375 532.8125 l 1x0000000800108010
 223.4375 515.625 l 1
 223.4375 481.25 l 1
 240.625 481.25 l 1x0000001000044010
 240.625 446.875 l 1
 257.8125 446.875 l 1x0000003000022010
 257.8125 343.75 l 1x0000010000022010
 240.625 343.75 l 1
 240.625 326.5625 l 1x0000090000004010
 292.1875 326.5625 l 1x0000100000004010
 292.1875 309.375 l 1x0000400000004010
 309.375 309.375 l 1x0000400000002010
 309.375 292.1875 l 1x0000200000002010
 343.75 292.1875 l 1x0000800000002410
 343.75 275 l 1x0001000000002410
 360.9375 275 l 1x0001000000000210
 360.9375 257.8125 l 1x0002000000000210
 378.125 257.8125 l 1x0002000000000810
 378.125 240.625 l 1x0000800000000810
 395.3125 240.625 l 1
 395.3125 223.4375 l 1x0004800000000410
 412.5 223.4375 l 1x0004800000000210
 412.5 189.0625 l 1
 429.6875 189.0625 l 1x0004800000000130
 429.6875 154.6875 l 1x0004800000000090
 446.875 154.6875 l 1
 446.875 85.9375 l 1x0044800000000050
 464.0625 85.9375 l 1x0044800000000030
 464.0625 17.1875 l 1
 481.25 17.1875 l 1
 481.25 34.375 l 1x0220000000000030
 515.625 34.375 l 1
 515.625 0 l 1
 498.4375 0 l 1x0100000000000030
 498.4375 -17.1875 l 1
 464.0625 -17.1875 l 1
 464.0625 -51.5625 l 1x0a00000000000030
 446.875 -51.5625 l 1x0a00000000000050
 446.875 -85.9375 l 1x4000000000000050
 429.6875 -85.9375 l 1x4000000000000030
 429.6875 -103.125 l 1x0800000000000030
 412.5 -103.125 l 1x0800000000000050
 412.5 -120.3125 l 1x1000000000000050
 395.3125 -120.3125 l 1x1000000000000090
 395.3125 -137.5 l 1x4000000000000090
 360.9375 -137.5 l 1x2000000000000210
 360.9375 -154.6875 l 1
 257.8125 -154.6875 l 1x8000000000002210
 257.8125 -137.5 l 1x4000000000002210
 240.625 -137.5 l 1x4000000000004010
 240.625 -120.3125 l 1x1000000000004010
 223.4375 -120.3125 l 1x1000000000010010
 223.4375 -103.125 l 1x0800000000010010
 206.25 -103.125 l 1
 206.25 -51.5625 l 1x0800000000020010
 223.4375 -51.5625 l 1x0800000000008010
 223.4375 -17.1875 l 1x0a00000000010010
 240.625 -17.1875 l 1x0a00000000004010
 240.625 0 l 1x0100000000004010
 257.8125 0 l 1x0100000000002010
 257.8125 17.1875 l 1x0400000000002010
 275 17.1875 l 1
 275 34.375 l 1x0420000000001010
 292.1875 34.375 l 1x0420000000004010
 292.1875 51.5625 l 1x0010000000004010
 309.375 51.5625 l 1x0010000000002010
 309.375 68.75 l 1x0008000000002010
 412.5 68.75 l 1
 412.5 137.5 l 1x0024000000002050
 395.3125 137.5 l 1
 395.3125 171.875 l 1x0024000000000090
 378.125 171.875 l 1
 378.125 206.25 l 1x0002000000000110
 360.9375 206.25 l 1x0002000000000210
 360.9375 223.4375 l 1x0001000000000210
 343.75 223.4375 l 1x0001000000000410
 343.75 240.625 l 1x0000800000000410
 326.5625 240.625 l 1x0000800000000810
 326.5625 257.8125 l 1x0000200000000810
 292.1875 257.8125 l 1x0000400000004810
 292.1875 275 l 1x0000100000004810
 275 275 l 1x0000100000001010
 275 292.1875 l 1
 240.625 292.1875 l 1x0000080000021010
 240.625 257.8125 l 1
 223.4375 257.8125 l 1x0000200000044010
 223.4375 206.25 l 1
 206.25 206.25 l 1x0002000000088010
 206.25 154.6875 l 1x0002000000100010
 189.0625 154.6875 l 1
 189.0625 137.5 l 1x0004000000400010
 171.875 137.5 l 1x0004000000200010
 171.875 103.125 l 1x0014000000800010
 154.6875 103.125 l 1x0014000001000010
 154.6875 85.9375 l 1x0040000001000010
 137.5 85.9375 l 1x0040000002000010
 137.5 68.75 l 1x0008000002000010
 120.3125 68.75 l 1x0008000000800010
 120.3125 51.5625 l 1x0010000000800010
 103.125 51.5625 l 1x0010000001000010
 103.125 34.375 l 1x0040000001000010
 68.75 34.375 l 1x0020000004000010
 68.75 17.1875 l 1
 34.375 17.1875 l 1x0080000084000010
 34.375 0 l 1
 0 0 l 1
 0 34.375 l 1
 17.1875 34.375 l 1
 17.1875 51.5625 l 1x0110000084000010
 51.5625 51.5625 l 1
 51.5625 68.75 l 1x0088000090000010
 85.9375 68.75 l 1x0020000002000010
 85.9375 85.9375 l 1x0040000002000010
 103.125 85.9375 l 1x0040000001000010
 103.125 103.125 l 1x0010000001000010
 120.3125 103.125 l 1x0010000000800010
 120.3125 120.3125 l 1x0008000000800010
 137.5 120.3125 l 1x0008000000200010
 137.5 154.6875 l 1x0008000000400010
 154.6875 154.6875 l 1
 154.6875 171.875 l 1x0008000000100010
 171.875 171.875 l 1
 171.875 223.4375 l 1x000c000000080010
 189.0625 223.4375 l 1
 189.0625 275 l 1x000c100000040010
 206.25 275 l 1x000c100000020010
 206.25 309.375 l 1x0000040000020010
 189.0625 309.375 l 1x0000040000040010
 189.0625 326.5625 l 1x0000020000040010
 171.875 326.5625 l 1x0000020000080010
 171.875 343.75 l 1x0000010000080010
 154.6875 343.75 l 1x0000010000100010
 154.6875 360.9375 l 1x0000008000100010
 137.5 360.9375 l 1x0000008000400010
 137.5 378.125 l 1x0000004000400010
 120.3125 378.125 l 1x0000004000800010
 120.3125 395.3125 l 1x0000002000800010
 103.125 395.3125 l 1x0000002001000010
 103.125 412.5 l 1x0000008001000010
 85.9375 412.5 l 1x0000008002000010
 85.9375 429.6875 l 1x0000004002000010
 68.75 429.6875 l 1x0000004008000010
 68.75 446.875 l 1x0000002008000010
 68.75 464.0625 l 1x0000002004000010
 51.5625 464.0625 l 1
 51.5625 481.25 l 1x0000002010000010
 34.375 481.25 l 1
 34.375 584.375 l 1x0000002140000010
 51.5625 584.375 l 1x0000002110000010
 51.5625 601.5625 l 1x0000000210000010
 68.75 601.5625 l 1x0000000208000010
 68.75 618.75 l 1
 120.3125 618.75 l 1x0000000108000010
103.125 464.0625 m 1x0000000810000010
 103.125 446.875 l 1x0000002804000010
 120.3125 446.875 l 1x0000002808000010
 120.3125 429.6875 l 1x0000004008000010
 137.5 429.6875 l 1x0000004002000010
 137.5 412.5 l 1x0000008002000010
 154.6875 412.5 l 1x0000008001000010
 154.6875 395.3125 l 1x0000010001000010
 171.875 395.3125 l 1x0000010000800010
 171.875 378.125 l 1x0000020000800010
 189.0625 378.125 l 1x0000020000400010
 189.0625 360.9375 l 1
 206.25 360.9375 l 1x0000040000420010
 223.4375 360.9375 l 1x0000008000008010
 223.4375 378.125 l 1x0000004000008010
 223.4375 395.3125 l 1x0000002000008010
 223.4375 429.6875 l 1x0000004000008010
 206.25 429.6875 l 1
 206.25 464.0625 l 1x0000004000020010
 189.0625 464.0625 l 1
 189.0625 498.4375 l 1
 189.0625 515.625 l 1x0000005000040010
 171.875 515.625 l 1x0000005000080010
 171.875 532.8125 l 1x0000000800080010
 154.6875 532.8125 l 1x0000000800100010
 154.6875 550 l 1x0000000400100010
 137.5 550 l 1x0000000400400010
 137.5 567.1875 l 1x0000000200400010
 103.125 567.1875 l 1x0000000201000010
 103.125 584.375 l 1
 85.9375 584.375 l 1x0000000141000010
 85.9375 567.1875 l 1x0000000241000010
 68.75 567.1875 l 1x0000000220000010
 68.75 532.8125 l 1
 68.75 498.4375 l 1x0000000820000010
 85.9375 498.4375 l 1
 85.9375 481.25 l 1x0000000840000010
 103.125 481.25 l 1
 103.125 464.0625 l 1x0000000810000010
412.5 17.1875 m 1x0080000000000050
 412.5 34.375 l 1
 326.5625 34.375 l 1x0020000000001050
 326.5625 17.1875 l 1x0080000000001050
 309.375 17.1875 l 1x0080000000002010
 309.375 0 l 1x0100000000002010
 292.1875 0 l 1x0100000000004010
 292.1875 -17.1875 l 1x0200000000004010
 275 -17.1875 l 1x0200000000010010
 275 -34.375 l 1x0400000000010010
 257.8125 -34.375 l 1x0400000000008010
 257.8125 -68.75 l 1
 240.625 -68.75 l 1x1400000000022010
 240.625 -85.9375 l 1
 257.8125 -85.9375 l 1x4000000000022010
 257.8125 -103.125 l 1x0800000000022010
 275 -103.125 l 1
 275 -120.3125 l 1
 343.75 -120.3125 l 1
 343.75 -103.125 l 1x8800000000010410
 378.125 -103.125 l 1x2000000000000110
 378.125 -85.9375 l 1x4000000000000110
 395.3125 -85.9375 l 1x4000000000000090
 395.3125 -68.75 l 1x1000000000000090
 412.5 -68.75 l 1
 412.5 -34.375 l 1x1400000000000050
 429.6875 -34.375 l 1x1400000000000030
 429.6875 17.1875 l 1x0080000000000030
 412.5 17.1875 l 1x0080000000000050
EndSplineSet
Validated: 524289
EndChar
StartChar: T
Encoding: 84 84 80
Width: 481
Flags: W
HStem: -85.9375 51.5625<223.438 240.625 257.812 275> -85.9375 34.375<240.625 257.812> -68.75 51.5625<275 292.188> -51.5625 51.5625<309.375 326.562> -51.5625 34.375<292.188 309.375> -34.375 51.5625<326.562 343.75> -17.1875 34.375<34.375 85.9375> 0 51.5625<103.125 120.312 360.938 378.125 412.5 429.688> 0 34.375<0 17.1875 429.688 481.25> 17.1875 51.5625<120.312 137.5 378.125 412.5> 34.375 51.5625<137.5 154.688> 240.625 34.375<34.375 51.5625> 257.812 51.5625<0 17.1875> 292.188 34.375<34.375 51.5625> 309.375 34.375<85.9375 137.5> 326.562 34.375<154.688 223.438> 343.75 34.375<240.625 275 326.562 464.062> 360.938 34.375<0 34.375>
VStem: 0 51.5625<378.125 395.312> 0 34.375<17.1875 34.375 275 292.188> 17.1875 51.5625<240.625 257.812> 34.375 51.5625<343.75 360.938> 51.5625 34.375<275 292.188> 85.9375 51.5625<17.1875 34.375> 103.125 51.5625<34.375 51.5625> 154.688 51.5625<85.9375 103.125> 171.875 34.375<0 51.5625> 189.062 51.5625<-51.5625 -34.375 137.5 189.062> 189.062 34.375<-34.375 -17.1875> 206.25 51.5625<189.062 206.25> 223.438 51.5625<-85.9375 -68.75 240.625 257.812> 240.625 51.5625<275 292.188> 257.812 51.5625<292.188 326.562> 275 34.375<326.562 343.75> 292.188 34.375<378.125 412.5> 309.375 34.375<429.688 481.25> 326.562 51.5625<0 17.1875 550 618.75> 326.562 34.375<498.438 550 618.75 635.938> 378.125 34.375<51.5625 68.75>
LayerCount: 2
Fore
SplineSet
412.5 343.75 m 1x0000800022
 309.375 343.75 l 1x0000800042
 309.375 292.1875 l 1x0004800080
 292.1875 292.1875 l 1x00048001
 292.1875 257.8125 l 1
 275 257.8125 l 1x0008000220
 275 206.25 l 1
 257.8125 206.25 l 1
 257.8125 189.0625 l 1x0008000440
 240.625 189.0625 l 1
 240.625 137.5 l 1x00080010
 223.4375 137.5 l 1
 223.4375 103.125 l 1
 206.25 103.125 l 1x00080042
 206.25 0 l 1
 223.4375 0 l 1x00880022
 223.4375 -34.375 l 1x80880008
 240.625 -34.375 l 1x80880010
 240.625 -51.5625 l 1
 257.8125 -51.5625 l 1x4000001080
 257.8125 -34.375 l 1x8000001080
 275 -34.375 l 1x8000000040
 275 -17.1875 l 1x2000000040
 309.375 -17.1875 l 1x0800000010
 309.375 0 l 1x1000000010
 326.5625 0 l 1x1000000008
 326.5625 17.1875 l 1x0400000008
 343.75 17.1875 l 1
 343.75 34.375 l 1x0420000010
 360.9375 34.375 l 1x0420000004
 360.9375 51.5625 l 1
 378.125 51.5625 l 1x0100000006
 378.125 68.75 l 1
 395.3125 68.75 l 1
 412.5 68.75 l 1x0040000006
 412.5 51.5625 l 1
 429.6875 51.5625 l 1x0100000006
 429.6875 34.375 l 1
 481.25 34.375 l 1
 481.25 0 l 1x0080000006
 412.5 0 l 1x0100000006
 412.5 17.1875 l 1x0040000006
 378.125 17.1875 l 1x0040000008
 378.125 0 l 1x0100000008
 360.9375 0 l 1x0100000004
 360.9375 -17.1875 l 1x0200000004
 343.75 -17.1875 l 1x0200000010
 343.75 -34.375 l 1x0400000010
 326.5625 -34.375 l 1x0400000004
 326.5625 -51.5625 l 1x1000000004
 292.1875 -51.5625 l 1x0800000020
 292.1875 -68.75 l 1
 275 -68.75 l 1x2000000220
 275 -85.9375 l 1
 223.4375 -85.9375 l 1x8000000220
 223.4375 -68.75 l 1x2000000220
 206.25 -68.75 l 1x20000004
 206.25 -51.5625 l 1x08000004
 189.0625 -51.5625 l 1x08000010
 189.0625 -17.1875 l 1x02000008
 171.875 -17.1875 l 1x02000020
 171.875 51.5625 l 1
 154.6875 51.5625 l 1x010000a0
 154.6875 34.375 l 1x002000a0
 137.5 34.375 l 1x002001
 137.5 17.1875 l 1
 120.3125 17.1875 l 1x004001
 120.3125 0 l 1
 103.125 0 l 1x01000080
 103.125 -17.1875 l 1
 17.1875 -17.1875 l 1x02000880
 17.1875 0 l 1x00800880
 0 0 l 1
 0 34.375 l 1x008010
 34.375 34.375 l 1
 34.375 17.1875 l 1
 85.9375 17.1875 l 1
 85.9375 34.375 l 1x022011
 103.125 34.375 l 1x02200080
 103.125 51.5625 l 1
 120.3125 51.5625 l 1x01000080
 120.3125 68.75 l 1
 137.5 68.75 l 1x004001
 137.5 85.9375 l 1
 154.6875 85.9375 l 1
 154.6875 120.3125 l 1x00200140
 171.875 120.3125 l 1
 171.875 137.5 l 1x00200020
 189.0625 137.5 l 1
 189.0625 154.6875 l 1
 189.0625 189.0625 l 1x00200010
 206.25 189.0625 l 1
 206.25 223.4375 l 1
 206.25 240.625 l 1x00300004
 223.4375 240.625 l 1x00300002
 223.4375 257.8125 l 1x00080002
 223.4375 275 l 1x00100002
 240.625 275 l 1
 240.625 292.1875 l 1x00140001
 257.8125 292.1875 l 1x0014000080
 257.8125 326.5625 l 1x0001000080
 275 326.5625 l 1x0001000040
 275 343.75 l 1x0000800040
 240.625 343.75 l 1x00008001
 240.625 326.5625 l 1
 154.6875 326.5625 l 1x00010041
 154.6875 309.375 l 1
 85.9375 309.375 l 1x00020141
 85.9375 257.8125 l 1
 68.75 257.8125 l 1x00080941
 68.75 240.625 l 1
 17.1875 240.625 l 1x00100941
 17.1875 257.8125 l 1x00080941
 0 257.8125 l 1
 0 309.375 l 1x000810
 17.1875 309.375 l 1
 17.1875 326.5625 l 1x000908
 51.5625 326.5625 l 1
 51.5625 343.75 l 1x000482
 34.375 343.75 l 1x000484
 34.375 360.9375 l 1x000044
 0 360.9375 l 1x000050
 0 395.3125 l 1
 51.5625 395.3125 l 1x000060
 51.5625 378.125 l 1x0000a0
 68.75 378.125 l 1x000088
 68.75 360.9375 l 1x000048
 85.9375 360.9375 l 1
 85.9375 343.75 l 1x000244
 137.5 343.75 l 1
 137.5 360.9375 l 1x000241
 223.4375 360.9375 l 1x00010102
 223.4375 378.125 l 1
 292.1875 378.125 l 1
 292.1875 429.6875 l 1x0000810220
 309.375 429.6875 l 1
 309.375 498.4375 l 1x0000800010
 326.5625 498.4375 l 1
 326.5625 635.9375 l 1
 360.9375 635.9375 l 1
 360.9375 618.75 l 1x0000800004
 378.125 618.75 l 1
 378.125 550 l 1x0000800008
 360.9375 550 l 1
 360.9375 481.25 l 1x0000800004
 343.75 481.25 l 1
 343.75 412.5 l 1x0000800010
 326.5625 412.5 l 1
 326.5625 378.125 l 1
 464.0625 378.125 l 1x0000800020
 464.0625 360.9375 l 1x0000400020
 464.0625 343.75 l 1
 412.5 343.75 l 1x0000800022
34.375 292.1875 m 1x001412
 34.375 275 l 1
 51.5625 275 l 1
 51.5625 292.1875 l 1
 34.375 292.1875 l 1x001412
EndSplineSet
Validated: 524289
EndChar
StartChar: U
Encoding: 85 85 81
Width: 516
Flags: W
HStem: -103.125 34.375<189.062 240.625> -85.9375 51.5625<154.688 171.875 275 292.188> -85.9375 34.375<257.812 275> -68.75 51.5625<292.188 309.375> -51.5625 51.5625<309.375 326.562> -34.375 51.5625<326.562 343.75> 0 51.5625<17.1875 34.375 429.688 446.875 498.438 515.625> 0 34.375<0 17.1875 446.875 498.438> 17.1875 51.5625<34.375 51.5625> 498.438 51.5625<360.938 378.125> 515.625 51.5625<378.125 395.312>
VStem: 0 51.5625<17.1875 34.375> 0 34.375<0 17.1875> 17.1875 51.5625<34.375 51.5625> 34.375 51.5625<51.5625 68.75> 51.5625 34.375<68.75 85.9375> 68.75 68.75<103.125 137.5> 85.9375 51.5625<137.5 171.875> 103.125 34.375<0 85.9375 171.875 189.062> 120.312 51.5625<-51.5625 -34.375 240.625 292.188> 120.312 34.375<-34.375 -17.1875 223.438 240.625> 137.5 51.5625<-68.75 -51.5625 326.562 378.125> 154.688 51.5625<395.312 429.688> 171.875 34.375<429.688 481.25> 275 51.5625<-51.5625 -34.375> 292.188 51.5625<-34.375 -17.1875> 309.375 51.5625<-17.1875 0> 326.562 34.375<309.375 498.438> 343.75 34.375<17.1875 34.375 189.062 292.188> 360.938 34.375<154.688 171.875> 378.125 34.375<85.9375 103.125 550 567.188> 395.312 34.375<481.25 515.625> 412.5 34.375<154.688 189.062 412.5 464.062> 429.688 34.375<206.25 395.312> 498.438 17.1875<34.375 51.5625>
LayerCount: 2
Fore
SplineSet
120.3125 -51.5625 m 1x0800100020
 120.3125 -17.1875 l 1x1000080020
 103.125 -17.1875 l 1
 103.125 85.9375 l 1
 85.9375 85.9375 l 1x1001200020
 85.9375 51.5625 l 1x1202000020
 68.75 51.5625 l 1x1204000020
 68.75 34.375 l 1x0104000020
 51.5625 34.375 l 1x0110000020
 51.5625 17.1875 l 1x0090000020
 34.375 17.1875 l 1x0088000020
 34.375 0 l 1x0208000020
 0 0 l 1x0108000020
 0 34.375 l 1x0110000020
 17.1875 34.375 l 1x0104000020
 17.1875 51.5625 l 1x0204000020
 34.375 51.5625 l 1x0202000020
 34.375 68.75 l 1x0082000020
 51.5625 68.75 l 1
 51.5625 103.125 l 1x0081000020
 68.75 103.125 l 1
 68.75 137.5 l 1x0080800020
 85.9375 137.5 l 1
 85.9375 171.875 l 1x0080400020
 103.125 171.875 l 1
 103.125 223.4375 l 1x0080200020
 120.3125 223.4375 l 1x0080080020
 120.3125 257.8125 l 1x0080100020
 120.3125 326.5625 l 1x0080080020
 137.5 326.5625 l 1
 137.5 395.3125 l 1x0080040020
 154.6875 395.3125 l 1
 154.6875 429.6875 l 1x0080020020
 171.875 429.6875 l 1
 171.875 481.25 l 1
 206.25 481.25 l 1
 206.25 446.875 l 1
 206.25 378.125 l 1x0080010020
 189.0625 378.125 l 1
 189.0625 292.1875 l 1x0080040020
 171.875 292.1875 l 1
 171.875 240.625 l 1x0080100020
 154.6875 240.625 l 1x0080080020
 154.6875 189.0625 l 1
 137.5 189.0625 l 1x0080220020
 137.5 137.5 l 1x0080800020
 137.5 0 l 1
 154.6875 0 l 1x0100220020
 154.6875 -34.375 l 1x4100080020
 171.875 -34.375 l 1x4100100020
 171.875 -51.5625 l 1x0800100020
 189.0625 -51.5625 l 1
 189.0625 -68.75 l 1
 223.4375 -68.75 l 1
 240.625 -68.75 l 1
 240.625 -51.5625 l 1x8800040020
 257.8125 -51.5625 l 1
 275 -51.5625 l 1x2000048020
 275 -34.375 l 1x4000048020
 292.1875 -34.375 l 1x4000004020
 292.1875 -17.1875 l 1x1000004020
 309.375 -17.1875 l 1x1000002020
 309.375 0 l 1x0800002020
 326.5625 0 l 1x0800001020
 326.5625 17.1875 l 1x0400001020
 343.75 17.1875 l 1x0400000820
 343.75 51.5625 l 1x0200000820
 360.9375 51.5625 l 1
 360.9375 85.9375 l 1x0200000420
 378.125 85.9375 l 1
 378.125 120.3125 l 1x0200000220
 360.9375 120.3125 l 1
 360.9375 171.875 l 1x0200000420
 343.75 171.875 l 1
 343.75 275 l 1
 343.75 292.1875 l 1x0200000820
 326.5625 292.1875 l 1
 326.5625 309.375 l 1
 326.5625 464.0625 l 1
 326.5625 515.625 l 1x0220001020
 343.75 515.625 l 1
 343.75 532.8125 l 1x0220000820
 360.9375 532.8125 l 1
 360.9375 550 l 1x0040000420
 378.125 550 l 1x0040000220
 378.125 567.1875 l 1
 412.5 567.1875 l 1x0020000220
 412.5 550 l 1
 429.6875 550 l 1x0040000260
 429.6875 481.25 l 1x0040000120
 446.875 481.25 l 1
 446.875 412.5 l 1x00400000a0
 464.0625 412.5 l 1
 464.0625 360.9375 l 1
 464.0625 189.0625 l 1x0040000060
 446.875 189.0625 l 1
 446.875 137.5 l 1x00400000a0
 429.6875 137.5 l 1
 429.6875 103.125 l 1
 412.5 103.125 l 1
 412.5 85.9375 l 1
 429.6875 85.9375 l 1
 429.6875 51.5625 l 1x0240000260
 446.875 51.5625 l 1x02400000a0
 446.875 34.375 l 1
 498.4375 34.375 l 1x01000000a0
 498.4375 51.5625 l 1
 515.625 51.5625 l 1
 515.625 0 l 1
 429.6875 0 l 1x0200000060
 429.6875 17.1875 l 1x0080000060
 412.5 17.1875 l 1x00800000a0
 412.5 34.375 l 1
 378.125 34.375 l 1x01000008a0
 378.125 0 l 1
 360.9375 0 l 1
 360.9375 -17.1875 l 1x1100002220
 343.75 -17.1875 l 1x1100004020
 343.75 -34.375 l 1x0400004020
 326.5625 -34.375 l 1x0400008020
 326.5625 -51.5625 l 1x0800008020
 309.375 -51.5625 l 1x0800002020
 309.375 -68.75 l 1x1000002020
 292.1875 -68.75 l 1x1000004020
 292.1875 -85.9375 l 1x4000004020
 257.8125 -85.9375 l 1x2000004020
 257.8125 -103.125 l 1
 171.875 -103.125 l 1x8000014020
 171.875 -85.9375 l 1x4000014020
 154.6875 -85.9375 l 1x4000020020
 154.6875 -68.75 l 1x1000020020
 137.5 -68.75 l 1x1000040020
 137.5 -51.5625 l 1x0800040020
 120.3125 -51.5625 l 1x0800100020
360.9375 309.375 m 1x0040001220
 378.125 309.375 l 1x0040001220
 378.125 189.0625 l 1
 395.3125 189.0625 l 1x0040000920
 395.3125 154.6875 l 1
 412.5 154.6875 l 1
 412.5 206.25 l 1x00400004a0
 429.6875 206.25 l 1
 429.6875 343.75 l 1
 429.6875 395.3125 l 1x0040000060
 412.5 395.3125 l 1
 412.5 464.0625 l 1x00400000a0
 395.3125 464.0625 l 1
 395.3125 515.625 l 1x0020000120
 378.125 515.625 l 1x0020000220
 378.125 498.4375 l 1
 360.9375 498.4375 l 1
 360.9375 481.25 l 1
 360.9375 429.6875 l 1
 360.9375 309.375 l 1x0040001220
EndSplineSet
Validated: 524289
EndChar
StartChar: V
Encoding: 86 86 82
Width: 516
Flags: W
HStem: -137.5 51.5625<171.875 189.062> -137.5 34.375<137.5 171.875> -120.312 51.5625<189.062 206.25> -103.125 51.5625<206.25 223.438> -85.9375 51.5625<223.438 240.625> -68.75 51.5625<85.9375 103.125 257.812 275> -68.75 34.375<240.625 257.812> 0 51.5625<0 17.1875> 51.5625 34.375<429.688 481.25> 68.75 51.5625<395.312 412.5> 68.75 34.375<498.438 515.625> 395.312 51.5625<68.75 85.9375> 412.5 51.5625<85.9375 103.125> 481.25 51.5625<326.562 343.75> 515.625 51.5625<292.188 309.375>
VStem: 0 34.375<17.1875 34.375> 0 17.1875<0 17.1875> 17.1875 34.375<51.5625 137.5> 34.375 51.5625<395.312 412.5> 34.375 34.375<154.688 395.312> 85.9375 34.375<-51.5625 -34.375 446.875 464.062> 103.125 34.375<-103.125 -68.75 -17.1875 120.312 360.938 412.5> 120.312 34.375<137.5 343.75> 171.875 51.5625<-103.125 -85.9375> 189.062 51.5625<-85.9375 -68.75> 257.812 34.375<378.125 515.625> 275 34.375<-17.1875 0 309.375 360.938> 292.188 34.375<240.625 292.188 550 567.188> 309.375 34.375<34.375 51.5625 206.25 223.438> 326.562 34.375<68.75 85.9375> 343.75 34.375<464.062 481.25> 360.938 34.375<206.25 275 360.938 446.875> 378.125 34.375<292.188 343.75> 481.25 34.375<85.9375 103.125>
LayerCount: 2
Fore
SplineSet
223.4375 -103.125 m 5x1000010040
 206.25 -103.125 l 5x1000010040
 206.25 -120.3125 l 5
 189.0625 -120.3125 l 5x2000008040
 189.0625 -137.5 l 5x8000008040
 120.3125 -137.5 l 5x4000028040
 120.3125 -120.3125 l 5x2000028040
 103.125 -120.3125 l 5x2000040040
 103.125 -68.75 l 5x0400040040
 85.9375 -68.75 l 5
 85.9375 -17.1875 l 5x0400080040
 103.125 -17.1875 l 5
 103.125 137.5 l 5x0400040040
 120.3125 137.5 l 5
 120.3125 343.75 l 5x0400020040
 103.125 343.75 l 5
 103.125 412.5 l 5
 85.9375 412.5 l 5x0408240040
 85.9375 395.3125 l 5x0010240040
 68.75 395.3125 l 5
 68.75 154.6875 l 5
 68.75 137.5 l 5x0010100040
 51.5625 137.5 l 5
 51.5625 120.3125 l 5
 51.5625 34.375 l 5x0050400040
 34.375 34.375 l 5
 34.375 17.1875 l 5x0051000040
 17.1875 17.1875 l 5
 17.1875 0 l 5
 0 0 l 5
 0 51.5625 l 5x0150800040
 17.1875 51.5625 l 5
 17.1875 154.6875 l 5x0150400040
 34.375 154.6875 l 5x0150100040
 34.375 412.5 l 5x0148200040
 51.5625 412.5 l 5
 51.5625 429.6875 l 5x0148400040
 68.75 429.6875 l 5
 68.75 446.875 l 5
 85.9375 446.875 l 5x0010180040
 85.9375 464.0625 l 5
 120.3125 464.0625 l 5x0008180040
 120.3125 446.875 l 5x0010180040
 137.5 446.875 l 5
 137.5 360.9375 l 5x0010040040
 154.6875 360.9375 l 5
 154.6875 120.3125 l 5x0050020040
 137.5 120.3125 l 5
 137.5 -17.1875 l 5x0450040040
 137.5 -34.375 l 5x0200040040
 120.3125 -34.375 l 5x0200080040
 120.3125 -51.5625 l 5x1000080040
 137.5 -51.5625 l 5x1000040040
 137.5 -103.125 l 5
 171.875 -103.125 l 5x4000050040
 171.875 -85.9375 l 5x8000050040
 189.0625 -85.9375 l 5x8000008040
 189.0625 -68.75 l 5
 206.25 -68.75 l 5x2000008040
 206.25 -51.5625 l 5
 223.4375 -51.5625 l 5x1000010040
 223.4375 -34.375 l 5x0800010040
 257.8125 -34.375 l 5x0200014040
 257.8125 -17.1875 l 5x0400014040
 275 -17.1875 l 5
 275 17.1875 l 5x0400002040
 292.1875 17.1875 l 5
 292.1875 34.375 l 5x0400001040
 309.375 34.375 l 5
 309.375 68.75 l 5x0420000840
 326.5625 68.75 l 5
 326.5625 103.125 l 5x0420000440
 343.75 103.125 l 5
 343.75 154.6875 l 5x0420000240
 326.5625 154.6875 l 5
 326.5625 189.0625 l 5x0420000440
 309.375 189.0625 l 5
 309.375 223.4375 l 5x0420000840
 292.1875 223.4375 l 5
 292.1875 292.1875 l 5x0420001040
 275 292.1875 l 5
 275 360.9375 l 5x0420002040
 257.8125 360.9375 l 5
 257.8125 412.5 l 5
 257.8125 532.8125 l 5x042c004040
 275 532.8125 l 5
 275 550 l 5x042c002040
 292.1875 550 l 5
 292.1875 567.1875 l 5
 326.5625 567.1875 l 5x0002001040
 326.5625 532.8125 l 5x0004000440
 343.75 532.8125 l 5x0004000240
 343.75 515.625 l 5x0002000240
 360.9375 515.625 l 5
 360.9375 498.4375 l 5x0002000140
 378.125 498.4375 l 5x00020000c0
 378.125 464.0625 l 5x000a000240
 395.3125 464.0625 l 5
 395.3125 378.125 l 5
 395.3125 360.9375 l 5x000a000140
 412.5 360.9375 l 5
 412.5 343.75 l 5
 412.5 275 l 5x000a0000c0
 395.3125 275 l 5
 395.3125 171.875 l 5
 395.3125 120.3125 l 5x004a000140
 412.5 120.3125 l 5x004a0000c0
 412.5 103.125 l 5
 429.6875 103.125 l 5x00200000c0
 429.6875 85.9375 l 5
 481.25 85.9375 l 5x00800000c0
 481.25 103.125 l 5
 515.625 103.125 l 5
 515.625 68.75 l 5
 498.4375 68.75 l 5x00200000c0
 498.4375 51.5625 l 5
 481.25 51.5625 l 5
 412.5 51.5625 l 5x00800000c0
 412.5 68.75 l 5x00400000c0
 395.3125 68.75 l 5x0040000140
 395.3125 85.9375 l 5x0080000140
 360.9375 85.9375 l 5x0080000440
 360.9375 51.5625 l 5
 343.75 51.5625 l 5x0080000940
 343.75 17.1875 l 5x0080000240
 326.5625 17.1875 l 5
 326.5625 0 l 5
 309.375 0 l 5x0100002440
 309.375 -34.375 l 5x0300000840
 292.1875 -34.375 l 5x0300001040
 292.1875 -51.5625 l 5x1000001040
 275 -51.5625 l 5x1000002040
 275 -68.75 l 5x0400002040
 240.625 -68.75 l 5x020000a040
 240.625 -85.9375 l 5x080000a040
 223.4375 -85.9375 l 5x0800010040
 223.4375 -103.125 l 5x1000010040
326.5625 240.625 m 5x0002001040
 343.75 240.625 l 5x0002001240
 343.75 206.25 l 5
 360.9375 206.25 l 5
 360.9375 292.1875 l 5x0002000940
 378.125 292.1875 l 5
 378.125 343.75 l 5x00020000c0
 360.9375 343.75 l 5
 360.9375 360.9375 l 5
 360.9375 446.875 l 5x0012000140
 343.75 446.875 l 5
 343.75 481.25 l 5x0014000240
 326.5625 481.25 l 5
 326.5625 498.4375 l 5x0014000440
 309.375 498.4375 l 5
 309.375 515.625 l 5
 292.1875 515.625 l 5
 292.1875 429.6875 l 5
 292.1875 378.125 l 5
 309.375 378.125 l 5x0002004840
 309.375 309.375 l 5
 326.5625 309.375 l 5x0002002440
 326.5625 240.625 l 5x0002001040
EndSplineSet
Validated: 524289
EndChar
StartChar: W
Encoding: 87 87 83
Width: 516
Flags: W
HStem: -68.75 51.5625<309.375 326.562 343.75 360.938> -68.75 34.375<326.562 343.75> -51.5625 68.75<189.062 206.25 292.188 309.375 360.938 378.125> 0 34.375<0 17.1875> 68.75 34.375<464.062 481.25> 85.9375 51.5625<429.688 446.875> 85.9375 34.375<498.438 515.625> 103.125 51.5625<412.5 429.688> 206.25 51.5625<343.75 360.938> 309.375 51.5625<189.062 206.25> 498.438 51.5625<292.188 309.375> 515.625 51.5625<275 292.188> 532.812 51.5625<257.812 275>
VStem: 0 34.375<0 17.1875> 17.1875 34.375<34.375 103.125> 34.375 34.375<120.312 240.625> 51.5625 68.75<395.312 429.688> 51.5625 34.375<257.812 378.125> 103.125 34.375<292.188 378.125> 120.312 34.375<-34.375 240.625> 154.688 34.375<292.188 309.375> 171.875 34.375<206.25 240.625 343.75 360.938> 189.062 34.375<-17.1875 0> 206.25 34.375<292.188 309.375> 223.438 34.375<206.25 275 464.062 532.812> 240.625 34.375<429.688 446.875 567.188 584.375> 257.812 34.375<378.125 412.5> 275 34.375<-17.1875 0 343.75 360.938> 292.188 34.375<292.188 326.562> 309.375 34.375<257.812 275 481.25 498.438> 326.562 34.375<429.688 464.062> 343.75 34.375<378.125 412.5> 360.938 34.375<309.375 360.938> 378.125 51.5625<137.5 154.688> 378.125 34.375<17.1875 103.125 154.688 171.875 240.625 292.188> 446.875 51.5625<68.75 85.9375> 481.25 34.375<103.125 120.312>
LayerCount: 2
Fore
SplineSet
120.3125 275 m 1x20c010
 103.125 275 l 1
 103.125 378.125 l 1
 85.9375 378.125 l 1
 85.9375 240.625 l 1x20c060
 68.75 240.625 l 1
 68.75 103.125 l 1x21c1
 51.5625 103.125 l 1x21c2
 51.5625 17.1875 l 1
 34.375 17.1875 l 1x21c440
 34.375 0 l 1
 0 0 l 1
 0 34.375 l 1x10c440
 17.1875 34.375 l 1
 17.1875 68.75 l 1x18c2
 17.1875 120.3125 l 1x02c2
 34.375 120.3125 l 1
 34.375 206.25 l 1
 34.375 257.8125 l 1x02c1
 51.5625 257.8125 l 1
 51.5625 360.9375 l 1x02c040
 51.5625 429.6875 l 1x02c080
 68.75 429.6875 l 1
 68.75 446.875 l 1
 103.125 446.875 l 1
 103.125 429.6875 l 1x02c120
 120.3125 429.6875 l 1
 120.3125 395.3125 l 1x02c080
 137.5 395.3125 l 1
 137.5 292.1875 l 1
 154.6875 292.1875 l 1
 154.6875 326.5625 l 1x02c028
 171.875 326.5625 l 1
 171.875 360.9375 l 1
 206.25 360.9375 l 1
 206.25 343.75 l 1
 223.4375 343.75 l 1
 223.4375 326.5625 l 1x02c00480
 240.625 326.5625 l 1x02c00040
 240.625 292.1875 l 1
 257.8125 292.1875 l 1
 257.8125 171.875 l 1
 257.8125 120.3125 l 1
 257.8125 85.9375 l 1x02c00120
 275 85.9375 l 1
 275 34.375 l 1x12c00010
 292.1875 34.375 l 1x12c00008
 292.1875 17.1875 l 1x20c00008
 309.375 17.1875 l 1x20c00004
 309.375 -17.1875 l 1
 326.5625 -17.1875 l 1x80c00012
 326.5625 -34.375 l 1x40c00012
 343.75 -34.375 l 1x40c00001
 343.75 -17.1875 l 1x80c00001
 360.9375 -17.1875 l 1x80c0000080
 360.9375 17.1875 l 1x20c0000080
 378.125 17.1875 l 1
 378.125 120.3125 l 1
 378.125 171.875 l 1x22c0000020
 360.9375 171.875 l 1
 360.9375 206.25 l 1x22c0000080
 343.75 206.25 l 1
 343.75 223.4375 l 1x22c00001
 326.5625 223.4375 l 1
 326.5625 240.625 l 1x22c00002
 309.375 240.625 l 1
 309.375 275 l 1x22c00004
 292.1875 275 l 1
 292.1875 326.5625 l 1x22c00008
 275 326.5625 l 1
 275 360.9375 l 1x22c00010
 257.8125 360.9375 l 1
 257.8125 412.5 l 1x22c00020
 240.625 412.5 l 1
 240.625 446.875 l 1x22c00040
 223.4375 446.875 l 1
 223.4375 567.1875 l 1x22d00080
 240.625 567.1875 l 1x22d00040
 240.625 584.375 l 1
 275 584.375 l 1x00c80040
 275 567.1875 l 1
 292.1875 567.1875 l 1x00d00048
 292.1875 550 l 1x00e00048
 309.375 550 l 1x00e00004
 309.375 532.8125 l 1x00c80004
 326.5625 532.8125 l 1x00c80002
 326.5625 515.625 l 1x00d00002
 343.75 515.625 l 1x00d00001
 343.75 481.25 l 1
 360.9375 481.25 l 1x00d0000480
 360.9375 429.6875 l 1
 378.125 429.6875 l 1x00d0000220
 378.125 378.125 l 1x00d00001
 395.3125 378.125 l 1
 395.3125 309.375 l 1x00d0000080
 412.5 309.375 l 1
 412.5 154.6875 l 1x01d0000020
 429.6875 154.6875 l 1x01d0000040
 429.6875 137.5 l 1
 446.875 137.5 l 1x04c0000050
 446.875 120.3125 l 1
 464.0625 120.3125 l 1x02c0000050
 464.0625 103.125 l 1
 481.25 103.125 l 1x08c0000008
 481.25 120.3125 l 1
 515.625 120.3125 l 1
 515.625 85.9375 l 1x02c0000008
 498.4375 85.9375 l 1x02c0000010
 498.4375 68.75 l 1
 446.875 68.75 l 1x08c0000010
 446.875 85.9375 l 1
 429.6875 85.9375 l 1x04c0000050
 429.6875 103.125 l 1x01c0000050
 412.5 103.125 l 1
 412.5 0 l 1
 412.5 -17.1875 l 1x91c0000020
 395.3125 -17.1875 l 1x91c0000080
 395.3125 -34.375 l 1x40c0000080
 378.125 -34.375 l 1x40c0000020
 378.125 -51.5625 l 1x20c0000020
 360.9375 -51.5625 l 1x20c0000080
 360.9375 -68.75 l 1
 309.375 -68.75 l 1x80c0000480
 309.375 -51.5625 l 1x20c0000480
 292.1875 -51.5625 l 1x20c00008
 292.1875 -34.375 l 1x40c00008
 275 -34.375 l 1
 275 0 l 1x50c00010
 257.8125 0 l 1x50c00020
 257.8125 17.1875 l 1x20c00020
 240.625 17.1875 l 1x20c00040
 240.625 0 l 1
 223.4375 0 l 1x10c00240
 223.4375 -34.375 l 1x50c00080
 206.25 -34.375 l 1x50c001
 206.25 -51.5625 l 1x20c001
 189.0625 -51.5625 l 1
 189.0625 -85.9375 l 1x20c002
 171.875 -85.9375 l 1
 171.875 -103.125 l 1
 137.5 -103.125 l 1
 137.5 -85.9375 l 1x20c024
 120.3125 -85.9375 l 1
 120.3125 275 l 1x20c010
206.25 206.25 m 1x00c004
 223.4375 206.25 l 1
 223.4375 223.4375 l 1
 223.4375 275 l 1x00c00480
 206.25 275 l 1
 206.25 309.375 l 1
 189.0625 309.375 l 1x00c009
 189.0625 257.8125 l 1x00c002
 206.25 257.8125 l 1x00c001
 206.25 223.4375 l 1
 206.25 206.25 l 1x00c004
326.5625 292.1875 m 1x00c80008
 343.75 292.1875 l 1x00c80009
 343.75 257.8125 l 1
 360.9375 257.8125 l 1
 360.9375 240.625 l 1x00c8000480
 378.125 240.625 l 1
 378.125 292.1875 l 1x00c8000020
 360.9375 292.1875 l 1
 360.9375 360.9375 l 1x00c8000080
 343.75 360.9375 l 1
 343.75 412.5 l 1x00c80001
 326.5625 412.5 l 1
 326.5625 464.0625 l 1x00c80002
 309.375 464.0625 l 1
 309.375 498.4375 l 1x00e00004
 292.1875 498.4375 l 1x00e00008
 292.1875 515.625 l 1x00d00008
 275 515.625 l 1x00d00010
 275 532.8125 l 1
 257.8125 532.8125 l 1
 257.8125 464.0625 l 1
 275 464.0625 l 1x00c80090
 275 429.6875 l 1
 292.1875 429.6875 l 1x00c80048
 292.1875 395.3125 l 1
 292.1875 378.125 l 1
 309.375 378.125 l 1x00c80024
 309.375 360.9375 l 1
 309.375 343.75 l 1
 326.5625 343.75 l 1x00c80012
 326.5625 326.5625 l 1
 326.5625 292.1875 l 1x00c80008
154.6875 -34.375 m 1x44c014
 171.875 -34.375 l 1x44c014
 171.875 -17.1875 l 1x80c014
 189.0625 -17.1875 l 1x80c002
 189.0625 17.1875 l 1x20c002
 206.25 17.1875 l 1
 206.25 137.5 l 1x24c001
 189.0625 137.5 l 1
 189.0625 189.0625 l 1x24c002
 171.875 189.0625 l 1
 171.875 240.625 l 1
 154.6875 240.625 l 1
 154.6875 171.875 l 1
 154.6875 -34.375 l 1x44c014
EndSplineSet
Validated: 524289
EndChar
StartChar: X
Encoding: 88 88 84
Width: 516
Flags: W
HStem: -206.25 51.5625<189.062 206.25 240.625 257.812> -206.25 34.375<206.25 240.625> -189.062 51.5625<171.875 189.062> -120.312 51.5625<343.75 360.938 412.5 429.688> -120.312 34.375<360.938 412.5> -103.125 51.5625<326.562 343.75 429.688 446.875> -17.1875 51.5625<429.688 446.875> 0 51.5625<34.375 51.5625> 0 34.375<17.1875 34.375 498.438 515.625> 17.1875 51.5625<51.5625 68.75> 34.375 51.5625<68.75 85.9375> 51.5625 51.5625<378.125 395.312> 68.75 51.5625<446.875 464.062> 85.9375 34.375<412.5 446.875> 206.25 51.5625<326.562 343.75> 223.438 51.5625<343.75 360.938> 240.625 51.5625<360.938 378.125> 257.812 51.5625<395.312 412.5> 257.812 34.375<378.125 395.312> 275 51.5625<412.5 429.688> 292.188 51.5625<429.688 446.875> 309.375 68.75<68.75 85.9375 343.75 360.938> 309.375 51.5625<446.875 464.062> 360.938 51.5625<378.125 395.312> 378.125 51.5625<395.312 412.5> 395.312 51.5625<412.5 429.688> 412.5 68.75<120.312 137.5 429.688 446.875> 429.688 51.5625<446.875 464.062> 446.875 34.375<0 17.1875> 498.438 34.375<51.5625 85.9375>
VStem: 0 51.5625<446.875 481.25> 17.1875 34.375<0 17.1875 412.5 446.875 481.25 498.438> 34.375 51.5625<34.375 51.5625 360.938 378.125> 34.375 34.375<378.125 395.312> 51.5625 51.5625<51.5625 68.75 343.75 360.938> 68.75 34.375<326.562 343.75> 85.9375 34.375<85.9375 103.125 292.188 309.375 481.25 498.438> 103.125 34.375<120.312 137.5> 120.312 34.375<154.688 171.875 429.688 446.875> 137.5 34.375<-137.5 -103.125 206.25 223.438 360.938 412.5> 154.688 34.375<-85.9375 -51.5625 275 343.75> 171.875 34.375<-34.375 -17.1875 154.688 171.875> 189.062 34.375<0 17.1875> 206.25 103.125<34.375 68.75 85.9375 103.125> 240.625 51.5625<-171.875 -154.688> 257.812 34.375<-154.688 -137.5> 275 34.375<-120.312 -85.9375> 292.188 34.375<257.812 275> 309.375 51.5625<309.375 326.562> 309.375 34.375<292.188 309.375> 326.562 51.5625<326.562 360.938> 343.75 51.5625<360.938 378.125> 360.938 51.5625<378.125 395.312> 378.125 34.375<68.75 85.9375> 395.312 51.5625<17.1875 34.375 292.188 309.375 412.5 429.688> 395.312 34.375<34.375 51.5625> 412.5 51.5625<-85.9375 -68.75 309.375 326.562> 429.688 51.5625<-68.75 -51.5625 326.562 343.75 464.062 481.25> 446.875 34.375<-51.5625 -34.375> 464.062 51.5625<17.1875 34.375> 464.062 34.375<34.375 68.75 360.938 429.688>
LayerCount: 2
Fore
SplineSet
137.5 -85.9375 m 1x8800000401
 154.6875 -85.9375 l 1
 154.6875 -34.375 l 1x880000040080
 171.875 -34.375 l 1
 171.875 0 l 1x888000040040
 189.0625 0 l 1x888000040020
 189.0625 34.375 l 1x002000040020
 206.25 34.375 l 1x002000040010
 206.25 68.75 l 1x000800040010
 223.4375 68.75 l 1x000800040020
 223.4375 85.9375 l 1x000400040020
 206.25 85.9375 l 1x000400040010
 206.25 103.125 l 1x001000040010
 189.0625 103.125 l 1x001000040020
 189.0625 120.3125 l 1
 189.0625 137.5 l 1x000400040020
 171.875 137.5 l 1
 171.875 154.6875 l 1
 171.875 171.875 l 1
 154.6875 171.875 l 1
 154.6875 154.6875 l 1x000400040240
 154.6875 137.5 l 1
 137.5 137.5 l 1
 137.5 120.3125 l 1x000400040480
 137.5 103.125 l 1
 120.3125 103.125 l 1x0010000409
 120.3125 85.9375 l 1x0004000409
 120.3125 68.75 l 1
 103.125 68.75 l 1x0008000422
 103.125 51.5625 l 1x0010000422
 85.9375 51.5625 l 1x0010000480
 85.9375 34.375 l 1x0020000480
 68.75 34.375 l 1x0020000410
 68.75 17.1875 l 1
 51.5625 17.1875 l 1x0040000510
 51.5625 0 l 1x0100000510
 17.1875 0 l 1
 17.1875 34.375 l 1x0080000510
 34.375 34.375 l 1x0080000480
 34.375 51.5625 l 1x0100000480
 51.5625 51.5625 l 1x0100000420
 51.5625 68.75 l 1x0040000420
 68.75 68.75 l 1x0040000410
 68.75 85.9375 l 1x0020000410
 85.9375 85.9375 l 1x0020000408
 85.9375 120.3125 l 1x0004000408
 103.125 120.3125 l 1
 103.125 154.6875 l 1x0004000404
 120.3125 154.6875 l 1
 120.3125 206.25 l 1x0006000402
 137.5 206.25 l 1x0006000401
 137.5 223.4375 l 1x0001000401
 120.3125 223.4375 l 1x0001000402
 120.3125 240.625 l 1x0000800402
 120.3125 257.8125 l 1x0000200402
 103.125 257.8125 l 1x0000200404
 103.125 275 l 1x0000100404
 85.9375 275 l 1x0000100408
 85.9375 309.375 l 1x0000040408
 68.75 309.375 l 1x0000040410
 68.75 343.75 l 1x0000080410
 51.5625 343.75 l 1
 51.5625 360.9375 l 1x0000090420
 34.375 360.9375 l 1x0000090480
 34.375 395.3125 l 1x0000004440
 17.1875 395.3125 l 1x00000045
 17.1875 429.6875 l 1x00000015
 17.1875 446.875 l 1x0000000d
 0 446.875 l 1
 0 464.0625 l 1
 0 481.25 l 1x0000000e
 17.1875 481.25 l 1
 17.1875 498.4375 l 1
 17.1875 515.625 l 1x0000000d
 34.375 515.625 l 1
 34.375 532.8125 l 1
 103.125 532.8125 l 1
 103.125 515.625 l 1x0000000c44
 120.3125 515.625 l 1x0000000c02
 120.3125 481.25 l 1
 137.5 481.25 l 1
 137.5 464.0625 l 1x0000002409
 154.6875 464.0625 l 1x000000240080
 154.6875 429.6875 l 1
 171.875 429.6875 l 1x000000140240
 171.875 360.9375 l 1
 189.0625 360.9375 l 1
 189.0625 240.625 l 1x000081140120
 171.875 240.625 l 1x000081140040
 171.875 206.25 l 1
 189.0625 206.25 l 1
 189.0625 189.0625 l 1x000200040120
 206.25 189.0625 l 1x000200040010
 206.25 171.875 l 1
 206.25 154.6875 l 1x000200040040
 223.4375 154.6875 l 1
 223.4375 137.5 l 1
 240.625 137.5 l 1
 240.625 154.6875 l 1x000200040028
 257.8125 154.6875 l 1
 257.8125 206.25 l 1x000200040004
 275 206.25 l 1x000200040002
 275 257.8125 l 1x000020040002
 292.1875 257.8125 l 1x000020040001
 292.1875 292.1875 l 1x000008040001
 309.375 292.1875 l 1x00000804000040
 309.375 326.5625 l 1x00001004000080
 326.5625 326.5625 l 1
 326.5625 360.9375 l 1x00001104000020
 343.75 360.9375 l 1x00001104000010
 343.75 378.125 l 1x00000404000010
 360.9375 378.125 l 1
 360.9375 395.3125 l 1x00000444000008
 378.125 395.3125 l 1x00000444000004
 378.125 412.5 l 1x00000104000004
 395.3125 412.5 l 1x00000104000002
 395.3125 429.6875 l 1x00000084000002
 412.5 429.6875 l 1x0000008400000080
 412.5 446.875 l 1x0000004400000080
 429.6875 446.875 l 1x0000004400000040
 429.6875 481.25 l 1x0000002400000040
 481.25 481.25 l 1
 481.25 464.0625 l 1x0000000c00000040
 498.4375 464.0625 l 1
 498.4375 343.75 l 1x0000080c00000008
 481.25 343.75 l 1x0000080c00000040
 481.25 326.5625 l 1x0000100400000040
 464.0625 326.5625 l 1x0000100400000080
 464.0625 309.375 l 1x0000020400000080
 446.875 309.375 l 1x00000204000002
 446.875 292.1875 l 1x00000804000002
 429.6875 292.1875 l 1x0000080400000040
 429.6875 275 l 1x0000100400000040
 412.5 275 l 1x0000100400000080
 412.5 257.8125 l 1x0000400400000080
 378.125 257.8125 l 1x00002004000004
 378.125 240.625 l 1x00008004000004
 360.9375 240.625 l 1x00008004000008
 360.9375 223.4375 l 1x00010004000008
 343.75 223.4375 l 1x00010004000010
 343.75 206.25 l 1x00020004000010
 326.5625 206.25 l 1
 326.5625 189.0625 l 1x00020004000020
 309.375 189.0625 l 1x00020004000040
 309.375 34.375 l 1
 326.5625 34.375 l 1
 326.5625 -51.5625 l 1x04220004001020
 343.75 -51.5625 l 1x04220004000010
 343.75 -68.75 l 1x10000004000010
 360.9375 -68.75 l 1x10000004000008
 360.9375 -85.9375 l 1x08000004000008
 412.5 -85.9375 l 1x0800000400000080
 412.5 -68.75 l 1x1000000400000080
 429.6875 -68.75 l 1x1000000400000040
 429.6875 -51.5625 l 1x0400000400000040
 446.875 -51.5625 l 1
 446.875 -17.1875 l 1x0600000400000020
 429.6875 -17.1875 l 1x0600000400000040
 429.6875 0 l 1x0080000400000040
 412.5 0 l 1x0080000400000080
 412.5 17.1875 l 1x0040000400000080
 395.3125 17.1875 l 1x00400004000002
 395.3125 51.5625 l 1x00100004000001
 378.125 51.5625 l 1
 378.125 103.125 l 1x00100004000004
 395.3125 103.125 l 1x00100004000001
 395.3125 120.3125 l 1x00040004000001
 412.5 120.3125 l 1x0004000400000080
 464.0625 120.3125 l 1x0008000400000008
 464.0625 103.125 l 1x0010000400000008
 481.25 103.125 l 1x0010000400000020
 481.25 85.9375 l 1x0004000400000020
 498.4375 85.9375 l 1
 498.4375 34.375 l 1x0084000400000008
 515.625 34.375 l 1
 515.625 0 l 1x0084000400000010
 498.4375 0 l 1
 498.4375 -34.375 l 1x0084000400000008
 481.25 -34.375 l 1x0084000400000020
 481.25 -68.75 l 1x1084000400000040
 464.0625 -68.75 l 1x1084000400000080
 464.0625 -85.9375 l 1x0800000400000080
 446.875 -85.9375 l 1x0800000400000020
 446.875 -103.125 l 1x0400000400000020
 429.6875 -103.125 l 1x0400000400000040
 429.6875 -120.3125 l 1
 343.75 -120.3125 l 1x1000000400001040
 343.75 -103.125 l 1x0400000400001040
 326.5625 -103.125 l 1x04000004000020
 326.5625 -85.9375 l 1
 309.375 -85.9375 l 1x08000004000220
 309.375 -137.5 l 1
 292.1875 -137.5 l 1x28000004000440
 292.1875 -171.875 l 1x400000040008
 275 -171.875 l 1x400000040002
 275 -189.0625 l 1x200000040002
 257.8125 -189.0625 l 1x200000040004
 257.8125 -206.25 l 1
 189.0625 -206.25 l 1x800000040024
 189.0625 -189.0625 l 1x200000040024
 171.875 -189.0625 l 1x200000040040
 171.875 -171.875 l 1x400000040040
 154.6875 -171.875 l 1x400000040080
 154.6875 -154.6875 l 1x800000040080
 137.5 -154.6875 l 1
 137.5 -85.9375 l 1x8800000401
223.4375 17.1875 m 1x044000040024
 223.4375 -17.1875 l 1x020000040024
 206.25 -17.1875 l 1x020000040040
 206.25 -51.5625 l 1
 189.0625 -51.5625 l 1x060000040090
 189.0625 -103.125 l 1
 171.875 -103.125 l 1
 171.875 -137.5 l 1
 189.0625 -137.5 l 1x260000040120
 189.0625 -154.6875 l 1x800000040120
 206.25 -154.6875 l 1x800000040010
 206.25 -171.875 l 1x400000040010
 223.4375 -171.875 l 1
 240.625 -171.875 l 1x400000040028
 240.625 -154.6875 l 1x800000040028
 257.8125 -154.6875 l 1
 257.8125 -120.3125 l 1x880000040004
 275 -120.3125 l 1
 275 -85.9375 l 1x880000040002
 275 -51.5625 l 1x040000040002
 257.8125 -51.5625 l 1
 257.8125 17.1875 l 1
 223.4375 17.1875 l 1x044000040024
395.3125 292.1875 m 1x00002004000002
 395.3125 309.375 l 1x00004004000002
 412.5 309.375 l 1x0000400400000080
 412.5 326.5625 l 1x0000100400000080
 429.6875 326.5625 l 1x0000100400000040
 429.6875 343.75 l 1x0000080400000040
 446.875 343.75 l 1x0000080400000020
 446.875 360.9375 l 1x0000020400000020
 464.0625 360.9375 l 1
 464.0625 378.125 l 1x0000028400000008
 464.0625 429.6875 l 1
 446.875 429.6875 l 1x0000001400000208
 446.875 412.5 l 1x0000002400000208
 429.6875 412.5 l 1x0000002400000040
 429.6875 395.3125 l 1
 412.5 395.3125 l 1x0000004400000840
 412.5 378.125 l 1x0000008400000840
 395.3125 378.125 l 1x00000084000010
 395.3125 360.9375 l 1x00000104000010
 378.125 360.9375 l 1
 378.125 326.5625 l 1x00001104000020
 360.9375 326.5625 l 1x00001104000080
 360.9375 309.375 l 1x00000404000080
 343.75 309.375 l 1x00000404000040
 343.75 275 l 1x00010404000010
 326.5625 275 l 1
 326.5625 257.8125 l 1
 343.75 257.8125 l 1x00021004000110
 343.75 275 l 1x00010004000110
 360.9375 275 l 1x00010004000008
 360.9375 292.1875 l 1x00008004000008
 395.3125 292.1875 l 1x00002004000002
154.6875 343.75 m 1x000008040080
 137.5 343.75 l 1
 137.5 412.5 l 1x0000082401
 120.3125 412.5 l 1x0000082402
 120.3125 446.875 l 1x0000000c02
 103.125 446.875 l 1
 103.125 464.0625 l 1x0000000c04
 85.9375 464.0625 l 1
 85.9375 481.25 l 1
 85.9375 498.4375 l 1
 51.5625 498.4375 l 1x0000000d08
 51.5625 481.25 l 1
 51.5625 446.875 l 1x0000000e
 51.5625 412.5 l 1
 68.75 412.5 l 1x0000002510
 68.75 378.125 l 1x0000042440
 85.9375 378.125 l 1x0000042480
 85.9375 360.9375 l 1x0000010480
 103.125 360.9375 l 1x0000010420
 103.125 326.5625 l 1
 120.3125 326.5625 l 1x0000110412
 120.3125 292.1875 l 1
 137.5 292.1875 l 1x0000080409
 137.5 275 l 1x0000100409
 154.6875 275 l 1x000010040080
 154.6875 343.75 l 1x000008040080
464.0625 51.5625 m 1x0010000400000008
 464.0625 68.75 l 1x0008000400000008
 446.875 68.75 l 1x0008000400000020
 446.875 85.9375 l 1
 412.5 85.9375 l 1x0004000400000420
 412.5 68.75 l 1
 429.6875 68.75 l 1x0008000400000440
 429.6875 34.375 l 1x02080004000001
 446.875 34.375 l 1x02080004000002
 446.875 17.1875 l 1
 464.0625 17.1875 l 1x0040000400000210
 464.0625 51.5625 l 1x0010000400000008
EndSplineSet
Validated: 524293
EndChar
StartChar: Y
Encoding: 89 89 85
Width: 516
Flags: W
HStem: -257.812 34.375<189.062 223.438> -240.625 34.375<240.625 257.812> -223.438 34.375<275 292.188> -206.25 51.5625<326.562 343.75> -206.25 34.375<309.375 326.562> -189.062 51.5625<343.75 360.938> -17.1875 34.375<171.875 189.062> 0 51.5625<17.1875 34.375 257.812 292.188> 0 34.375<0 17.1875 481.25 515.625> 17.1875 51.5625<34.375 51.5625 292.188 309.375 429.688 464.062> 34.375 51.5625<51.5625 68.75> 34.375 34.375<360.938 378.125> 51.5625 51.5625<68.75 85.9375> 326.562 51.5625<103.125 137.5> 412.5 51.5625<360.938 378.125> 429.688 51.5625<275 292.188 343.75 360.938> 446.875 51.5625<292.188 309.375 326.562 343.75> 464.062 34.375<309.375 326.562>
VStem: 0 51.5625<17.1875 34.375> 0 34.375<0 17.1875> 17.1875 51.5625<34.375 51.5625> 34.375 51.5625<51.5625 68.75> 68.75 34.375<189.062 326.562> 85.9375 51.5625<103.125 137.5> 103.125 34.375<360.938 378.125> 120.312 34.375<34.375 51.5625 189.062 206.25> 137.5 34.375<-206.25 -120.312 223.438 326.562> 154.688 34.375<-103.125 -85.9375> 171.875 51.5625<-51.5625 -34.375> 171.875 34.375<-68.75 -51.5625> 189.062 51.5625<-34.375 -17.1875> 240.625 34.375<378.125 429.688> 257.812 34.375<343.75 360.938> 275 34.375<309.375 326.562> 292.188 51.5625<257.812 275 481.25 498.438> 292.188 34.375<275 292.188> 309.375 51.5625<68.75 85.9375 240.625 257.812> 326.562 34.375<223.438 240.625> 343.75 34.375<171.875 206.25> 360.938 34.375<-137.5 -120.312> 378.125 34.375<-103.125 -68.75 68.75 85.9375 395.312 412.5> 395.312 34.375<-51.5625 17.1875 171.875 378.125> 464.062 51.5625<0 17.1875>
LayerCount: 2
Fore
SplineSet
137.5 -103.125 m 1x200400200020
 154.6875 -103.125 l 1
 154.6875 -68.75 l 1x200400100020
 171.875 -68.75 l 1x200400040020
 171.875 -34.375 l 1x200400080020
 189.0625 -34.375 l 1
 189.0625 -17.1875 l 1x220400020020
 154.6875 -17.1875 l 1x220400100020
 154.6875 0 l 1x008400100020
 137.5 0 l 1x008400200020
 137.5 17.1875 l 1x004400200020
 120.3125 17.1875 l 1x004400400020
 120.3125 51.5625 l 1x000c00400020
 103.125 51.5625 l 1x000c00800020
 103.125 68.75 l 1
 85.9375 68.75 l 1x001404800020
 85.9375 51.5625 l 1x000c04800020
 68.75 51.5625 l 1x000c08000020
 68.75 34.375 l 1x002408000020
 51.5625 34.375 l 1x002420000020
 51.5625 17.1875 l 1x004420000020
 34.375 17.1875 l 1x004410000020
 34.375 0 l 1x010410000020
 0 0 l 1x008410000020
 0 17.1875 l 1x004420000020
 0 34.375 l 1x008420000020
 17.1875 34.375 l 1x008408000020
 17.1875 51.5625 l 1x010408000020
 34.375 51.5625 l 1x010404000020
 34.375 68.75 l 1x004404000020
 51.5625 68.75 l 1x004420000020
 51.5625 85.9375 l 1
 68.75 85.9375 l 1x002422000020
 68.75 103.125 l 1x000c22000020
 85.9375 103.125 l 1
 85.9375 120.3125 l 1
 85.9375 137.5 l 1
 85.9375 171.875 l 1x000c01000020
 68.75 171.875 l 1
 68.75 206.25 l 1
 68.75 343.75 l 1x000c02000020
 85.9375 343.75 l 1
 85.9375 360.9375 l 1x000c01000020
 103.125 360.9375 l 1
 103.125 378.125 l 1
 137.5 378.125 l 1
 137.5 360.9375 l 1
 154.6875 360.9375 l 1
 154.6875 343.75 l 1x000c00900020
 171.875 343.75 l 1x000c00040020
 171.875 240.625 l 1x000c00200020
 171.875 206.25 l 1
 154.6875 206.25 l 1x000c00440020
 154.6875 137.5 l 1
 137.5 137.5 l 1x000c01100020
 137.5 68.75 l 1x001400200020
 154.6875 68.75 l 1x001400100020
 154.6875 34.375 l 1
 171.875 34.375 l 1
 171.875 17.1875 l 1x021400440020
 223.4375 17.1875 l 1x004400080020
 223.4375 34.375 l 1
 257.8125 34.375 l 1x001400088020
 257.8125 51.5625 l 1x010400088020
 292.1875 51.5625 l 1x010400001020
 292.1875 68.75 l 1x004400001020
 309.375 68.75 l 1x004400000820
 309.375 85.9375 l 1x002400000820
 326.5625 85.9375 l 1x002400000420
 326.5625 103.125 l 1x000c00000420
 343.75 103.125 l 1
 343.75 120.3125 l 1x000c00000220
 360.9375 120.3125 l 1
 360.9375 154.6875 l 1x000c00000120
 343.75 154.6875 l 1
 343.75 206.25 l 1x000c00000220
 326.5625 206.25 l 1
 326.5625 240.625 l 1x000c00000420
 309.375 240.625 l 1
 309.375 257.8125 l 1x000c00000820
 292.1875 257.8125 l 1x000c00002020
 292.1875 292.1875 l 1x000c00001020
 275 292.1875 l 1
 275 326.5625 l 1x000c00004020
 257.8125 326.5625 l 1
 257.8125 360.9375 l 1x000c00008020
 240.625 360.9375 l 1
 240.625 395.3125 l 1
 240.625 446.875 l 1x000c80010020
 257.8125 446.875 l 1x000c80008020
 257.8125 464.0625 l 1x000440008020
 275 464.0625 l 1x000440004020
 275 481.25 l 1x000500004020
 292.1875 481.25 l 1x000500002020
 292.1875 498.4375 l 1
 343.75 498.4375 l 1x000480002020
 343.75 481.25 l 1
 360.9375 481.25 l 1x000500002120
 360.9375 464.0625 l 1x000600002120
 378.125 464.0625 l 1x0006000000a0
 378.125 446.875 l 1x0004800000a0
 395.3125 446.875 l 1x000480000060
 395.3125 429.6875 l 1x000500000060
 412.5 429.6875 l 1
 412.5 395.3125 l 1x0005000000a0
 429.6875 395.3125 l 1
 429.6875 154.6875 l 1x000500000060
 412.5 154.6875 l 1
 412.5 68.75 l 1
 481.25 68.75 l 1x0015000000a0
 481.25 34.375 l 1
 515.625 34.375 l 1
 515.625 0 l 1
 464.0625 0 l 1x0084000000a0
 464.0625 17.1875 l 1
 429.6875 17.1875 l 1
 429.6875 -68.75 l 1x004400000060
 412.5 -68.75 l 1
 412.5 -120.3125 l 1x0044000000a0
 395.3125 -120.3125 l 1x004400000120
 395.3125 -154.6875 l 1x104400000060
 378.125 -154.6875 l 1x1044000000a0
 378.125 -171.875 l 1x0804000000a0
 360.9375 -171.875 l 1x080400000120
 360.9375 -189.0625 l 1x040400000120
 343.75 -189.0625 l 1x040400000220
 343.75 -206.25 l 1x100400000220
 309.375 -206.25 l 1x080400000820
 309.375 -223.4375 l 1x200400000820
 275 -223.4375 l 1x200400004020
 275 -240.625 l 1x400400004020
 240.625 -240.625 l 1x400400010020
 240.625 -257.8125 l 1
 171.875 -257.8125 l 1x800400050020
 171.875 -240.625 l 1x400400050020
 154.6875 -240.625 l 1x400400100020
 154.6875 -223.4375 l 1x200400100020
 137.5 -223.4375 l 1
 137.5 -103.125 l 1x200400200020
326.5625 309.375 m 1x000500004420
 326.5625 275 l 1x000500001020
 343.75 275 l 1
 343.75 257.8125 l 1x000500002020
 360.9375 257.8125 l 1x000500000820
 360.9375 223.4375 l 1
 378.125 223.4375 l 1x0005000004a0
 378.125 171.875 l 1
 395.3125 171.875 l 1
 395.3125 206.25 l 1
 395.3125 378.125 l 1x000500000260
 378.125 378.125 l 1
 378.125 412.5 l 1x0006000000a0
 360.9375 412.5 l 1x000600000120
 360.9375 429.6875 l 1x000500000120
 343.75 429.6875 l 1x000500000220
 343.75 446.875 l 1x000480000220
 326.5625 446.875 l 1x000480000420
 326.5625 464.0625 l 1x000440000420
 309.375 464.0625 l 1x000440000820
 309.375 446.875 l 1x000480000820
 292.1875 446.875 l 1x000480001020
 292.1875 429.6875 l 1
 275 429.6875 l 1
 275 378.125 l 1
 292.1875 378.125 l 1x000500011020
 292.1875 343.75 l 1
 309.375 343.75 l 1x000500008820
 309.375 309.375 l 1
 326.5625 309.375 l 1x000500004420
137.5 326.5625 m 1x000400200020
 103.125 326.5625 l 1
 103.125 189.0625 l 1
 120.3125 189.0625 l 1
 120.3125 223.4375 l 1x000402400020
 137.5 223.4375 l 1
 137.5 326.5625 l 1x000400200020
189.0625 -85.9375 m 1x020400100020
 189.0625 -120.3125 l 1
 171.875 -120.3125 l 1
 171.875 -206.25 l 1
 189.0625 -206.25 l 1
 189.0625 -223.4375 l 1x8a0400220020
 223.4375 -223.4375 l 1
 223.4375 -206.25 l 1x8a0400080020
 257.8125 -206.25 l 1
 257.8125 -189.0625 l 1x440400088020
 292.1875 -189.0625 l 1x200400001020
 292.1875 -171.875 l 1x080400001020
 326.5625 -171.875 l 1x080400000420
 326.5625 -154.6875 l 1x100400000420
 343.75 -154.6875 l 1x100400000220
 343.75 -137.5 l 1x040400000220
 360.9375 -137.5 l 1
 360.9375 -103.125 l 1x040400000120
 378.125 -103.125 l 1
 378.125 -51.5625 l 1x0404000000a0
 395.3125 -51.5625 l 1
 395.3125 0 l 1x048400000060
 395.3125 34.375 l 1x001400000060
 360.9375 34.375 l 1x001400000120
 360.9375 17.1875 l 1
 292.1875 17.1875 l 1x004400001120
 292.1875 0 l 1x010400001120
 257.8125 0 l 1x010400008020
 257.8125 -17.1875 l 1
 240.625 -17.1875 l 1
 240.625 -34.375 l 1x020400028020
 223.4375 -34.375 l 1
 223.4375 -51.5625 l 1x020400080020
 206.25 -51.5625 l 1
 206.25 -85.9375 l 1x020400040020
 189.0625 -85.9375 l 1x020400100020
378.125 68.75 m 1x0014000008a0
 378.125 85.9375 l 1
 360.9375 85.9375 l 1x0024000008a0
 360.9375 68.75 l 1
 378.125 68.75 l 1x0014000008a0
EndSplineSet
Validated: 524289
EndChar
StartChar: Z
Encoding: 90 90 86
Width: 498
Flags: W
HStem: -223.438 34.375<68.75 120.312> -206.25 34.375<137.5 154.688> -189.062 51.5625<171.875 189.062> -189.062 34.375<17.1875 34.375> -171.875 51.5625<189.062 206.25> -154.688 51.5625<206.25 223.438> -137.5 51.5625<223.438 240.625> -120.312 51.5625<240.625 257.812> -103.125 51.5625<85.9375 103.125> -85.9375 51.5625<103.125 120.312> -68.75 34.375<120.312 137.5> -51.5625 34.375<154.688 189.062> -34.375 51.5625<240.625 257.812> -34.375 34.375<206.25 240.625> 0 51.5625<34.375 51.5625 343.75 360.938 412.5 429.688> 0 34.375<0 34.375 120.312 137.5 429.688 498.438> 17.1875 51.5625<360.938 378.125> 68.75 51.5625<412.5 429.688> 120.312 51.5625<223.438 240.625> 137.5 51.5625<240.625 257.812> 154.688 51.5625<257.812 275 309.375 326.562 412.5 429.688> 171.875 34.375<275 309.375> 189.062 51.5625<137.5 154.688> 189.062 34.375<120.312 137.5> 206.25 51.5625<154.688 171.875> 464.062 51.5625<275 292.188>
VStem: 0 51.5625<0 17.1875> 17.1875 51.5625<-189.062 -154.688> 34.375 34.375<-154.688 -137.5 275 292.188> 51.5625 34.375<-120.312 -103.125 51.5625 85.9375> 68.75 51.5625<-85.9375 -68.75> 68.75 34.375<103.125 171.875> 120.312 51.5625<17.1875 34.375> 120.312 34.375<0 17.1875> 137.5 51.5625<34.375 68.75 223.438 240.625> 154.688 51.5625<-171.875 -154.688> 171.875 34.375<257.812 275> 189.062 34.375<171.875 189.062> 206.25 34.375<206.25 240.625> 223.438 34.375<257.812 275> 240.625 34.375<429.688 464.062> 257.812 51.5625<-51.5625 -34.375> 257.812 34.375<-68.75 -51.5625 498.438 515.625> 309.375 34.375<51.5625 85.9375> 326.562 34.375<85.9375 154.688> 360.938 51.5625<51.5625 68.75> 378.125 51.5625<68.75 85.9375> 378.125 34.375<120.312 154.688> 412.5 34.375<189.062 206.25> 429.688 34.375<120.312 154.688>
LayerCount: 2
Fore
SplineSet
103.125 -51.5625 m 1x00800041
 103.125 -34.375 l 1x00400041
 137.5 -34.375 l 1x0020004120
 137.5 -17.1875 l 1x0010004120
 189.0625 -17.1875 l 1
 189.0625 0 l 1x0011004004
 240.625 0 l 1x000400400480
 240.625 17.1875 l 1x000800400480
 292.1875 17.1875 l 1x000080400020
 292.1875 34.375 l 1
 309.375 34.375 l 1x000100400030
 309.375 51.5625 l 1
 309.375 85.9375 l 1x000200400030
 326.5625 85.9375 l 1
 326.5625 120.3125 l 1x000220400008
 326.5625 137.5 l 1x000010400008
 326.5625 154.6875 l 1x000008400008
 309.375 154.6875 l 1x000008400010
 309.375 171.875 l 1
 275 171.875 l 1x000004400090
 275 154.6875 l 1x000008400090
 257.8125 154.6875 l 1x000008400020
 257.8125 137.5 l 1x000010400020
 240.625 137.5 l 1x000010400080
 240.625 120.3125 l 1x000020400080
 223.4375 120.3125 l 1
 223.4375 103.125 l 1
 223.4375 85.9375 l 1x0000204001
 206.25 85.9375 l 1
 206.25 68.75 l 1
 189.0625 68.75 l 1
 189.0625 34.375 l 1x0001404022
 171.875 34.375 l 1x0001404080
 171.875 17.1875 l 1x0000804080
 154.6875 17.1875 l 1x0000804040
 154.6875 0 l 1
 120.3125 0 l 1x0001004040
 120.3125 34.375 l 1x0001004080
 137.5 34.375 l 1
 137.5 68.75 l 1
 137.5 103.125 l 1x0001404020
 154.6875 103.125 l 1
 154.6875 137.5 l 1x0001504010
 171.875 137.5 l 1x0001504008
 171.875 171.875 l 1x0000044008
 189.0625 171.875 l 1x0000044004
 189.0625 206.25 l 1x000000c004
 206.25 206.25 l 1x000000c002
 206.25 240.625 l 1
 189.0625 240.625 l 1x0000024022
 189.0625 223.4375 l 1x0000014022
 171.875 223.4375 l 1x0000014008
 171.875 206.25 l 1x000000c008
 154.6875 206.25 l 1x000000c010
 154.6875 189.0625 l 1x0000024010
 120.3125 189.0625 l 1x0000014040
 120.3125 171.875 l 1
 103.125 171.875 l 1
 103.125 85.9375 l 1x0000044140
 85.9375 85.9375 l 1
 85.9375 34.375 l 1x00010444
 68.75 34.375 l 1x00010441
 68.75 17.1875 l 1
 51.5625 17.1875 l 1x00008061
 51.5625 0 l 1x00020061
 0 0 l 1
 0 34.375 l 1x00010061
 34.375 34.375 l 1x00010048
 34.375 51.5625 l 1x00020048
 51.5625 51.5625 l 1
 51.5625 103.125 l 1x00020044
 68.75 103.125 l 1
 68.75 171.875 l 1x00020441
 51.5625 171.875 l 1x00020444
 51.5625 189.0625 l 1x00000144
 34.375 189.0625 l 1x00000148
 34.375 206.25 l 1x000000c8
 17.1875 206.25 l 1
 17.1875 275 l 1x000000d0
 34.375 275 l 1
 34.375 292.1875 l 1
 68.75 292.1875 l 1
 68.75 275 l 1x000000c8
 85.9375 275 l 1
 85.9375 257.8125 l 1x000000c4
 85.9375 240.625 l 1x00000244
 103.125 240.625 l 1x00000241
 103.125 223.4375 l 1
 137.5 223.4375 l 1x0000014120
 137.5 240.625 l 1x0000024120
 154.6875 240.625 l 1x0000024010
 154.6875 257.8125 l 1x000000c010
 171.875 257.8125 l 1
 171.875 292.1875 l 1x000000c008
 189.0625 292.1875 l 1
 189.0625 326.5625 l 1x000000c004
 206.25 326.5625 l 1
 206.25 378.125 l 1x000000c002
 223.4375 378.125 l 1
 223.4375 429.6875 l 1x000000c001
 240.625 429.6875 l 1
 240.625 498.4375 l 1x000000c00080
 257.8125 498.4375 l 1
 257.8125 515.625 l 1
 292.1875 515.625 l 1
 292.1875 481.25 l 1
 292.1875 464.0625 l 1x000000c00020
 275 464.0625 l 1
 275 446.875 l 1
 275 292.1875 l 1x000000c00080
 257.8125 292.1875 l 1x000000c00020
 257.8125 257.8125 l 1x000000c001
 257.8125 240.625 l 1
 240.625 240.625 l 1x000002400220
 240.625 223.4375 l 1x000001400220
 240.625 189.0625 l 1x000010400080
 257.8125 189.0625 l 1x000010400020
 257.8125 206.25 l 1
 326.5625 206.25 l 1x000008400028
 326.5625 189.0625 l 1x000001400028
 343.75 189.0625 l 1x000001400010
 343.75 171.875 l 1
 360.9375 171.875 l 1x000004400014
 360.9375 120.3125 l 1
 360.9375 85.9375 l 1x000020400008
 343.75 85.9375 l 1
 343.75 51.5625 l 1
 360.9375 51.5625 l 1x000220400014
 360.9375 68.75 l 1x000080400014
 378.125 68.75 l 1x000080400002
 378.125 171.875 l 1
 395.3125 171.875 l 1x000084400001
 395.3125 189.0625 l 1
 412.5 189.0625 l 1x00000140000080
 412.5 206.25 l 1x00000840000080
 446.875 206.25 l 1x000000c0000080
 446.875 189.0625 l 1x00000140000080
 464.0625 189.0625 l 1
 464.0625 103.125 l 1x00000140000040
 446.875 103.125 l 1
 446.875 85.9375 l 1x00000140000080
 429.6875 85.9375 l 1
 429.6875 68.75 l 1x000041400002
 412.5 68.75 l 1
 412.5 51.5625 l 1
 429.6875 51.5625 l 1x00024140000440
 429.6875 34.375 l 1x00010040000440
 446.875 34.375 l 1
 498.4375 34.375 l 1
 498.4375 0 l 1
 446.875 0 l 1x00010040000080
 412.5 0 l 1x00020040000080
 412.5 17.1875 l 1
 395.3125 17.1875 l 1x00008040000080
 395.3125 34.375 l 1
 378.125 34.375 l 1x000100400001
 378.125 17.1875 l 1x000080400001
 360.9375 17.1875 l 1x000080400004
 360.9375 0 l 1x000200400004
 326.5625 0 l 1x000100400008
 326.5625 -34.375 l 1
 309.375 -34.375 l 1x000400400048
 309.375 -51.5625 l 1x001000400048
 292.1875 -51.5625 l 1x001000400020
 292.1875 -85.9375 l 1x004000400020
 275 -85.9375 l 1x004000400080
 275 -103.125 l 1x008000400080
 257.8125 -103.125 l 1x008000400020
 257.8125 -120.3125 l 1x010000400020
 240.625 -120.3125 l 1x010000400080
 240.625 -137.5 l 1x020000400080
 223.4375 -137.5 l 1x0200004001
 223.4375 -154.6875 l 1
 206.25 -154.6875 l 1x0400004011
 206.25 -171.875 l 1x0800004011
 189.0625 -171.875 l 1x0800004004
 189.0625 -189.0625 l 1x2000004004
 171.875 -189.0625 l 1x2000004008
 171.875 -206.25 l 1x4000004008
 137.5 -206.25 l 1x4000004020
 137.5 -223.4375 l 1
 51.5625 -223.4375 l 1x8000004420
 51.5625 -206.25 l 1x4000004420
 34.375 -206.25 l 1x40000048
 34.375 -189.0625 l 1x10000048
 17.1875 -189.0625 l 1
 17.1875 -154.6875 l 1x10000050
 34.375 -154.6875 l 1
 34.375 -120.3125 l 1x11000048
 51.5625 -120.3125 l 1x11000044
 51.5625 -85.9375 l 1x00400044
 68.75 -85.9375 l 1x00400042
 68.75 -68.75 l 1x00200042
 85.9375 -68.75 l 1x00200044
 85.9375 -51.5625 l 1x00800044
 103.125 -51.5625 l 1x00800041
120.3125 -189.0625 m 1x8400004440
 120.3125 -171.875 l 1x8800004440
 154.6875 -171.875 l 1
 154.6875 -154.6875 l 1x4400004010
 171.875 -154.6875 l 1x4400004008
 171.875 -137.5 l 1x2000004008
 189.0625 -137.5 l 1x2000004004
 189.0625 -120.3125 l 1x0800004004
 206.25 -120.3125 l 1x0800004002
 206.25 -103.125 l 1x0400004002
 223.4375 -103.125 l 1x0400004001
 223.4375 -85.9375 l 1x0200004001
 240.625 -85.9375 l 1x020000400080
 240.625 -68.75 l 1x010000400080
 257.8125 -68.75 l 1x010000400020
 257.8125 -51.5625 l 1x011000400040
 257.8125 -34.375 l 1x000800400040
 223.4375 -34.375 l 1x0004004001
 206.25 -34.375 l 1x0004004002
 206.25 -51.5625 l 1x0010004002
 189.0625 -51.5625 l 1x0010004004
 171.875 -51.5625 l 1x0010004008
 154.6875 -51.5625 l 1x0010004010
 154.6875 -68.75 l 1x0020004010
 137.5 -68.75 l 1
 120.3125 -68.75 l 1x0020004220
 120.3125 -85.9375 l 1x0040004220
 103.125 -85.9375 l 1x00400041
 103.125 -103.125 l 1x00800041
 85.9375 -103.125 l 1x00800044
 85.9375 -120.3125 l 1x01000044
 85.9375 -137.5 l 1x02000044
 68.75 -137.5 l 1x02000048
 68.75 -154.6875 l 1
 68.75 -189.0625 l 1x84000050
 85.9375 -189.0625 l 1
 120.3125 -189.0625 l 1x8400004440
412.5 120.3125 m 1x00005040000140
 429.6875 120.3125 l 1
 429.6875 137.5 l 1x00005040000140
 429.6875 154.6875 l 1
 412.5 154.6875 l 1x00000840000140
 412.5 137.5 l 1
 412.5 120.3125 l 1x00005040000140
223.4375 275 m 1x000000c009
 206.25 275 l 1
 206.25 257.8125 l 1
 223.4375 257.8125 l 1
 223.4375 275 l 1x000000c009
223.4375 171.875 m 1x000021400480
 240.625 171.875 l 1x000021400480
 240.625 189.0625 l 1x000010400480
 223.4375 189.0625 l 1
 223.4375 171.875 l 1x000021400480
EndSplineSet
Validated: 524293
EndChar
StartChar: a
Encoding: 97 97 0
Width: 309
Flags: W
HStem: 0 34<0 34 275 309> 17 34<120 154> 34 52<189 206> 34 35<86 103 172 189> 172 51<189 206> 186 20G<240 257> 189 51<120 137 172 189> 206 34<137 172>
VStem: 0 51<0 17> 51 35<69 120> 68 52<154 189> 68 35<137 154> 86 51<189 206> 172 51<189 206> 189 51<69 86> 206 34<86 103> 240 17<189 206> 257 52<0 17>
LayerCount: 2
Back
Fore
SplineSet
257 103 m 1x040040
 240 103 l 1x040140
 240 69 l 1
 257 69 l 1x140240
 257 51 l 1
 275 51 l 1x400240
 275 34 l 1
 309 34 l 1
 309 0 l 1
 257 0 l 1x800240
 257 17 l 1
 223 17 l 1x400440
 223 34 l 1
 172 34 l 1x100440
 172 17 l 1
 103 17 l 1x401440
 103 34 l 1
 68 34 l 1x101440
 68 17 l 1
 51 17 l 1x409440
 51 0 l 1
 17 0 l 1
 0 0 l 1
 0 34 l 1
 17 34 l 1
 34 34 l 1x809440
 34 51 l 1
 51 51 l 1
 51 137 l 1x4040
 68 137 l 1x4010
 68 189 l 1x4220
 86 189 l 1x4208
 86 206 l 1x0108
 103 206 l 1x0110
 103 223 l 1x0810
 120 223 l 1x0820
 120 240 l 1
 189 240 l 1x0222
 189 223 l 1x0822
 206 223 l 1x0801
 206 206 l 1x0101
 223 206 l 1x0104
 223 189 l 1
 240 189 l 1x020480
 240 206 l 1
 257 206 l 1x040480
 257 103 l 1x040040
86 69 m 1x1840
 120 69 l 1x1820
 120 51 l 1
 154 51 l 1x4020
 154 69 l 1
 189 69 l 1x1022
 189 86 l 1x2022
 206 86 l 1
 206 103 l 1
 206 120 l 1
 206 172 l 1x2801
 189 172 l 1x2802
 189 189 l 1x0202
 172 189 l 1x0204
 172 206 l 1
 137 206 l 1x010c
 137 189 l 1x020c
 120 189 l 1x0220
 120 172 l 1
 120 154 l 1x0820
 103 154 l 1
 103 137 l 1
 103 120 l 1x0810
 86 120 l 1
 86 103 l 1
 86 69 l 1x1840
EndSplineSet
Validated: 1
Substitution2: "high-1" a.bovw
EndChar
